<?xml version="1.0" encoding="utf-8"?>
<!DOCTYPE svg PUBLIC "-//W3C//DTD SVG 1.1//EN" "http://www.w3.org/Graphics/SVG/1.1/DTD/svg11.dtd">
<svg version="1.1" baseProfile="full"
 xmlns="http://www.w3.org/2000/svg"
 xmlns:xlink="http://www.w3.org/1999/xlink"
 xmlns:ev="http://www.w3.org/2001/xml-events" 
  height="17px" 
  width="16px" 
>
<path opacity="1" fill="rgb( 255, 255, 255 )"
 d="M5.726,10.583 C5.726,10.583 3.43899999999999,10.583 3.43899999999999,10.583 C3.43899999999999,10.583 3.43899999999999,8.24800000000005 3.43899999999999,8.24800000000005 C3.43899999999999,8.24800000000005 5.726,8.24800000000005 5.726,8.24800000000005 C5.726,8.24800000000005 5.726,10.583 5.726,10.583 ZM9.18300000000001,8.24800000000005 C9.18300000000001,8.24800000000005 6.895,8.24800000000005 6.895,8.24800000000005 C6.895,8.24800000000005 6.895,10.583 6.895,10.583 C6.895,10.583 9.18300000000001,10.583 9.18300000000001,10.583 C9.18300000000001,10.583 9.18300000000001,8.24800000000005 9.18300000000001,8.24800000000005 ZM12.639,8.24800000000005 C12.639,8.24800000000005 10.351,8.24800000000005 10.351,8.24800000000005 C10.351,8.24800000000005 10.351,10.583 10.351,10.583 C10.351,10.583 12.639,10.583 12.639,10.583 C12.639,10.583 12.639,8.24800000000005 12.639,8.24800000000005 ZM5.726,11.657 C5.726,11.657 3.43899999999999,11.657 3.43899999999999,11.657 C3.43899999999999,11.657 3.43899999999999,13.992 3.43899999999999,13.992 C3.43899999999999,13.992 5.726,13.992 5.726,13.992 C5.726,13.992 5.726,11.657 5.726,11.657 ZM9.18300000000001,11.657 C9.18300000000001,11.657 6.895,11.657 6.895,11.657 C6.895,11.657 6.895,13.992 6.895,13.992 C6.895,13.992 9.18300000000001,13.992 9.18300000000001,13.992 C9.18300000000001,13.992 9.18300000000001,11.657 9.18300000000001,11.657 ZM12.639,11.657 C12.639,11.657 10.351,11.657 10.351,11.657 C10.351,11.657 10.351,13.992 10.351,13.992 C10.351,13.992 12.639,13.992 12.639,13.992 C12.639,13.992 12.639,11.657 12.639,11.657 ZM13.491,3.53499999999997 C13.491,3.93299999999999 13.175,4.25599999999997 12.785,4.25599999999997 C12.396,4.25599999999997 12.08,3.93299999999999 12.08,3.53499999999997 C12.08,3.53499999999997 12.08,1.72299999999996 12.08,1.72299999999996 C12.08,1.32600000000002 12.396,1.00300000000004 12.785,1.00300000000004 C13.175,1.00300000000004 13.491,1.32600000000002 13.491,1.72299999999996 C13.491,1.72299999999996 13.491,3.53499999999997 13.491,3.53499999999997 ZM3.95699999999999,1.72000000000003 C3.95699999999999,1.322 3.64100000000001,0.99900000000002 3.251,0.99900000000002 C2.861,0.99900000000002 2.54600000000001,1.322 2.54600000000001,1.72000000000003 C2.54600000000001,1.72000000000003 2.54600000000001,3.53200000000004 2.54600000000001,3.53200000000004 C2.54600000000001,3.92999999999995 2.861,4.25199999999995 3.251,4.25199999999995 C3.64100000000001,4.25199999999995 3.95699999999999,3.92999999999995 3.95699999999999,3.53200000000004 C3.95699999999999,3.53200000000004 3.95699999999999,1.72000000000003 3.95699999999999,1.72000000000003 ZM14.344,2.77200000000005 C14.344,2.77200000000005 14.344,3.50900000000001 14.344,3.50900000000001 C14.344,4.38599999999997 13.645,5.10000000000002 12.785,5.10000000000002 C11.926,5.10000000000002 11.227,4.38599999999997 11.227,3.50900000000001 C11.227,3.50900000000001 11.227,2.77200000000005 11.227,2.77200000000005 C11.227,2.77200000000005 4.81,2.77200000000005 4.81,2.77200000000005 C4.81,2.77200000000005 4.81,3.50599999999997 4.81,3.50599999999997 C4.81,4.38300000000004 4.111,5.096 3.251,5.096 C2.392,5.096 1.693,4.38300000000004 1.693,3.50599999999997 C1.693,3.50599999999997 1.693,2.77200000000005 1.693,2.77200000000005 C1.693,2.77200000000005 0,2.77200000000005 0,2.77200000000005 C0,2.77200000000005 0,17 0,17 C0,17 16,17 16,17 C16,17 16,2.77200000000005 16,2.77200000000005 C16,2.77200000000005 14.344,2.77200000000005 14.344,2.77200000000005 C14.344,2.77200000000005 14.344,2.77200000000005 14.344,2.77200000000005 ZM14.447,15.414 C14.447,15.414 1.553,15.414 1.553,15.414 C1.553,15.414 1.553,6.59699999999998 1.553,6.59699999999998 C1.553,6.59699999999998 14.447,6.59699999999998 14.447,6.59699999999998 C14.447,6.59699999999998 14.447,15.414 14.447,15.414 Z "/>
</svg>
