<?xml version="1.0" encoding="utf-8"?>
<!-- Generator: Adobe Illustrator 18.0.0, SVG Export Plug-In . SVG Version: 6.00 Build 0)  -->
<!DOCTYPE svg PUBLIC "-//W3C//DTD SVG 1.1//EN" "http://www.w3.org/Graphics/SVG/1.1/DTD/svg11.dtd">
<svg version="1.1" id="Layer_2" xmlns="http://www.w3.org/2000/svg" xmlns:xlink="http://www.w3.org/1999/xlink" x="0px" y="0px"
	 viewBox="22.2 18.5 41.1 41.1" enable-background="new 22.2 18.5 41.1 41.1" xml:space="preserve">
<g>
	<path d="M22.2,39.1c0,11.3,9.2,20.6,20.6,20.6s20.6-9.2,20.6-20.6s-9.2-20.6-20.6-20.6C31.4,18.5,22.2,27.8,22.2,39.1z M24.7,39.1
		c0-10,8.1-18.1,18.1-18.1s18.1,8.1,18.1,18.1s-8.1,18.1-18.1,18.1S24.7,49,24.7,39.1z"/>
	<path d="M37.6,38.8c0,0.1,0,0.1,0,0.2c0,0.3,0.1,0.6,0.4,0.8l6.6,6.6c0.2,0.2,0.5,0.4,0.9,0.4c0.3,0,0.6-0.1,0.9-0.4
		c0.5-0.5,0.5-1.3,0-1.7l-5.7-5.7l5.7-5.7c0.5-0.5,0.5-1.3,0-1.7c-0.5-0.5-1.3-0.5-1.7,0L38,38C37.8,38.2,37.6,38.5,37.6,38.8z"/>
</g>
</svg>
