<?xml version="1.0" encoding="utf-8"?>
<!DOCTYPE svg PUBLIC "-//W3C//DTD SVG 1.1//EN" "http://www.w3.org/Graphics/SVG/1.1/DTD/svg11.dtd">
<svg version="1.1" baseProfile="full"
 xmlns="http://www.w3.org/2000/svg"
 xmlns:xlink="http://www.w3.org/1999/xlink"
 xmlns:ev="http://www.w3.org/2001/xml-events" 
  height="16px" 
  width="15px" 
>
<path opacity="0.702" fill="rgb( 255, 255, 255 )"
 d="M7.86199999999997,5.791 C7.85900000000004,5.78699999999998 7.87300000000005,5.743 7.88499999999999,5.74700000000001 C7.89300000000003,5.75 7.88999999999999,5.75400000000002 7.89999999999998,5.75400000000002 C7.90999999999997,5.755 7.91499999999996,5.74400000000003 7.92499999999995,5.74599999999998 C7.94100000000003,5.74799999999999 7.95100000000002,5.76299999999998 7.96799999999996,5.76299999999998 C7.98000000000002,5.76400000000001 7.98699999999997,5.75099999999998 7.99900000000002,5.75 C8.00800000000004,5.74900000000002 8.01599999999996,5.755 8.024,5.75299999999999 C8.03300000000002,5.75099999999998 8.03999999999996,5.745 8.048,5.74099999999999 C8.06299999999999,5.73200000000003 8.06100000000004,5.73899999999998 8.07899999999995,5.738 C8.08399999999995,5.73700000000002 8.08900000000006,5.73399999999998 8.09400000000005,5.733 C8.09500000000003,5.733 8.096,5.733 8.09799999999996,5.733 C8.10599999999999,5.73399999999998 8.10900000000004,5.738 8.10699999999997,5.74700000000001 C8.10299999999995,5.76799999999997 8.08699999999999,5.78300000000002 8.08399999999995,5.80399999999997 C8.08199999999999,5.81700000000001 8.10000000000002,5.82499999999999 8.09500000000003,5.839 C8.08399999999995,5.875 8.07399999999996,5.87700000000001 8.06700000000001,5.87900000000002 C8.05700000000002,5.88 8.04999999999995,5.87700000000001 8.04600000000005,5.875 C8.03300000000002,5.86900000000003 8.02499999999998,5.858 8.01300000000003,5.85000000000002 C8.00699999999995,5.84699999999998 7.99900000000002,5.846 7.99300000000005,5.84300000000002 C7.97199999999998,5.834 7.91300000000001,5.79300000000001 7.89400000000001,5.79399999999998 C7.88800000000003,5.79500000000002 7.88199999999995,5.80000000000001 7.87599999999998,5.79899999999998 C7.875,5.79899999999998 7.875,5.79899999999998 7.875,5.79899999999998 C7.87099999999998,5.79899999999998 7.86599999999999,5.798 7.86199999999997,5.791 ZM6.62,4.01900000000001 C6.62,4.01900000000001 6.62,4.01900000000001 6.62,4.01900000000001 C6.61900000000003,4.02100000000002 6.61800000000005,4.02199999999999 6.61699999999996,4.024 C6.61500000000001,4.02800000000002 6.61599999999999,4.03300000000002 6.61900000000003,4.03500000000003 C6.62300000000005,4.03699999999998 6.62800000000004,4.036 6.63,4.03300000000002 C6.63400000000001,4.029 6.63800000000003,4.024 6.64300000000003,4.01799999999997 C6.64800000000002,4.012 6.64999999999998,4.00999999999999 6.65800000000002,4.00599999999997 C6.66399999999999,4.00400000000002 6.66999999999996,4.00200000000001 6.67600000000004,4 C6.678,3.99900000000002 6.68100000000004,3.99900000000002 6.68299999999999,4.00099999999998 C6.68399999999997,4.00200000000001 6.68600000000004,4.00400000000002 6.68600000000004,4.00700000000001 C6.68499999999995,4.02100000000002 6.69000000000005,4.036 6.67600000000004,4.04700000000003 C6.66700000000003,4.05399999999997 6.66099999999994,4.05900000000003 6.65599999999995,4.06299999999999 C6.65200000000004,4.06700000000001 6.64999999999998,4.07299999999998 6.65300000000002,4.07900000000001 C6.65599999999995,4.084 6.66200000000003,4.08699999999999 6.66800000000001,4.08499999999998 C6.66800000000001,4.08499999999998 6.66800000000001,4.08499999999998 6.66899999999998,4.08600000000001 C6.66999999999996,4.08600000000001 6.66999999999996,4.08699999999999 6.66999999999996,4.08699999999999 C6.67399999999998,4.10399999999999 6.67499999999995,4.10399999999999 6.697,4.09100000000001 C6.697,4.08999999999998 6.69799999999998,4.08999999999998 6.69899999999996,4.08999999999998 C6.69899999999996,4.08999999999998 6.70000000000005,4.09100000000001 6.70000000000005,4.09100000000001 C6.70299999999997,4.09699999999998 6.70799999999997,4.10199999999998 6.71400000000006,4.10399999999999 C6.72199999999998,4.108 6.72799999999995,4.11599999999999 6.73000000000002,4.125 C6.73000000000002,4.12599999999998 6.73000000000002,4.12599999999998 6.73000000000002,4.12700000000001 C6.73000000000002,4.12700000000001 6.73099999999999,4.12799999999999 6.73099999999999,4.12799999999999 C6.73800000000006,4.15100000000001 6.73199999999997,4.17700000000002 6.71500000000003,4.19299999999998 C6.69799999999998,4.20999999999998 6.673,4.21600000000001 6.64999999999998,4.209 C6.64999999999998,4.209 6.64999999999998,4.209 6.64999999999998,4.209 C6.64599999999996,4.20800000000003 6.64200000000005,4.209 6.63999999999999,4.21199999999999 C6.63699999999994,4.21600000000001 6.63800000000003,4.22000000000003 6.63999999999999,4.22300000000001 C6.64200000000005,4.226 6.64499999999998,4.22800000000001 6.64499999999998,4.23200000000003 C6.64499999999998,4.24599999999998 6.62699999999995,4.24099999999999 6.62099999999998,4.25099999999998 C6.62099999999998,4.25099999999998 6.62099999999998,4.25099999999998 6.62099999999998,4.25099999999998 C6.62099999999998,4.25200000000001 6.62,4.25200000000001 6.62,4.25299999999999 C6.62,4.255 6.62099999999998,4.25700000000001 6.62199999999996,4.25799999999998 C6.62400000000002,4.25900000000001 6.625,4.25999999999999 6.62699999999995,4.25900000000001 C6.63499999999999,4.25799999999998 6.64200000000005,4.25099999999998 6.65099999999995,4.25 C6.66700000000003,4.24900000000002 6.65499999999997,4.29000000000002 6.649,4.29599999999999 C6.64300000000003,4.303 6.60199999999998,4.31700000000001 6.58900000000006,4.31900000000002 C6.58100000000002,4.31999999999999 6.57500000000005,4.32100000000003 6.572,4.32400000000001 C6.56899999999996,4.327 6.56799999999998,4.34399999999999 6.57899999999995,4.35000000000002 C6.59699999999998,4.358 6.61400000000003,4.34300000000002 6.63099999999997,4.34699999999998 C6.63099999999997,4.34699999999998 6.63099999999997,4.34699999999998 6.63099999999997,4.34699999999998 C6.64800000000002,4.35199999999998 6.66300000000001,4.36099999999999 6.67399999999998,4.37299999999999 C6.67600000000004,4.37400000000002 6.67700000000002,4.375 6.678,4.375 C6.68399999999997,4.37799999999999 6.69000000000005,4.37799999999999 6.69600000000003,4.375 C6.697,4.37400000000002 6.69799999999998,4.37400000000002 6.70000000000005,4.37299999999999 C6.70399999999995,4.36900000000003 6.70899999999995,4.36700000000002 6.71400000000006,4.36700000000002 C6.71799999999996,4.36700000000002 6.721,4.36900000000003 6.72199999999998,4.37299999999999 C6.72400000000005,4.37599999999998 6.72199999999998,4.38099999999997 6.71900000000005,4.38299999999998 C6.70699999999999,4.392 6.69399999999996,4.40100000000001 6.67600000000004,4.399 C6.66600000000005,4.39800000000002 6.65700000000004,4.39800000000002 6.64700000000005,4.399 C6.61800000000005,4.40199999999999 6.59000000000003,4.41500000000002 6.56899999999996,4.43599999999998 C6.56200000000001,4.44299999999998 6.55499999999995,4.45100000000002 6.548,4.45800000000003 C6.54399999999998,4.46199999999999 6.54399999999998,4.46800000000002 6.54700000000003,4.47199999999998 C6.54999999999995,4.476 6.55600000000004,4.47699999999998 6.56100000000004,4.47399999999999 C6.56399999999996,4.47199999999998 6.56700000000001,4.47000000000003 6.57100000000003,4.46800000000002 C6.58299999999997,4.45999999999998 6.60599999999999,4.45100000000002 6.61900000000003,4.47500000000002 C6.61900000000003,4.47500000000002 6.61900000000003,4.47500000000002 6.61900000000003,4.47500000000002 C6.62099999999998,4.476 6.62300000000005,4.47500000000002 6.625,4.47399999999999 C6.64200000000005,4.46100000000001 6.64999999999998,4.43700000000001 6.67499999999995,4.435 C6.69299999999998,4.43400000000003 6.70600000000002,4.45100000000002 6.72400000000005,4.447 C6.74400000000003,4.44299999999998 6.76099999999997,4.428 6.78300000000002,4.42899999999997 C6.79100000000005,4.42899999999997 6.81299999999999,4.435 6.81500000000005,4.43700000000001 C6.82100000000003,4.44 6.82100000000003,4.44 6.85400000000004,4.44099999999997 C6.86800000000005,4.44099999999997 6.87800000000004,4.452 6.89099999999996,4.45400000000001 C6.90700000000004,4.45699999999999 6.92200000000003,4.447 6.93799999999999,4.44900000000001 C6.93799999999999,4.44900000000001 6.93799999999999,4.44900000000001 6.93799999999999,4.44900000000001 C6.93799999999999,4.44900000000001 6.93799999999999,4.44900000000001 6.93799999999999,4.44900000000001 C6.93799999999999,4.44900000000001 6.98500000000001,4.44 6.98400000000004,4.42000000000002 C6.98400000000004,4.42000000000002 6.98400000000004,4.42000000000002 6.98400000000004,4.41899999999998 C6.98400000000004,4.41899999999998 6.98299999999995,4.41899999999998 6.98299999999995,4.41899999999998 C6.96699999999998,4.40899999999999 6.95600000000002,4.392 6.95299999999997,4.37299999999999 C6.95299999999997,4.37200000000001 6.95399999999995,4.37 6.95600000000002,4.37 C6.95699999999999,4.37 6.95899999999995,4.37 6.96000000000004,4.37099999999998 C6.96100000000001,4.37200000000001 6.96199999999999,4.37200000000001 6.96299999999997,4.37299999999999 C6.96799999999996,4.37599999999998 6.971,4.37700000000001 6.97299999999996,4.37599999999998 C6.98400000000004,4.368 6.99599999999998,4.36000000000001 7.00800000000004,4.35300000000001 C7.01499999999999,4.34899999999999 7.01900000000001,4.34199999999998 7.02200000000005,4.32799999999997 C7.024,4.32400000000001 7.02800000000002,4.30099999999999 6.99900000000002,4.28500000000003 C6.99900000000002,4.28500000000003 6.99900000000002,4.28500000000003 6.99900000000002,4.28500000000003 C6.99599999999998,4.28399999999999 6.94299999999998,4.25599999999997 6.928,4.26499999999999 C6.91800000000001,4.26999999999998 6.91800000000001,4.26999999999998 6.89999999999998,4.25999999999999 C6.899,4.25799999999998 6.89999999999998,4.255 6.90200000000004,4.25299999999999 C6.923,4.23700000000002 6.923,4.23700000000002 6.923,4.23200000000003 C6.92200000000003,4.22199999999998 6.91700000000003,4.21499999999998 6.91099999999994,4.20800000000003 C6.90599999999995,4.202 6.90499999999997,4.19400000000002 6.90899999999999,4.18700000000001 C6.90999999999997,4.18700000000001 6.90999999999997,4.18700000000001 6.90999999999997,4.18700000000001 C6.91399999999999,4.18200000000002 6.89300000000003,4.137 6.89200000000005,4.13600000000002 C6.89099999999996,4.13499999999999 6.88999999999999,4.13400000000001 6.88699999999994,4.13400000000001 C6.87900000000002,4.13499999999999 6.86900000000003,4.13499999999999 6.86099999999999,4.13499999999999 C6.86000000000001,4.13499999999999 6.85799999999995,4.13499999999999 6.85599999999999,4.13600000000002 C6.85599999999999,4.13600000000002 6.85599999999999,4.13600000000002 6.85500000000002,4.13499999999999 C6.85500000000002,4.13400000000001 6.85500000000002,4.13299999999998 6.85500000000002,4.13200000000001 C6.85799999999995,4.12099999999998 6.84699999999998,4.11399999999998 6.846,4.10399999999999 C6.84500000000003,4.09399999999999 6.84799999999996,4.084 6.84900000000005,4.07400000000001 C6.85000000000002,4.065 6.84900000000005,4.05399999999997 6.846,4.04399999999998 C6.83500000000004,4.00799999999998 6.83699999999999,3.97000000000003 6.85000000000002,3.935 C6.85500000000002,3.92000000000002 6.86300000000006,3.90600000000001 6.87199999999996,3.89400000000001 C6.89300000000003,3.86500000000001 6.79899999999998,3.86900000000003 6.78099999999995,3.87 C6.77999999999997,3.87 6.779,3.86900000000003 6.77800000000002,3.868 C6.77700000000004,3.86700000000002 6.77700000000004,3.86500000000001 6.77800000000002,3.86399999999998 C6.78200000000004,3.85700000000003 6.78300000000002,3.84800000000001 6.78899999999999,3.84199999999998 C6.798,3.834 6.80999999999995,3.83199999999999 6.81899999999996,3.82600000000002 C6.84100000000001,3.81200000000001 6.82299999999998,3.80399999999997 6.81500000000005,3.80200000000002 C6.79600000000005,3.79700000000003 6.77599999999995,3.79399999999998 6.75699999999995,3.79399999999998 C6.75,3.79399999999998 6.74199999999996,3.79500000000002 6.73500000000001,3.798 C6.73000000000002,3.80000000000001 6.72400000000005,3.80599999999998 6.71799999999996,3.81400000000002 C6.70699999999999,3.82999999999998 6.69299999999998,3.84500000000003 6.67700000000002,3.858 C6.67600000000004,3.858 6.67499999999995,3.85899999999998 6.67399999999998,3.86000000000001 C6.66999999999996,3.863 6.66399999999999,3.86399999999998 6.65899999999999,3.86099999999999 C6.65700000000004,3.86000000000001 6.65300000000002,3.86000000000001 6.64999999999998,3.86099999999999 C6.64999999999998,3.86200000000002 6.649,3.86200000000002 6.649,3.86200000000002 C6.64300000000003,3.86500000000001 6.63900000000001,3.86900000000003 6.63599999999997,3.87400000000002 C6.63300000000004,3.88 6.63300000000004,3.887 6.63800000000003,3.892 C6.64300000000003,3.89699999999999 6.64999999999998,3.899 6.65599999999995,3.89600000000002 C6.65599999999995,3.89600000000002 6.65599999999995,3.89600000000002 6.65700000000004,3.89600000000002 C6.65700000000004,3.89800000000002 6.65700000000004,3.89999999999998 6.65599999999995,3.90199999999999 C6.65300000000002,3.91000000000003 6.65200000000004,3.91800000000001 6.649,3.92599999999999 C6.64800000000002,3.92700000000002 6.64800000000002,3.92700000000002 6.64700000000005,3.92700000000002 C6.64499999999998,3.928 6.64400000000001,3.92700000000002 6.64300000000003,3.92599999999999 C6.63900000000001,3.92000000000002 6.63699999999994,3.92000000000002 6.63400000000001,3.92000000000002 C6.63400000000001,3.92000000000002 6.63400000000001,3.92000000000002 6.63400000000001,3.92000000000002 C6.62199999999996,3.923 6.61500000000001,3.94900000000001 6.61500000000001,3.95600000000002 C6.61500000000001,3.959 6.61599999999999,3.96100000000001 6.61699999999996,3.96199999999999 C6.63199999999995,3.97800000000001 6.63300000000004,4.00200000000001 6.62,4.01900000000001 ZM14.4,8 C14.4,11.976 11.176,15.2 7.20000000000005,15.2 C3.22299999999996,15.2 0,11.976 0,8 C0,4.024 3.22299999999996,0.80000000000001 7.20000000000005,0.80000000000001 C11.176,0.80000000000001 14.4,4.024 14.4,8 ZM9.33000000000004,4.90100000000001 C9.33000000000004,4.88400000000001 9.35900000000004,4.88400000000001 9.36199999999997,4.863 C9.36300000000006,4.85300000000001 9.35900000000004,4.84399999999999 9.351,4.83800000000002 C9.34000000000003,4.83100000000002 9.33600000000001,4.83300000000003 9.32299999999998,4.839 C9.31600000000003,4.84199999999998 9.30700000000002,4.846 9.298,4.846 C9.28999999999996,4.846 9.28399999999999,4.84100000000001 9.28300000000002,4.83300000000003 C9.28099999999995,4.827 9.28399999999999,4.81999999999999 9.28999999999996,4.81700000000001 C9.29200000000003,4.81599999999997 9.29300000000001,4.81299999999999 9.29200000000003,4.81099999999998 C9.29200000000003,4.81099999999998 9.29200000000003,4.81099999999998 9.29200000000003,4.81099999999998 C9.29100000000005,4.80900000000003 9.28999999999996,4.80799999999999 9.28800000000001,4.80799999999999 C9.26800000000003,4.803 9.25099999999998,4.80000000000001 9.23699999999997,4.798 C9.21100000000001,4.79500000000002 9.18499999999995,4.79700000000003 9.15899999999999,4.80399999999997 C9.13900000000001,4.81 9.13699999999994,4.81299999999999 9.13300000000004,4.827 C9.12,4.863 9.11500000000001,4.87700000000001 9.11000000000001,4.88299999999998 C9.09299999999996,4.90600000000001 9.08000000000004,4.93200000000002 9.07299999999998,4.95999999999998 C9.07100000000003,4.971 9.06500000000005,4.98000000000002 9.053,4.98599999999999 C9.053,4.98599999999999 9.053,4.98599999999999 9.05200000000002,4.98599999999999 C9.05200000000002,4.98599999999999 9.04399999999998,5.05099999999999 9.04499999999996,5.05799999999999 C9.04600000000005,5.072 9.05399999999997,5.08699999999999 9.04899999999998,5.10199999999998 C9.04499999999996,5.11500000000001 9.02599999999995,5.11200000000002 9.02200000000005,5.125 C9.02200000000005,5.125 9.02200000000005,5.125 9.02200000000005,5.12599999999998 C9.01400000000001,5.14800000000002 9.02300000000002,5.18099999999998 9.029,5.20299999999997 C9.029,5.20499999999998 9.02800000000002,5.20699999999999 9.02599999999995,5.20800000000003 C9.02499999999998,5.209 9.02200000000005,5.209 9.02099999999996,5.20699999999999 C9.02099999999996,5.20699999999999 9.02099999999996,5.20699999999999 9.02099999999996,5.20699999999999 C9.01099999999997,5.19799999999998 9.00699999999995,5.20100000000002 9.005,5.20499999999998 C9.00300000000004,5.20800000000003 9.00300000000004,5.21100000000001 9.005,5.214 C9.005,5.214 9.005,5.214 9.005,5.214 C9.005,5.214 9.03200000000004,5.25200000000001 9.03200000000004,5.25200000000001 C9.05899999999997,5.29000000000002 9.09500000000003,5.31900000000002 9.13800000000003,5.33699999999999 C9.13800000000003,5.33699999999999 9.13800000000003,5.33699999999999 9.13800000000003,5.33699999999999 C9.16099999999994,5.34699999999998 9.18299999999999,5.33100000000002 9.20600000000002,5.334 C9.23199999999997,5.33699999999999 9.25800000000004,5.33199999999999 9.28300000000002,5.33199999999999 C9.29200000000003,5.33199999999999 9.30999999999995,5.32999999999998 9.32100000000003,5.32499999999999 C9.33000000000004,5.32100000000003 9.33100000000002,5.31400000000002 9.33199999999999,5.30700000000002 C9.33199999999999,5.30599999999998 9.33199999999999,5.30599999999998 9.33199999999999,5.30500000000001 C9.33199999999999,5.298 9.33299999999997,5.298 9.36199999999997,5.27499999999998 C9.38300000000004,5.25900000000001 9.40800000000002,5.25 9.42899999999997,5.23399999999998 C9.46400000000006,5.20600000000002 9.50800000000004,5.23399999999998 9.54600000000005,5.22199999999998 C9.55499999999995,5.22000000000003 9.67399999999998,5.26400000000001 9.68200000000002,5.26799999999997 C9.68200000000002,5.26799999999997 9.68200000000002,5.26799999999997 9.68200000000002,5.26799999999997 C9.71699999999998,5.28300000000002 9.81200000000001,5.28399999999999 9.83399999999995,5.29000000000002 C9.84299999999996,5.29300000000001 9.85699999999997,5.29599999999999 9.87,5.29500000000002 C9.87099999999998,5.29500000000002 9.87199999999996,5.29500000000002 9.87300000000005,5.29399999999998 C9.89099999999996,5.28500000000003 9.90300000000002,5.25599999999997 9.92899999999997,5.26900000000001 C9.97400000000005,5.29199999999997 10.101,5.27199999999999 10.0700000000001,5.16699999999997 C10.054,5.11000000000001 9.97799999999995,5.07900000000001 9.95600000000002,5.07100000000003 C9.88800000000003,5.04599999999999 9.84299999999996,4.988 9.78300000000002,4.95100000000002 C9.75699999999995,4.93400000000003 9.726,4.94900000000001 9.69799999999998,4.93799999999999 C9.63699999999994,4.91399999999999 9.63699999999994,4.91399999999999 9.63300000000004,4.89600000000002 C9.63300000000004,4.89499999999998 9.63400000000001,4.89299999999997 9.63499999999999,4.892 C9.65099999999995,4.868 9.66399999999999,4.84300000000002 9.67100000000005,4.815 C9.67100000000005,4.815 9.67100000000005,4.815 9.67100000000005,4.815 C9.67399999999998,4.80500000000001 9.678,4.80000000000001 9.66700000000003,4.79300000000001 C9.65300000000002,4.78399999999999 9.62599999999998,4.79300000000001 9.62400000000002,4.76999999999998 C9.62099999999998,4.75099999999998 9.66099999999994,4.73099999999999 9.67700000000002,4.72199999999998 C9.69100000000003,4.714 9.697,4.70299999999997 9.69899999999996,4.697 C9.70299999999997,4.68700000000001 9.69000000000005,4.673 9.68499999999995,4.67399999999998 C9.66600000000005,4.67599999999999 9.61400000000003,4.70699999999999 9.60699999999997,4.70800000000003 C9.60599999999999,4.70800000000003 9.60599999999999,4.70800000000003 9.60599999999999,4.70800000000003 C9.60400000000004,4.70800000000003 9.60199999999998,4.709 9.60000000000002,4.70999999999998 C9.59900000000005,4.70999999999998 9.60000000000002,4.70999999999998 9.59900000000005,4.70999999999998 C9.59900000000005,4.70999999999998 9.48099999999999,4.77800000000002 9.48099999999999,4.77800000000002 C9.48099999999999,4.779 9.48099999999999,4.779 9.48000000000002,4.779 C9.45899999999995,4.79399999999998 9.44799999999998,4.81900000000002 9.45000000000005,4.846 C9.45100000000002,4.87200000000001 9.46699999999998,4.89499999999998 9.49000000000001,4.90699999999998 C9.49900000000002,4.91199999999998 9.51400000000001,4.91500000000002 9.50900000000001,4.92500000000001 C9.50900000000001,4.92500000000001 9.50900000000001,4.92500000000001 9.50900000000001,4.92500000000001 C9.50599999999997,4.93000000000001 9.44100000000003,4.99099999999999 9.43499999999995,4.99200000000002 C9.41700000000003,4.99400000000003 9.41099999999994,4.98599999999999 9.40999999999997,4.983 C9.40899999999999,4.98200000000003 9.40899999999999,4.98099999999999 9.40800000000002,4.98000000000002 C9.39800000000002,4.95100000000002 9.375,4.92700000000002 9.34199999999998,4.91699999999997 C9.33500000000004,4.91399999999999 9.33100000000002,4.90800000000002 9.33000000000004,4.90100000000001 ZM12.963,8 C12.963,7.40300000000002 12.861,6.80000000000001 12.756,6.48200000000003 C12.723,6.38200000000001 12.648,6.30200000000002 12.55,6.26400000000001 C12.452,6.226 12.342,6.233 12.25,6.28500000000003 C12.02,6.416 12.027,6.43299999999999 11.946,6.428 C11.909,6.42700000000002 11.744,6.53699999999998 11.684,6.41000000000003 C11.673,6.387 11.615,6.27999999999997 11.534,6.42700000000002 C11.513,6.46699999999998 11.393,6.43700000000001 11.354,6.41500000000002 C11.2380000000001,6.35000000000002 11.0940000000001,6.19900000000001 11.059,6.161 C11.059,6.161 11.059,6.161 11.059,6.161 C11.059,6.161 11.059,6.161 11.059,6.161 C11.019,6.11500000000001 10.904,6.178 10.989,6.303 C11.271,6.72500000000002 11.321,6.72800000000001 11.401,6.76999999999998 C11.401,6.76999999999998 11.401,6.76999999999998 11.401,6.76999999999998 C11.439,6.74200000000002 11.433,6.733 11.4829999999999,6.726 C11.513,6.72199999999998 11.539,6.70299999999997 11.553,6.67500000000001 C11.553,6.67500000000001 11.553,6.67500000000001 11.553,6.67399999999998 C11.569,6.64299999999997 11.598,6.62 11.633,6.613 C11.667,6.60500000000002 11.703,6.61500000000001 11.73,6.63799999999998 C11.73,6.63799999999998 11.731,6.63799999999998 11.731,6.63900000000001 C11.78,6.68099999999998 11.843,6.642 11.895,6.666 C12.027,6.72899999999999 11.976,6.85500000000002 11.95,7.00400000000002 C11.95,7.00400000000002 11.95,7.005 11.95,7.005 C11.949,7.005 11.949,7.005 11.948,7.005 C11.936,7.00299999999999 11.925,7.012 11.925,7.024 C11.924,7.072 11.954,7.11599999999999 11.9450000000001,7.16399999999999 C11.9450000000001,7.166 11.944,7.16800000000001 11.942,7.16800000000001 C11.926,7.17599999999999 11.912,7.18700000000001 11.9,7.19999999999999 C11.862,7.24000000000001 11.86,7.29000000000002 11.827,7.33600000000001 C11.796,7.37900000000002 11.829,7.47399999999999 11.756,7.47500000000002 C11.727,7.47500000000002 11.633,7.529 11.6180000000001,7.59100000000001 C11.601,7.66500000000002 11.561,7.73099999999999 11.503,7.779 C11.461,7.815 11.403,7.86200000000002 11.323,7.92399999999998 C11.285,7.95299999999997 11.1319999999999,8.118 11,8.149 C10.982,8.154 10.963,8.14699999999999 10.952,8.13200000000001 C10.951,8.13099999999997 10.951,8.13 10.95,8.12900000000002 C10.8630000000001,7.99400000000003 10.845,7.83199999999999 10.777,7.69 C10.696,7.52199999999999 10.478,7.47699999999998 10.417,7.291 C10.366,7.13400000000001 10.3440000000001,7.06700000000001 10.273,7.02699999999999 C10.223,6.99799999999999 10.181,6.959 10.15,6.91000000000003 C10.099,6.83100000000002 10.023,6.71899999999999 9.96000000000004,6.65800000000002 C9.93100000000004,6.63099999999997 9.91300000000001,6.59500000000003 9.90599999999995,6.55599999999998 C9.90300000000002,6.53800000000001 9.87699999999995,6.54000000000002 9.87599999999998,6.55700000000002 C9.87300000000005,6.62 9.88400000000001,6.63999999999999 9.86699999999996,6.65300000000002 C9.85199999999998,6.66399999999999 9.83399999999995,6.65800000000002 9.82100000000003,6.64499999999998 C9.77599999999995,6.59899999999999 9.70299999999997,6.51499999999999 9.68399999999997,6.46699999999998 C9.68399999999997,6.46800000000002 9.68399999999997,6.46800000000002 9.68399999999997,6.46800000000002 C9.67899999999997,6.48599999999999 9.68299999999999,6.50599999999997 9.69399999999996,6.52100000000002 C9.79100000000005,6.66000000000003 10.264,7.34300000000002 10.276,7.40800000000002 C10.355,7.83800000000002 10.688,7.94099999999997 10.8579999999999,8.09899999999999 C10.89,8.12900000000002 10.9109999999999,8.16800000000001 10.919,8.209 C10.927,8.24900000000002 10.946,8.28300000000002 10.976,8.31 C11.0069999999999,8.33999999999998 11.038,8.33600000000001 11.216,8.31299999999999 C11.245,8.31 11.265,8.28899999999999 11.285,8.26999999999998 C11.302,8.25400000000002 11.446,8.20299999999997 11.465,8.19099999999997 C11.504,8.166 11.456,8.18000000000001 11.545,8.13799999999998 C11.58,8.12099999999998 11.621,8.01600000000002 11.614,8.13499999999999 C11.6130000000001,8.166 11.63,8.19400000000002 11.627,8.22500000000002 C11.6079999999999,8.40600000000001 11.593,8.43599999999998 11.583,8.471 C11.569,8.51799999999997 11.551,8.56200000000001 11.539,8.61000000000001 C11.485,8.83199999999999 11.399,9.06900000000002 11.249,9.24400000000003 C11.246,9.24799999999999 11.242,9.25200000000001 11.239,9.255 C11.1559999999999,9.33199999999999 11.005,9.47300000000001 10.8819999999999,9.714 C10.805,9.86500000000001 10.696,9.99700000000001 10.615,10.146 C10.588,10.197 10.581,10.209 10.605,10.277 C10.622,10.326 10.674,10.55 10.681,10.838 C10.6900000000001,11.152 10.639,11.204 10.539,11.276 C10.378,11.393 10.268,11.472 10.193,11.528 C10.105,11.593 10.052,11.696 10.05,11.806 C10.05,11.846 10.04,11.897 10.013,11.959 C10.013,11.959 10.013,11.959 10.013,11.959 C10.019,11.97 9.80600000000004,12.077 9.73199999999997,12.164 C9.73199999999997,12.164 9.73199999999997,12.164 9.73199999999997,12.164 C9.73199999999997,12.166 9.73199999999997,12.168 9.73299999999995,12.17 C9.78200000000004,12.325 9.154,12.776 9.02300000000002,12.775 C8.928,12.774 8.697,12.811 8.58600000000001,12.859 C8.51199999999994,12.89 8.30999999999995,12.822 8.29499999999996,12.779 C8.29300000000001,12.773 8.29200000000003,12.761 8.298,12.757 C8.34699999999998,12.716 8.18100000000004,12.476 8.14099999999996,12.448 C8.11599999999999,12.431 8.06700000000001,12.319 8.048,12.29 C7.98699999999997,12.205 8.09100000000001,12.084 8.024,11.998 C8.01999999999998,11.994 8.01599999999996,11.989 8.01300000000003,11.984 C8.01300000000003,11.984 7.81700000000001,11.711 7.81700000000001,11.711 C7.78700000000003,11.668 7.70000000000005,11.618 7.70000000000005,11.566 C7.70000000000005,11.566 7.70000000000005,11.566 7.70000000000005,11.565 C7.69899999999996,11.508 7.80100000000004,11.233 7.80899999999997,11.222 C7.81899999999996,11.208 7.827,11.194 7.83500000000004,11.179 C7.83900000000006,11.171 7.84699999999998,11.165 7.86199999999997,11.157 C7.91099999999994,11.131 7.98299999999995,11.069 7.90099999999995,10.936 C7.89599999999996,10.928 7.89599999999996,10.963 7.87,10.778 C7.85400000000004,10.657 7.69399999999996,10.383 7.66700000000003,10.354 C7.66700000000003,10.354 7.48299999999995,10.266 7.39800000000002,10.092 C7.40200000000004,10.082 7.40899999999999,10.073 7.41700000000003,10.066 C7.495,10.004 7.48099999999999,9.92500000000001 7.50400000000002,9.75700000000001 C7.505,9.74799999999999 7.50699999999995,9.74000000000001 7.50900000000001,9.73200000000003 C7.50900000000001,9.73099999999999 7.50900000000001,9.73099999999999 7.50900000000001,9.73000000000002 C7.50900000000001,9.73000000000002 7.51099999999997,9.71899999999999 7.51099999999997,9.71899999999999 C7.51099999999997,9.71899999999999 7.51099999999997,9.71800000000002 7.51199999999994,9.71800000000002 C7.51199999999994,9.71800000000002 7.51199999999994,9.71800000000002 7.51199999999994,9.71800000000002 C7.51900000000001,9.68400000000003 7.52700000000004,9.63999999999999 7.48199999999997,9.57100000000003 C7.47400000000005,9.55900000000003 7.46000000000004,9.553 7.44600000000003,9.55399999999997 C7.44500000000005,9.55399999999997 7.44399999999996,9.55399999999997 7.44399999999996,9.55399999999997 C7.41899999999998,9.55599999999998 7.39700000000005,9.53800000000001 7.39400000000001,9.51299999999998 C7.39400000000001,9.51299999999998 7.39400000000001,9.512 7.39400000000001,9.512 C7.39400000000001,9.512 7.39400000000001,9.512 7.39300000000003,9.512 C7.35699999999997,9.49700000000001 7.31600000000003,9.495 7.279,9.50599999999997 C7.19500000000005,9.52999999999997 7.01800000000003,9.56599999999997 6.99800000000005,9.452 C6.97199999999998,9.298 6.86599999999999,9.26400000000001 6.81500000000005,9.26799999999997 C6.59500000000003,9.28300000000002 6.40899999999999,9.47199999999998 6.18200000000002,9.45699999999999 C6.17100000000005,9.45600000000002 6.15899999999999,9.45100000000002 6.149,9.44799999999998 C5.95299999999997,9.37400000000002 5.74199999999996,9.37200000000001 5.54200000000003,9.334 C5.47500000000002,9.32100000000003 5.37699999999995,9.28800000000001 5.32799999999997,9.24000000000001 C5.32799999999997,9.24000000000001 5.04899999999998,8.96499999999998 5.04899999999998,8.96499999999998 C5.02999999999997,8.947 5.01400000000001,8.92700000000002 5,8.90600000000001 C4.91200000000003,8.76999999999998 4.87900000000002,8.47000000000003 4.85500000000002,8.41699999999997 C4.85199999999998,8.40899999999999 4.84799999999996,8.40100000000001 4.84400000000005,8.39299999999997 C4.84400000000005,8.39299999999997 4.82000000000005,8.34800000000001 4.82000000000005,8.34800000000001 C4.82000000000005,8.34800000000001 4.81899999999996,8.34699999999998 4.81899999999996,8.34699999999998 C4.81899999999996,8.34699999999998 4.81899999999996,8.34699999999998 4.81899999999996,8.34699999999998 C4.75400000000002,8.26100000000002 4.73400000000004,8.14999999999998 4.76400000000001,8.04700000000003 C4.76400000000001,8.04700000000003 4.875,7.68000000000001 4.875,7.68000000000001 C4.87599999999998,7.67500000000001 4.87800000000004,7.66899999999998 4.87900000000002,7.66399999999999 C4.88199999999995,7.65199999999999 4.88499999999999,7.63999999999999 4.88599999999997,7.62799999999999 C4.91200000000003,7.44600000000003 4.87800000000004,7.37900000000002 4.86099999999999,7.34699999999998 C4.82899999999995,7.286 4.82899999999995,7.286 4.98599999999999,7.06599999999997 C5.27300000000002,6.666 5.32299999999998,6.64600000000002 5.38,6.62299999999999 C5.38,6.62299999999999 5.38,6.62299999999999 5.38,6.62299999999999 C5.38,6.62299999999999 5.38,6.62299999999999 5.38,6.62299999999999 C5.505,6.637 5.74099999999999,6.48500000000001 5.73699999999997,6.40300000000002 C5.73599999999999,6.37599999999998 5.73299999999995,6.32100000000003 5.779,6.24799999999999 C5.79700000000003,6.21899999999999 5.82000000000005,6.19400000000002 5.846,6.17200000000003 C5.846,6.17200000000003 6.10400000000004,5.96300000000002 6.10400000000004,5.96300000000002 C6.15200000000004,5.92399999999998 6.21900000000005,5.92099999999999 6.26999999999998,5.95499999999998 C6.26999999999998,5.95499999999998 6.26999999999998,5.95499999999998 6.26999999999998,5.95499999999998 C6.30499999999995,5.94200000000001 6.34299999999996,5.94400000000002 6.37699999999995,5.959 C6.42100000000005,5.97800000000001 6.44899999999996,5.96499999999998 6.46299999999997,5.95800000000003 C6.61900000000003,5.88299999999998 6.78999999999996,5.86099999999999 7.58199999999999,5.81 C7.60900000000004,5.80799999999999 7.63499999999999,5.81999999999999 7.65099999999995,5.84100000000001 C7.65099999999995,5.84100000000001 7.65099999999995,5.84100000000001 7.65099999999995,5.84199999999998 C7.69799999999998,5.90199999999999 7.66300000000001,5.89400000000001 7.71600000000001,5.983 C7.73599999999999,6.017 7.71699999999998,6.04300000000001 7.65300000000002,6.10700000000003 C7.62900000000002,6.13099999999997 7.63300000000004,6.17000000000002 7.64099999999996,6.17099999999999 C7.66300000000001,6.17200000000003 7.71400000000006,6.185 7.75699999999995,6.20800000000003 C7.81299999999999,6.23700000000002 7.90099999999995,6.26600000000002 7.97500000000002,6.28699999999998 C8.04200000000003,6.30700000000002 8.10199999999998,6.346 8.14599999999996,6.399 C8.17499999999995,6.43400000000003 8.56700000000001,6.66800000000001 8.55100000000004,6.35000000000002 C8.54999999999995,6.327 8.572,6.28899999999999 8.60900000000004,6.25900000000001 C8.73599999999999,6.15600000000001 8.83000000000004,6.29000000000002 8.86500000000001,6.298 C8.92100000000005,6.31 8.928,6.31 8.96600000000001,6.31 C8.96600000000001,6.31 8.96600000000001,6.31 8.96699999999998,6.31 C8.96699999999998,6.31 8.96699999999998,6.31 8.96699999999998,6.31 C9.00199999999995,6.31 9.01800000000003,6.35000000000002 9.13,6.34300000000002 C9.32399999999996,6.32999999999998 9.51900000000001,6.36000000000001 9.71100000000001,6.32600000000002 C9.73299999999995,6.322 9.76300000000003,6.315 9.77999999999997,6.30099999999999 C9.99400000000003,6.125 9.77700000000004,5.90899999999999 9.80999999999995,5.714 C9.80999999999995,5.71300000000002 9.80999999999995,5.71300000000002 9.80999999999995,5.71199999999999 C9.80899999999997,5.71199999999999 9.80899999999997,5.71199999999999 9.80799999999999,5.71199999999999 C9.80799999999999,5.71199999999999 9.80799999999999,5.71199999999999 9.80799999999999,5.71199999999999 C9.74199999999996,5.71699999999998 9.67999999999995,5.743 9.63,5.786 C9.61099999999999,5.80200000000002 9.58900000000006,5.81299999999999 9.55899999999997,5.81599999999997 C9.50599999999997,5.82100000000003 9.46400000000006,5.78699999999998 9.41800000000001,5.76900000000001 C9.39400000000001,5.75999999999999 9.36800000000005,5.77199999999999 9.35900000000004,5.79500000000002 C9.35900000000004,5.79500000000002 9.35900000000004,5.79599999999999 9.35900000000004,5.79599999999999 C9.34100000000001,5.839 9.13699999999994,5.80700000000002 9.07600000000002,5.70499999999998 C9.05799999999999,5.67399999999998 9.02999999999997,5.64999999999998 8.99599999999998,5.637 C8.99599999999998,5.637 8.99599999999998,5.637 8.99599999999998,5.63600000000002 C8.99699999999996,5.63600000000002 8.99800000000005,5.63499999999999 8.99800000000005,5.63400000000001 C9.05799999999999,5.57799999999997 8.96699999999998,5.53399999999999 8.95699999999999,5.49000000000001 C8.95100000000002,5.46800000000002 8.96299999999997,5.44600000000003 8.98400000000004,5.43700000000001 C8.98400000000004,5.43700000000001 8.98500000000001,5.43700000000001 8.98500000000001,5.43700000000001 C9.03499999999997,5.41800000000001 9.05799999999999,5.39100000000002 9.048,5.39800000000002 C9.02599999999995,5.41399999999999 9.00099999999998,5.423 8.97500000000002,5.42500000000001 C8.97500000000002,5.42500000000001 8.97500000000002,5.42500000000001 8.97500000000002,5.42500000000001 C8.96100000000001,5.42500000000001 8.947,5.42200000000003 8.93499999999995,5.41500000000002 C8.90499999999997,5.399 8.87199999999996,5.38999999999999 8.83799999999997,5.38999999999999 C8.798,5.38999999999999 8.75599999999997,5.40199999999999 8.74800000000005,5.44200000000001 C8.74699999999996,5.44999999999999 8.74199999999996,5.45600000000002 8.73599999999999,5.46100000000001 C8.73599999999999,5.46100000000001 8.73599999999999,5.46100000000001 8.73599999999999,5.46100000000001 C8.73099999999999,5.464 8.72400000000005,5.46499999999998 8.71799999999996,5.46300000000002 C8.70799999999997,5.45800000000003 8.69799999999998,5.459 8.69000000000005,5.464 C8.68100000000004,5.47000000000003 8.67700000000002,5.47899999999999 8.678,5.49200000000002 C8.68100000000004,5.52699999999999 8.77499999999998,5.56299999999999 8.69899999999996,5.59800000000001 C8.69899999999996,5.59800000000001 8.69899999999996,5.59899999999999 8.69899999999996,5.59899999999999 C8.69899999999996,5.59899999999999 8.66600000000005,5.618 8.66300000000001,5.61900000000003 C8.63099999999997,5.63499999999999 8.59000000000003,5.60000000000002 8.56299999999999,5.59800000000001 C8.55399999999997,5.59800000000001 8.54499999999996,5.60199999999998 8.53599999999994,5.601 C8.53599999999994,5.601 8.53599999999994,5.601 8.53599999999994,5.601 C8.52999999999997,5.601 8.52700000000004,5.59899999999999 8.52599999999995,5.59800000000001 C8.52499999999998,5.59800000000001 8.52499999999998,5.59800000000001 8.52499999999998,5.59800000000001 C8.52200000000005,5.596 8.49300000000005,5.56900000000002 8.48800000000006,5.56099999999998 C8.47699999999998,5.54199999999997 8.476,5.54000000000002 8.46900000000005,5.53300000000002 C8.46500000000003,5.52800000000002 8.45600000000002,5.52100000000002 8.44899999999996,5.517 C8.43399999999997,5.50599999999997 8.42499999999995,5.48899999999998 8.423,5.471 C8.423,5.471 8.423,5.471 8.423,5.471 C8.42200000000003,5.45699999999999 8.42100000000005,5.43700000000001 8.41800000000001,5.41500000000002 C8.41200000000003,5.36599999999999 8.38699999999994,5.32100000000003 8.34900000000005,5.29000000000002 C8.33900000000006,5.28199999999998 8.327,5.27800000000002 8.31399999999996,5.279 C8.30600000000004,5.279 8.298,5.27699999999999 8.29100000000005,5.27199999999999 C8.25900000000001,5.25099999999998 8.23699999999997,5.24599999999998 8.23699999999997,5.24599999999998 C8.23699999999997,5.24599999999998 8.23699999999997,5.24599999999998 8.23699999999997,5.24599999999998 C8.23699999999997,5.24599999999998 7.98400000000004,5.06099999999998 7.98400000000004,5.06099999999998 C7.96900000000005,5.05099999999999 7.952,5.04599999999999 7.93399999999997,5.04700000000003 C7.91899999999998,5.048 7.91099999999994,5.03399999999999 7.90300000000002,5.02100000000002 C7.88599999999997,4.99599999999998 7.85599999999999,4.98500000000001 7.827,4.99400000000003 C7.82600000000002,4.99400000000003 7.82500000000005,4.99400000000003 7.82399999999996,4.995 C7.80600000000004,5.00200000000001 7.798,5.02300000000002 7.80700000000002,5.041 C7.81299999999999,5.05000000000001 7.81799999999998,5.06 7.82500000000005,5.06900000000002 C7.82500000000005,5.06900000000002 7.97199999999998,5.28300000000002 7.97199999999998,5.28300000000002 C7.99599999999998,5.31799999999998 8.03700000000003,5.339 8.08000000000004,5.339 C8.09699999999998,5.339 8.11199999999997,5.35199999999998 8.11400000000003,5.36900000000003 C8.11500000000001,5.37799999999999 8.12,5.38600000000002 8.12800000000004,5.38999999999999 C8.19799999999998,5.43099999999998 8.28800000000001,5.43700000000001 8.33699999999999,5.51299999999998 C8.33799999999997,5.51400000000001 8.33799999999997,5.51400000000001 8.33799999999997,5.51600000000002 C8.33799999999997,5.51600000000002 8.33799999999997,5.51600000000002 8.33799999999997,5.51600000000002 C8.33799999999997,5.51600000000002 8.33799999999997,5.51600000000002 8.33799999999997,5.51600000000002 C8.33799999999997,5.52199999999999 8.33500000000004,5.54000000000002 8.33199999999999,5.54599999999999 C8.327,5.55500000000001 8.30799999999999,5.56 8.30200000000002,5.55500000000001 C8.298,5.55099999999999 8.29899999999998,5.54300000000001 8.29899999999998,5.53399999999999 C8.29899999999998,5.53100000000001 8.298,5.52800000000002 8.29700000000003,5.524 C8.28999999999996,5.50299999999999 8.27499999999998,5.49900000000002 8.255,5.49099999999999 C8.22799999999995,5.47899999999999 8.197,5.49099999999999 8.18399999999997,5.51799999999997 C8.18399999999997,5.51799999999997 8.18399999999997,5.51900000000001 8.18399999999997,5.51900000000001 C8.18299999999999,5.51999999999998 8.18299999999999,5.51999999999998 8.18299999999999,5.52100000000002 C8.17100000000005,5.55200000000002 8.19100000000003,5.56099999999998 8.20100000000002,5.56599999999997 C8.21699999999998,5.57400000000001 8.24199999999996,5.58600000000001 8.23599999999999,5.62099999999998 C8.23299999999995,5.63600000000002 8.21600000000001,5.63099999999997 8.20799999999997,5.637 C8.20799999999997,5.637 8.21299999999997,5.63200000000001 8.18399999999997,5.69099999999997 C8.17399999999998,5.71100000000001 8.18299999999999,5.71600000000001 8.15700000000004,5.72899999999999 C8.13499999999999,5.73899999999998 8.125,5.72500000000002 8.12199999999996,5.721 C8.11300000000006,5.70499999999998 8.12599999999998,5.69 8.12599999999998,5.67500000000001 C8.125,5.66800000000001 8.125,5.66199999999998 8.14599999999996,5.65300000000002 C8.17399999999998,5.64100000000002 8.14400000000001,5.59399999999999 8.12599999999998,5.56700000000001 C8.12599999999998,5.56599999999997 8.12599999999998,5.56599999999997 8.12599999999998,5.56599999999997 C8.09000000000003,5.50400000000002 8.11400000000003,5.55399999999997 8.07299999999998,5.51600000000002 C8.048,5.49200000000002 7.98199999999997,5.45299999999997 7.96900000000005,5.43700000000001 C7.88199999999995,5.32900000000001 7.73900000000003,5.27800000000002 7.66399999999999,5.15800000000002 C7.649,5.13400000000001 7.62699999999995,5.11399999999998 7.601,5.10199999999998 C7.58399999999995,5.09399999999999 7.56399999999996,5.089 7.54200000000003,5.08999999999998 C7.51999999999998,5.09100000000001 7.41700000000003,5.149 7.33500000000004,5.19600000000003 C7.25699999999995,5.24099999999999 7.20100000000002,5.13600000000002 7.12599999999998,5.166 C7.04399999999998,5.19900000000001 7.09199999999998,5.30500000000001 7.02300000000002,5.34500000000003 C6.94399999999996,5.38999999999999 6.85000000000002,5.40499999999997 6.78099999999995,5.46800000000002 C6.77800000000002,5.471 6.77599999999995,5.47500000000002 6.774,5.47899999999999 C6.75300000000004,5.52800000000002 6.71600000000001,5.54899999999998 6.71299999999997,5.56099999999998 C6.71100000000001,5.57100000000003 6.71000000000004,5.57600000000002 6.71400000000006,5.58999999999998 C6.72400000000005,5.61900000000003 6.71400000000006,5.65199999999999 6.69100000000003,5.67200000000003 C6.69100000000003,5.67200000000003 6.69100000000003,5.67200000000003 6.69100000000003,5.67200000000003 C6.67600000000004,5.685 6.68799999999999,5.72699999999998 6.67399999999998,5.73500000000001 C6.649,5.74799999999999 6.62099999999998,5.73399999999998 6.59500000000003,5.74099999999999 C6.55499999999995,5.75200000000001 6.553,5.803 6.51499999999999,5.815 C6.46400000000006,5.83100000000002 6.41499999999996,5.79899999999998 6.36500000000001,5.81 C6.25199999999995,5.83499999999998 6.25199999999995,5.83499999999998 6.24699999999996,5.84500000000003 C6.24300000000005,5.85399999999999 6.23400000000004,5.87 6.21799999999996,5.87 C6.15899999999999,5.868 6.18100000000004,5.79399999999998 6.15300000000002,5.76299999999998 C6.12300000000005,5.72800000000001 6.11500000000001,5.73200000000003 6.101,5.738 C6.08299999999997,5.745 6.05200000000002,5.75900000000001 6.04200000000003,5.75299999999999 C6.02999999999997,5.745 6.01999999999998,5.73399999999998 6.005,5.73000000000002 C5.995,5.72699999999998 5.98699999999997,5.72000000000003 5.98199999999997,5.70999999999998 C5.97299999999996,5.69400000000002 5.99400000000003,5.62700000000001 5.99900000000002,5.60700000000003 C6.00199999999995,5.596 6.00099999999998,5.58300000000003 5.99699999999996,5.572 C5.99199999999996,5.55900000000003 5.97900000000004,5.55000000000001 5.96500000000003,5.55000000000001 C5.96299999999997,5.55000000000001 5.96000000000004,5.54899999999998 5.95799999999997,5.54599999999999 C5.94200000000001,5.52800000000002 6.00900000000001,5.45999999999998 6.02800000000002,5.42500000000001 C6.03099999999995,5.41899999999998 6.03399999999999,5.41199999999998 6.03599999999994,5.40600000000001 C6.09400000000005,5.25799999999998 6.09400000000005,5.20800000000003 6.08199999999999,5.15800000000002 C6.077,5.13600000000002 6.09299999999996,5.11500000000001 6.11500000000001,5.11399999999998 C6.12800000000004,5.113 6.14099999999996,5.113 6.15099999999995,5.11200000000002 C6.15099999999995,5.11200000000002 6.15099999999995,5.11200000000002 6.15099999999995,5.11200000000002 C6.17499999999995,5.084 6.21500000000003,5.07600000000002 6.24800000000005,5.09300000000002 C6.29300000000001,5.11599999999999 6.38199999999995,5.14800000000002 6.53399999999999,5.15499999999997 C6.57100000000003,5.15699999999998 6.60799999999995,5.16500000000002 6.64300000000003,5.178 C6.67499999999995,5.19 6.702,5.16199999999998 6.71400000000006,5.14699999999999 C6.74300000000005,5.11000000000001 6.73800000000006,5.065 6.74400000000003,5.02300000000002 C6.74699999999996,5.00099999999998 6.75900000000001,4.98099999999999 6.77800000000002,4.96800000000002 C6.77800000000002,4.96800000000002 6.77800000000002,4.96800000000002 6.77800000000002,4.96800000000002 C6.78300000000002,4.96499999999998 6.78599999999994,4.959 6.78499999999997,4.95299999999997 C6.78300000000002,4.94499999999999 6.77700000000004,4.88099999999997 6.76900000000001,4.88 C6.76900000000001,4.88 6.76800000000003,4.88 6.76800000000003,4.88 C6.70500000000004,4.87299999999999 6.72500000000002,4.79300000000001 6.68399999999997,4.76600000000002 C6.649,4.74400000000003 6.64999999999998,4.72899999999999 6.56299999999999,4.72000000000003 C6.55100000000004,4.71800000000002 6.58000000000004,4.65800000000002 6.63099999999997,4.64100000000002 C6.63400000000001,4.64100000000002 6.63699999999994,4.64100000000002 6.63999999999999,4.642 C6.67100000000005,4.65800000000002 6.70600000000002,4.66500000000002 6.74000000000001,4.66399999999999 C6.75300000000004,4.66300000000001 6.76599999999996,4.65600000000001 6.77300000000002,4.64600000000002 C6.78099999999995,4.63499999999999 6.78300000000002,4.62099999999998 6.77999999999997,4.60899999999998 C6.77999999999997,4.608 6.77999999999997,4.608 6.77999999999997,4.608 C6.77599999999995,4.59500000000003 6.78800000000001,4.57499999999999 6.80200000000002,4.584 C6.83100000000002,4.60300000000001 6.846,4.61500000000001 6.89599999999996,4.608 C6.90899999999999,4.60599999999999 6.91899999999998,4.59699999999998 6.92200000000003,4.58499999999998 C6.923,4.57900000000001 6.92700000000002,4.57400000000001 6.93200000000002,4.57100000000003 C6.98900000000003,4.53899999999999 7.01300000000003,4.52499999999998 7.024,4.512 C7.05100000000004,4.48099999999999 7.08199999999999,4.45499999999998 7.11800000000005,4.435 C7.16999999999996,4.40600000000001 7.19500000000005,4.38799999999998 7.24300000000005,4.34300000000002 C7.26499999999999,4.32400000000001 7.28999999999996,4.31099999999998 7.31700000000001,4.30500000000001 C7.32600000000002,4.303 7.33100000000002,4.29500000000002 7.33000000000004,4.286 C7.33000000000004,4.28399999999999 7.33000000000004,4.28300000000002 7.33100000000002,4.28100000000001 C7.34000000000003,4.26900000000001 7.35400000000004,4.262 7.37,4.25999999999999 C7.40499999999997,4.25700000000001 7.42700000000002,4.25700000000001 7.44200000000001,4.25700000000001 C7.44200000000001,4.25700000000001 7.44200000000001,4.25599999999997 7.44200000000001,4.25599999999997 C7.452,4.24400000000003 7.46699999999998,4.238 7.48299999999995,4.238 C7.51999999999998,4.23899999999998 7.57000000000005,4.25599999999997 7.56200000000001,4.154 C7.54999999999995,4.06200000000001 7.58100000000002,3.96899999999999 7.64499999999998,3.90199999999999 C7.64499999999998,3.90199999999999 7.64499999999998,3.90199999999999 7.64499999999998,3.90100000000001 C7.67399999999998,3.91399999999999 7.66800000000001,3.94299999999998 7.673,3.97500000000002 C7.67600000000004,3.993 7.66999999999996,4.012 7.65700000000004,4.02600000000001 C7.65700000000004,4.02699999999999 7.65700000000004,4.02699999999999 7.65700000000004,4.02699999999999 C7.53399999999999,4.16300000000001 7.69100000000003,4.15899999999999 7.69600000000003,4.19400000000002 C7.69600000000003,4.19400000000002 7.69600000000003,4.19400000000002 7.69600000000003,4.19400000000002 C7.69600000000003,4.19999999999999 7.69899999999996,4.20600000000002 7.70399999999995,4.209 C7.71000000000004,4.21199999999999 7.71600000000001,4.21300000000002 7.721,4.20999999999998 C7.72699999999998,4.209 7.84799999999996,4.15800000000002 7.85299999999995,4.161 C7.87599999999998,4.17500000000001 7.85799999999995,4.18299999999999 7.87699999999995,4.19999999999999 C7.87699999999995,4.19999999999999 7.87699999999995,4.19999999999999 7.87699999999995,4.19999999999999 C7.90499999999997,4.22500000000002 7.94500000000005,4.23099999999999 7.97799999999995,4.21300000000002 C8.048,4.17599999999999 8.12800000000004,4.16399999999999 8.20600000000002,4.178 C8.24400000000003,4.185 8.33799999999997,4.09399999999999 8.32100000000003,4.04300000000001 C8.32100000000003,4.04199999999997 8.32100000000003,4.04199999999997 8.32100000000003,4.04199999999997 C8.30999999999995,4.01100000000002 8.30799999999999,3.97800000000001 8.31500000000005,3.94600000000003 C8.32000000000005,3.92599999999999 8.31200000000001,3.91500000000002 8.33500000000004,3.899 C8.346,3.892 8.36099999999999,3.89100000000002 8.37300000000005,3.89600000000002 C8.38999999999999,3.904 8.40899999999999,3.904 8.42499999999995,3.89699999999999 C8.44799999999998,3.887 8.46299999999997,3.86599999999999 8.46500000000003,3.84199999999998 C8.46500000000003,3.84199999999998 8.46500000000003,3.84100000000001 8.46500000000003,3.84100000000001 C8.46500000000003,3.83600000000001 8.46299999999997,3.83199999999999 8.45899999999995,3.82900000000001 C8.43799999999999,3.81599999999997 8.42600000000004,3.79199999999997 8.42899999999997,3.767 C8.43299999999999,3.73899999999998 8.45399999999995,3.71699999999998 8.48099999999999,3.71199999999999 C8.56100000000004,3.697 8.57600000000002,3.74200000000002 8.65200000000004,3.67500000000001 C8.65700000000004,3.67000000000002 8.65899999999999,3.66399999999999 8.65700000000004,3.65800000000002 C8.65599999999995,3.65199999999999 8.65099999999995,3.64800000000002 8.64499999999998,3.64600000000002 C8.64499999999998,3.64600000000002 8.64499999999998,3.64600000000002 8.64499999999998,3.64600000000002 C8.58199999999999,3.63299999999998 8.51599999999996,3.637 8.45500000000004,3.65800000000002 C8.45500000000004,3.65800000000002 8.38099999999997,3.68400000000003 8.38099999999997,3.68400000000003 C8.38099999999997,3.68400000000003 8.38099999999997,3.68400000000003 8.38099999999997,3.68400000000003 C8.38099999999997,3.68400000000003 8.38099999999997,3.68400000000003 8.38099999999997,3.68400000000003 C8.38099999999997,3.68400000000003 8.38,3.68400000000003 8.38,3.68400000000003 C8.36800000000005,3.69200000000001 8.35299999999995,3.69600000000003 8.33799999999997,3.69499999999999 C8.28700000000003,3.69099999999997 8.255,3.642 8.23500000000001,3.58800000000002 C8.21100000000001,3.52600000000001 8.21900000000005,3.45600000000002 8.25599999999997,3.39999999999998 C8.274,3.37200000000001 8.28300000000002,3.33699999999999 8.303,3.31099999999998 C8.31200000000001,3.30099999999999 8.31500000000005,3.28699999999998 8.31200000000001,3.274 C8.303,3.23700000000002 8.23900000000003,3.22000000000003 8.20299999999997,3.22800000000001 C8.13199999999995,3.24400000000003 8.17999999999995,3.32999999999998 8.15099999999995,3.37400000000002 C8.13499999999999,3.39999999999998 8.06600000000003,3.41800000000001 8.05999999999995,3.45400000000001 C8.04499999999996,3.54399999999998 8.03700000000003,3.59100000000001 8.04300000000001,3.62200000000001 C8.05600000000004,3.68900000000002 8.04899999999998,3.75799999999998 8.02300000000002,3.82100000000003 C8.02300000000002,3.822 8.02300000000002,3.822 8.02300000000002,3.82299999999998 C8.00199999999995,3.87599999999998 8.04399999999998,3.93299999999999 8.01599999999996,3.98599999999999 C7.98400000000004,4.048 7.90800000000002,3.99900000000002 7.88999999999999,4.07400000000001 C7.88300000000004,4.10599999999999 7.82100000000003,4.05900000000003 7.79999999999995,4.03800000000001 C7.79700000000003,3.976 7.774,3.94799999999998 7.75599999999997,3.899 C7.74199999999996,3.86000000000001 7.71000000000004,3.82999999999998 7.67100000000005,3.81799999999998 C7.56500000000005,3.78699999999998 7.54300000000001,3.88999999999999 7.45000000000005,3.86099999999999 C7.37400000000002,3.83800000000002 7.32100000000003,3.76999999999998 7.31700000000001,3.69099999999997 C7.31299999999999,3.61200000000002 7.35900000000004,3.54000000000002 7.43200000000002,3.50900000000001 C7.43200000000002,3.50900000000001 7.43200000000002,3.50900000000001 7.43200000000002,3.50900000000001 C7.67899999999997,3.40499999999997 7.726,3.31700000000001 7.74199999999996,3.25900000000001 C7.74599999999998,3.245 7.75599999999997,3.23500000000001 7.76900000000001,3.23099999999999 C7.76999999999998,3.23099999999999 7.76999999999998,3.23099999999999 7.76999999999998,3.23099999999999 C7.76999999999998,3.23099999999999 7.76999999999998,3.23099999999999 7.76999999999998,3.23099999999999 C7.77300000000002,3.21699999999998 7.779,3.20499999999998 7.78899999999999,3.19600000000003 C7.81500000000005,3.17200000000003 7.83199999999999,3.14100000000002 7.85500000000002,3.11500000000001 C7.88,3.08600000000001 7.90499999999997,3.04199999999997 7.90499999999997,3.04199999999997 C7.90499999999997,3.04199999999997 7.90499999999997,3.04199999999997 7.90599999999995,3.04199999999997 C7.90599999999995,3.04199999999997 8.03399999999999,2.91699999999997 8.16899999999998,2.87400000000002 C8.23199999999997,2.85399999999999 8.27800000000002,2.85500000000002 8.29300000000001,2.858 C8.30899999999997,2.86099999999999 8.33199999999999,2.86599999999999 8.36800000000005,2.87299999999999 C8.36800000000005,2.87299999999999 8.36800000000005,2.87299999999999 8.36800000000005,2.87299999999999 C8.36599999999999,2.88499999999999 8.36900000000003,2.89699999999999 8.37699999999995,2.90699999999998 C8.39400000000001,2.93000000000001 8.45000000000005,2.92399999999998 8.51800000000003,2.95600000000002 C8.59699999999998,2.99200000000002 8.69100000000003,2.98099999999999 8.77599999999995,2.99900000000002 C8.80999999999995,3.00599999999997 8.83399999999995,3.03899999999999 8.83000000000004,3.07400000000001 C8.82600000000002,3.10899999999998 8.79499999999996,3.13499999999999 8.75999999999999,3.13400000000001 C8.73599999999999,3.13299999999998 8.71299999999997,3.14800000000002 8.70500000000004,3.17099999999999 C8.697,3.19400000000002 8.70399999999995,3.22000000000003 8.72299999999996,3.23500000000001 C8.75400000000002,3.25900000000001 8.78800000000001,3.27800000000002 8.82399999999996,3.291 C8.86699999999996,3.30599999999998 8.93600000000004,3.31700000000001 8.90599999999995,3.28300000000002 C8.90599999999995,3.28300000000002 8.90599999999995,3.28300000000002 8.90599999999995,3.28300000000002 C8.89499999999998,3.27199999999999 8.88,3.26499999999999 8.86400000000003,3.26499999999999 C8.80499999999995,3.26400000000001 8.82399999999996,3.21100000000001 8.85599999999999,3.22500000000002 C8.89099999999996,3.24099999999999 8.98800000000006,3.25099999999998 8.91999999999996,3.18599999999998 C8.91200000000003,3.178 8.91099999999994,3.16500000000002 8.91800000000001,3.15600000000001 C8.92999999999995,3.14100000000002 8.93899999999996,3.12599999999998 8.94500000000005,3.10899999999998 C8.95899999999995,3.07299999999998 8.95699999999999,3.084 9.00300000000004,3.09800000000001 C9.01099999999997,3.101 9.01900000000001,3.09899999999999 9.02499999999998,3.09500000000003 C9.03800000000001,3.08600000000001 9.05499999999995,3.07900000000001 9.04300000000001,3.06900000000002 C9.03200000000004,3.06099999999998 9.05399999999997,3.04199999999997 9.06200000000001,3.04500000000002 C9.07500000000005,3.04899999999998 9.09000000000003,3.04500000000002 9.09900000000005,3.03399999999999 C9.10599999999999,3.02600000000001 9.10799999999995,3.01400000000001 9.10500000000002,3.00400000000002 C9.09699999999998,2.97800000000001 9.11900000000003,2.90600000000001 9.15599999999995,2.892 C9.16499999999996,2.88900000000001 9.17499999999995,2.88900000000001 9.18499999999995,2.89100000000002 C9.18499999999995,2.89100000000002 9.18499999999995,2.89100000000002 9.18499999999995,2.89100000000002 C9.19299999999998,2.88400000000001 9.202,2.87900000000002 9.21199999999999,2.875 C9.22900000000004,2.86900000000003 9.25699999999995,2.85599999999999 9.27800000000002,2.839 C9.298,2.82100000000003 9.327,2.81400000000002 9.35299999999995,2.81999999999999 C9.35299999999995,2.82100000000003 9.35400000000004,2.81999999999999 9.35400000000004,2.81999999999999 C9.36199999999997,2.81099999999998 9.36199999999997,2.79700000000003 9.35299999999995,2.78800000000001 C9.33699999999999,2.77199999999999 9.28300000000002,2.745 9.29100000000005,2.72399999999999 C9.29399999999998,2.71699999999998 9.327,2.709 9.33199999999999,2.68000000000001 C9.33500000000004,2.661 9.32399999999996,2.642 9.30600000000004,2.63400000000001 C8.74800000000005,2.41500000000002 8.14700000000005,2.28100000000001 7.51999999999998,2.24700000000001 C7.404,2.31799999999998 7.28899999999999,2.39800000000002 7.18499999999995,2.48399999999998 C6.80499999999995,2.79899999999998 6.20500000000004,2.92899999999997 6.21799999999996,2.89400000000001 C6.16099999999994,2.89499999999998 6.14599999999996,2.87900000000002 6.14599999999996,2.87900000000002 C6.12699999999995,2.88400000000001 6.11000000000001,2.89499999999998 6.09500000000003,2.88400000000001 C6.09500000000003,2.88400000000001 6.09500000000003,2.88400000000001 6.09400000000005,2.88299999999998 C6.09500000000003,2.87599999999998 6.09199999999998,2.86900000000003 6.08600000000001,2.86500000000001 C6.06500000000005,2.851 6.02599999999995,2.88299999999998 5.93100000000004,2.93099999999998 C5.93100000000004,2.93099999999998 5.92999999999995,2.93099999999998 5.92999999999995,2.93200000000002 C5.928,2.93299999999999 5.92700000000002,2.93400000000003 5.92499999999995,2.93400000000003 C5.88499999999999,2.95600000000002 5.84000000000003,2.96100000000001 5.80899999999997,2.96100000000001 C5.78700000000003,2.96100000000001 5.76599999999996,2.96600000000001 5.74599999999998,2.97399999999999 C5.74300000000005,2.97500000000002 5.73900000000003,2.97399999999999 5.73699999999997,2.971 C5.73000000000002,2.95999999999998 5.76499999999999,2.947 5.77800000000002,2.94200000000001 C5.78899999999999,2.93799999999999 5.78399999999999,2.92500000000001 5.73599999999999,2.95299999999997 C5.726,2.95800000000003 5.71400000000006,2.95999999999998 5.702,2.95699999999999 C5.654,2.94499999999999 5.59699999999998,2.983 5.55999999999995,3.01400000000001 C5.55399999999997,3.01900000000001 5.54600000000005,3.02199999999999 5.53700000000003,3.01799999999997 C5.524,3.01299999999998 5.51199999999994,3.01499999999999 5.51599999999996,3.03500000000003 C5.52099999999996,3.05700000000002 5.39499999999998,3.113 5.39300000000003,3.10300000000001 C5.38999999999999,3.096 5.38300000000004,3.09199999999998 5.37599999999998,3.09399999999999 C5.35900000000004,3.09699999999998 5.34000000000003,3.11099999999999 5.32899999999995,3.13099999999997 C5.30899999999997,3.16899999999998 5.25400000000002,3.17599999999999 5.22699999999998,3.19799999999998 C5.20000000000005,3.221 5.15899999999999,3.24400000000003 5.15899999999999,3.24400000000003 C5.14400000000001,3.26100000000002 5.13400000000001,3.27100000000002 5.11800000000005,3.27100000000002 C5.10199999999998,3.27199999999999 5.09299999999996,3.245 5.10000000000002,3.23399999999998 C5.10400000000004,3.22800000000001 5.13400000000001,3.19799999999998 5.12699999999995,3.197 C5.12400000000002,3.19600000000003 5.12099999999998,3.19400000000002 5.12,3.19099999999997 C5.11500000000001,3.18200000000002 5.13800000000003,3.17099999999999 5.13199999999995,3.15899999999999 C5.12800000000004,3.15100000000001 5.08299999999997,3.14800000000002 5.07899999999995,3.14400000000001 C5.077,3.14100000000002 5.07600000000002,3.137 5.07799999999997,3.13299999999998 C5.10599999999999,3.07600000000002 5.11000000000001,3.072 5.14800000000002,3.03399999999999 C5.14800000000002,3.03399999999999 5.14800000000002,3.03399999999999 5.14800000000002,3.03399999999999 C5.14400000000001,3.02800000000002 5.14400000000001,3.01999999999998 5.14800000000002,3.01400000000001 C5.16899999999998,2.983 5.24000000000001,2.88900000000001 5.32299999999998,2.87799999999999 C5.34500000000003,2.875 5.33100000000002,2.87 5.33100000000002,2.87 C5.30999999999995,2.86200000000002 5.28399999999999,2.85599999999999 5.29899999999998,2.83999999999998 C5.32799999999997,2.80799999999999 5.37300000000005,2.76499999999999 5.42399999999998,2.74000000000001 C5.44799999999998,2.72800000000001 5.471,2.714 5.49099999999999,2.69600000000003 C5.51199999999994,2.67899999999997 5.58100000000002,2.649 5.65599999999995,2.64600000000002 C5.65599999999995,2.64600000000002 5.65599999999995,2.64600000000002 5.65700000000004,2.64600000000002 C5.71900000000005,2.642 5.88400000000001,2.529 5.88599999999997,2.52800000000002 C5.88599999999997,2.52800000000002 5.88599999999997,2.52800000000002 5.88599999999997,2.52800000000002 C5.88,2.52300000000002 5.88800000000003,2.50599999999997 5.88699999999994,2.49700000000001 C5.88599999999997,2.49400000000003 5.88800000000003,2.49000000000001 5.89099999999996,2.488 C5.90700000000004,2.48000000000002 5.92600000000004,2.47699999999998 5.94299999999998,2.46899999999999 C5.94500000000005,2.46800000000002 5.94600000000003,2.46600000000001 5.947,2.464 C5.94799999999998,2.45800000000003 5.94100000000003,2.45299999999997 5.93499999999995,2.45600000000002 C5.89999999999998,2.46800000000002 5.88599999999997,2.47399999999999 5.87800000000004,2.476 C5.87400000000002,2.47699999999998 5.86900000000003,2.47500000000002 5.86699999999996,2.47199999999998 C5.86500000000001,2.46699999999998 5.86599999999999,2.46300000000002 5.86900000000003,2.459 C5.90800000000002,2.42599999999999 5.96100000000001,2.42500000000001 6.00800000000004,2.40899999999999 C6.02800000000002,2.40199999999999 6.02800000000002,2.35899999999998 5.98599999999999,2.36599999999999 C5.77700000000004,2.39999999999998 5.58799999999997,2.46199999999999 5.38999999999999,2.52800000000002 C5.38999999999999,2.52800000000002 5.38999999999999,2.52800000000002 5.38999999999999,2.52800000000002 C5.39099999999996,2.53399999999999 5.35000000000002,2.55399999999997 5.34500000000003,2.55900000000003 C5.34199999999998,2.56099999999998 5.34100000000001,2.565 5.34199999999998,2.56900000000002 C5.34199999999998,2.56900000000002 5.34199999999998,2.56900000000002 5.34199999999998,2.56900000000002 C5.34500000000003,2.56999999999999 5.346,2.57299999999998 5.34400000000005,2.57400000000001 C5.33600000000001,2.57999999999998 5.32100000000003,2.57400000000001 5.31600000000003,2.58300000000003 C5.31100000000004,2.59300000000002 5.33000000000004,2.589 5.33399999999995,2.596 C5.33600000000001,2.601 5.33500000000004,2.60700000000003 5.33100000000002,2.61200000000002 C5.33100000000002,2.61200000000002 5.33100000000002,2.61200000000002 5.33100000000002,2.61200000000002 C5.32500000000005,2.618 5.29399999999998,2.63200000000001 5.28899999999999,2.62599999999998 C5.28499999999997,2.62099999999998 5.28399999999999,2.61599999999999 5.27800000000002,2.62 C5.25599999999997,2.63400000000001 5.24199999999996,2.64299999999997 5.22900000000004,2.64499999999998 C5.18499999999995,2.65300000000002 5.12800000000004,2.67700000000002 5.12800000000004,2.67700000000002 C5.13499999999999,2.67099999999999 5.15599999999995,2.65100000000001 5.15999999999997,2.64299999999997 C5.17200000000003,2.618 5.18499999999995,2.61099999999999 5.20000000000005,2.60700000000003 C5.21000000000004,2.60399999999999 5.21199999999999,2.589 5.16399999999999,2.60700000000003 C5.12099999999998,2.62400000000002 5.08100000000002,2.649 5.048,2.68000000000001 C5.01900000000001,2.70699999999999 4.98599999999999,2.73500000000001 4.96199999999999,2.74799999999999 C4.96699999999998,2.74000000000001 4.96400000000006,2.738 4.96000000000004,2.74000000000001 C4.95799999999997,2.74099999999999 4.93499999999995,2.762 4.92600000000004,2.75900000000001 C4.89700000000005,2.75200000000001 4.93499999999995,2.73500000000001 4.93499999999995,2.70699999999999 C4.93700000000001,2.702 4.94100000000003,2.69900000000001 4.94500000000005,2.69499999999999 C4.94500000000005,2.69499999999999 4.94500000000005,2.69499999999999 4.94500000000005,2.69499999999999 C4.91300000000001,2.709 4.88300000000004,2.73000000000002 4.85900000000004,2.75599999999997 C4.84000000000003,2.77699999999999 4.82399999999996,2.80200000000002 4.80399999999997,2.78199999999998 C4.79399999999998,2.77199999999999 4.779,2.76900000000001 4.76599999999996,2.77499999999998 C4.68700000000001,2.81200000000001 4.60799999999995,2.851 4.53099999999995,2.892 C4.52200000000005,2.89600000000002 4.51499999999999,2.90100000000001 4.50800000000004,2.90699999999998 C4.50199999999995,2.91199999999998 4.49900000000002,2.91800000000001 4.49800000000005,2.92500000000001 C4.49699999999996,2.93299999999999 4.48299999999995,2.95100000000002 4.47699999999998,2.95999999999998 C4.47500000000002,2.964 4.47500000000002,2.96899999999999 4.47699999999998,2.97300000000001 C4.48500000000001,2.98399999999998 4.50800000000004,2.976 4.52099999999996,2.97199999999998 C4.53800000000001,2.96600000000001 4.55799999999999,2.97300000000001 4.56700000000001,2.98899999999998 C4.577,3.005 4.57399999999996,3.02499999999998 4.56200000000001,3.03800000000001 C4.55100000000004,3.04899999999998 4.54100000000005,3.06099999999998 4.53200000000004,3.07299999999998 C4.51300000000003,3.09800000000001 4.495,3.125 4.46799999999996,3.142 C4.45100000000002,3.15199999999999 4.43499999999995,3.16399999999999 4.41999999999996,3.17700000000002 C4.27099999999996,3.31099999999998 4.26599999999996,3.55500000000001 4.15599999999995,3.60399999999999 C4.15599999999995,3.60399999999999 4.15599999999995,3.60399999999999 4.15599999999995,3.60399999999999 C4.07100000000003,3.642 4.04200000000003,3.60899999999998 3.94100000000003,3.64699999999999 C3.92100000000005,3.654 3.90300000000002,3.649 3.88499999999999,3.64400000000001 C3.86900000000003,3.63999999999999 3.85599999999999,3.62900000000002 3.85000000000002,3.613 C3.85000000000002,3.613 3.85000000000002,3.613 3.85000000000002,3.613 C3.82799999999997,3.55700000000002 3.76400000000001,3.52999999999997 3.70799999999997,3.55200000000002 C3.69899999999996,3.55500000000001 3.68899999999996,3.55700000000002 3.678,3.55399999999997 C3.678,3.55399999999997 3.67700000000002,3.55399999999997 3.67700000000002,3.55399999999997 C3.67700000000002,3.55399999999997 3.67700000000002,3.55399999999997 3.67700000000002,3.55399999999997 C3.65899999999999,3.55900000000003 3.53999999999996,3.59699999999998 3.54899999999998,3.613 C3.54899999999998,3.613 3.75699999999995,3.55000000000001 3.71000000000004,3.66199999999998 C3.71000000000004,3.66199999999998 3.71000000000004,3.66199999999998 3.71000000000004,3.66199999999998 C3.702,3.66500000000002 3.69600000000003,3.67000000000002 3.69200000000001,3.67700000000002 C3.68700000000001,3.68799999999999 3.68100000000004,3.69400000000002 3.66399999999999,3.69799999999998 C3.64400000000001,3.70299999999997 3.62300000000005,3.697 3.60799999999995,3.68299999999999 C3.60799999999995,3.68299999999999 3.60799999999995,3.68299999999999 3.60699999999997,3.68299999999999 C3.59699999999998,3.685 3.59199999999998,3.71100000000001 3.596,3.71800000000002 C3.60199999999998,3.72800000000001 3.62900000000002,3.72699999999998 3.601,3.745 C3.58399999999995,3.755 3.56200000000001,3.76100000000002 3.55399999999997,3.779 C3.54499999999996,3.80099999999999 3.53399999999999,3.82100000000003 3.52099999999996,3.83999999999998 C3.50800000000004,3.86099999999999 3.53700000000003,3.86700000000002 3.51400000000001,3.88600000000002 C3.48699999999997,3.90800000000002 3.39200000000005,3.887 3.35900000000004,3.89299999999997 C3.35900000000004,3.89299999999997 3.30200000000002,3.89800000000002 3.26800000000003,3.91000000000003 C3.23400000000004,3.92200000000003 3.17200000000003,3.93799999999999 3.13800000000003,3.97899999999999 C3.08000000000004,4.05000000000001 3.08500000000004,4.06400000000002 3.01599999999996,4.04500000000002 C3.01199999999994,4.04399999999998 3.00800000000004,4.04500000000002 3.00599999999997,4.048 C2.30799999999999,4.78800000000001 1.80499999999995,5.71199999999999 1.57600000000002,6.74000000000001 C1.57500000000005,6.74099999999999 1.57500000000005,6.74200000000002 1.57500000000005,6.74200000000002 C1.55999999999995,6.80799999999999 1.54300000000001,6.88799999999998 1.51700000000005,7.03800000000001 C1.51700000000005,7.04199999999997 1.51700000000005,7.04500000000002 1.51800000000003,7.04899999999998 C1.52099999999996,7.06599999999997 1.524,7.06999999999999 1.54600000000005,7.06999999999999 C1.596,7.06999999999999 1.63999999999999,7.10599999999999 1.649,7.15600000000001 C1.65200000000004,7.17000000000002 1.65999999999997,7.18000000000001 1.67200000000003,7.185 C1.68299999999999,7.18900000000002 1.69600000000003,7.18799999999999 1.70799999999997,7.18000000000001 C1.71500000000003,7.17399999999998 1.75900000000001,7.21199999999999 1.76099999999997,7.25799999999998 C1.76300000000003,7.28300000000002 1.77300000000002,7.31099999999998 1.77700000000004,7.33600000000001 C1.78300000000002,7.36599999999999 1.77499999999998,7.39600000000002 1.75599999999997,7.42000000000002 C1.75300000000004,7.423 1.75199999999995,7.428 1.75300000000004,7.43299999999999 C1.77800000000002,7.52699999999999 1.88699999999994,7.93099999999998 1.90999999999997,7.952 C1.923,7.94900000000001 1.93399999999997,7.95299999999997 1.94100000000003,7.96100000000001 C2.16300000000001,8.21199999999999 2.41300000000001,8.62 2.40599999999995,8.74799999999999 C2.35599999999999,8.84100000000001 2.36099999999999,8.83600000000001 2.40300000000002,8.887 C2.48000000000002,8.98200000000003 2.47900000000004,8.98700000000002 2.44899999999996,9.084 C2.44899999999996,9.084 2.44899999999996,9.084 2.44899999999996,9.084 C2.46600000000001,9.05599999999998 2.49699999999996,9.03899999999999 2.529,9.03899999999999 C2.56200000000001,9.04000000000002 2.59199999999998,9.05599999999998 2.60900000000004,9.084 C2.62199999999996,9.10500000000002 2.63499999999999,9.125 2.65200000000004,9.14100000000002 C2.69799999999998,9.18200000000002 2.721,9.24200000000002 2.71600000000001,9.303 C2.71600000000001,9.303 2.78599999999994,9.30399999999997 2.88300000000004,9.37700000000001 C3.00699999999995,9.47000000000003 3.44200000000001,9.96800000000002 3.45899999999995,10.105 C3.46699999999998,10.166 3.44200000000001,10.225 3.41099999999994,10.278 C3.375,10.339 3.25900000000001,10.465 3.23900000000003,10.533 C3.22900000000004,10.567 3.17499999999995,10.583 3.17499999999995,10.603 C3.17600000000004,10.63 3.18399999999997,10.688 3.22400000000005,10.802 C3.23599999999999,10.835 3.26300000000003,11.084 3.25,11.185 C3.24199999999996,11.243 3.24199999999996,11.254 3.25599999999997,11.319 C3.26099999999997,11.339 3.21000000000004,11.397 3.17499999999995,11.372 C3.13199999999995,11.34 3.09500000000003,11.345 3.09100000000001,11.354 C3.09000000000003,11.354 3.09000000000003,11.354 3.09000000000003,11.354 C3.02999999999997,11.453 2.81299999999999,11.471 2.86099999999999,11.577 C2.875,11.608 2.88999999999999,11.639 2.90200000000004,11.671 C2.91700000000003,11.708 2.92499999999995,11.748 2.92600000000004,11.788 C2.92700000000002,11.805 2.98699999999997,11.932 3.03499999999997,11.982 C4.08399999999995,13.08 5.56200000000001,13.763 7.20000000000005,13.763 C10.383,13.763 12.963,11.183 12.963,8 ZM6.34799999999996,4.327 C6.37199999999996,4.31700000000001 6.39400000000001,4.303 6.41999999999996,4.29599999999999 C6.41999999999996,4.29599999999999 6.41999999999996,4.29500000000002 6.41999999999996,4.29500000000002 C6.45500000000004,4.286 6.48599999999999,4.29500000000002 6.49599999999998,4.28199999999998 C6.50699999999995,4.26900000000001 6.524,4.245 6.53300000000002,4.226 C6.53700000000003,4.21699999999998 6.52700000000004,4.20299999999997 6.53899999999999,4.197 C6.553,4.18900000000002 6.54100000000005,4.17399999999998 6.54399999999998,4.16300000000001 C6.55399999999997,4.13400000000001 6.56100000000004,4.13400000000001 6.572,4.13200000000001 C6.58299999999997,4.13 6.59299999999996,4.12900000000002 6.59699999999998,4.12299999999999 C6.61500000000001,4.096 6.55100000000004,4.01900000000001 6.51099999999997,4.02999999999997 C6.47000000000003,4.04000000000002 6.43600000000004,4.101 6.42200000000003,4.10000000000002 C6.40499999999997,4.09899999999999 6.39700000000005,4.09899999999999 6.38499999999999,4.108 C6.37599999999998,4.11500000000001 6.375,4.12700000000001 6.36800000000005,4.13499999999999 C6.36000000000001,4.14499999999998 6.35000000000002,4.15300000000002 6.34100000000001,4.16300000000001 C6.33500000000004,4.17200000000003 6.33199999999999,4.17899999999997 6.34199999999998,4.18799999999999 C6.34900000000005,4.19400000000002 6.35299999999995,4.197 6.33199999999999,4.22399999999999 C6.31500000000005,4.24599999999998 6.28700000000003,4.25799999999998 6.27499999999998,4.28500000000003 C6.27099999999996,4.29399999999998 6.27099999999996,4.31400000000002 6.27300000000002,4.322 C6.27800000000002,4.35000000000002 6.322,4.339 6.34799999999996,4.327 Z "/>
</svg>
