<?xml version="1.0" encoding="utf-8"?>
<!-- Generator: Adobe Illustrator 18.0.0, SVG Export Plug-In . SVG Version: 6.00 Build 0)  -->
<!DOCTYPE svg PUBLIC "-//W3C//DTD SVG 1.1//EN" "http://www.w3.org/Graphics/SVG/1.1/DTD/svg11.dtd">
<svg version="1.1" id="Слой_1" xmlns="http://www.w3.org/2000/svg" xmlns:xlink="http://www.w3.org/1999/xlink" x="0px" y="0px"
	 viewBox="0 0 128.7 23.2" enable-background="new 0 0 128.7 23.2" xml:space="preserve">
<g id="Layer_3">
	<rect x="0" y="0" fill="#2D7FC9" width="48.5" height="23.2"/>
</g>
<g id="Layer_3_copy">
	<rect x="51.9" y="0" fill="#D93472" width="76.8" height="23.2"/>
</g>
<g>
	<path fill="#FFFFFF" d="M13.4,12.6c0,1.5,0,2.5-0.1,3.1c-0.1,0.6-0.3,1.2-0.7,1.7c-0.4,0.5-0.9,0.9-1.5,1.2C10.5,18.8,9.8,19,9,19
		c-0.8,0-1.5-0.1-2.1-0.4c-0.6-0.3-1.1-0.6-1.5-1.2c-0.4-0.5-0.6-1.1-0.7-1.7c-0.1-0.6-0.1-1.7-0.1-3.2v-2.5c0-1.5,0-2.5,0.1-3.1
		C4.7,6.4,5,5.8,5.3,5.3c0.4-0.5,0.9-0.9,1.5-1.2C7.4,3.9,8.1,3.7,9,3.7c0.8,0,1.5,0.1,2.1,0.4s1.1,0.6,1.5,1.2
		c0.4,0.5,0.6,1.1,0.7,1.7c0.1,0.6,0.1,1.7,0.1,3.2V12.6z M9.6,7.8c0-0.7,0-1.1-0.1-1.3C9.4,6.3,9.2,6.2,9,6.2
		c-0.2,0-0.4,0.1-0.5,0.2C8.4,6.6,8.4,7,8.4,7.8v6.8c0,0.9,0,1.4,0.1,1.6c0.1,0.2,0.2,0.3,0.5,0.3c0.3,0,0.4-0.1,0.5-0.3
		c0.1-0.2,0.1-0.8,0.1-1.6C9.6,14.5,9.6,7.8,9.6,7.8z"/>
	<path fill="#FFFFFF" d="M18.4,6.7l-0.1,1.1c0.3-0.4,0.7-0.8,1.1-1c0.4-0.2,0.8-0.3,1.3-0.3c0.6,0,1.1,0.2,1.5,0.5
		c0.4,0.3,0.7,0.7,0.8,1.1s0.2,1.1,0.2,2V15c0,1.1-0.1,1.9-0.2,2.3c-0.1,0.5-0.4,0.8-0.8,1.1c-0.4,0.3-0.9,0.4-1.5,0.4
		c-0.4,0-0.9-0.1-1.3-0.3c-0.4-0.2-0.7-0.5-1.1-0.9v2.8h-3.7V6.7H18.4z M19.4,10.2c0-0.7,0-1.2-0.1-1.3c-0.1-0.2-0.2-0.2-0.4-0.2
		c-0.2,0-0.4,0.1-0.5,0.3c-0.1,0.2-0.1,0.6-0.1,1.3v5c0,0.7,0,1.2,0.1,1.4c0.1,0.2,0.2,0.3,0.5,0.3c0.2,0,0.4-0.1,0.4-0.2
		c0.1-0.2,0.1-0.6,0.1-1.2L19.4,10.2L19.4,10.2z"/>
	<path fill="#FFFFFF" d="M32.6,12.9h-4.7v2.6c0,0.5,0,0.9,0.1,1c0.1,0.2,0.2,0.2,0.4,0.2c0.3,0,0.5-0.1,0.6-0.3
		c0.1-0.2,0.1-0.6,0.1-1.2v-1.6h3.5v0.9c0,0.7,0,1.3-0.1,1.7c-0.1,0.4-0.3,0.8-0.7,1.3c-0.3,0.4-0.8,0.8-1.3,1
		c-0.5,0.2-1.2,0.3-2,0.3c-0.8,0-1.5-0.1-2-0.3c-0.6-0.2-1-0.5-1.4-0.9c-0.3-0.4-0.6-0.8-0.7-1.3c-0.1-0.5-0.2-1.2-0.2-2v-3.5
		c0-1,0.1-1.9,0.4-2.5c0.3-0.6,0.7-1.1,1.4-1.4c0.6-0.3,1.4-0.5,2.2-0.5c1,0,1.9,0.2,2.5,0.6c0.7,0.4,1.1,0.9,1.4,1.5
		c0.3,0.6,0.4,1.5,0.4,2.7L32.6,12.9L32.6,12.9z M27.6,3.5v2.4h-2.4V3.5H27.6z M28.9,10.9v-0.9c0-0.6,0-1-0.1-1.2
		c-0.1-0.2-0.2-0.3-0.4-0.3c-0.3,0-0.4,0.1-0.5,0.2c-0.1,0.2-0.1,0.6-0.1,1.2v0.9H28.9z M31.5,3.5v2.4h-2.4V3.5H31.5z"/>
	<path fill="#FFFFFF" d="M39.3,18.7V9.2H38v6.1c0,1.1-0.1,1.9-0.4,2.4c-0.3,0.5-0.7,0.8-1.2,0.9c-0.5,0.1-1.4,0.2-2.7,0.2h-0.6v-2
		c0.5,0,0.8-0.1,1-0.2c0.2-0.1,0.3-0.5,0.3-1.2V6.7h8.6v12H39.3z"/>
</g>
<g>
	<path fill="#E5CC00" d="M62.1,11.2h3.3v0.3c-0.5,0-0.8,0.1-1,0.3c-0.2,0.2-0.6,0.7-1,1.5c-0.5,0.8-1,1.6-1.6,2.4
		c0.5,0.6,0.9,0.9,1.3,1.2c0.4,0.2,0.7,0.3,1.1,0.3c0.4,0,0.7-0.1,0.9-0.3c0.3-0.2,0.4-0.5,0.5-0.9l0.3,0.2
		c-0.2,0.7-0.5,1.3-0.9,1.7c-0.4,0.4-0.9,0.5-1.5,0.5c-0.4,0-0.9-0.1-1.3-0.4c-0.4-0.2-0.9-0.6-1.5-1.2c-0.7,0.6-1.3,1-1.8,1.2
		c-0.5,0.2-1.1,0.3-1.7,0.3c-0.9,0-1.6-0.2-2.1-0.7c-0.5-0.5-0.8-1-0.8-1.7c0-0.6,0.2-1.3,0.7-1.9c0.5-0.6,1.3-1.3,2.6-2
		c-0.2-0.6-0.4-1-0.5-1.4c-0.1-0.4-0.1-0.7-0.1-1c0-0.9,0.3-1.6,1-2.1c0.5-0.4,1.1-0.6,1.8-0.6c0.6,0,1.1,0.2,1.5,0.6
		C61.7,8,61.9,8.5,61.9,9c0,0.6-0.2,1.1-0.6,1.5c-0.4,0.4-1.1,0.9-2,1.4c0.7,1.2,1.4,2.3,2.1,3.3c0.9-1.1,1.4-2,1.4-2.8
		c0-0.2-0.1-0.5-0.2-0.7c-0.1-0.1-0.3-0.2-0.5-0.3L62.1,11.2L62.1,11.2z M60.3,16.3c-0.7-1-1.2-1.7-1.5-2.1c-0.3-0.4-0.6-1-0.9-1.6
		c-0.6,0.4-1.1,0.8-1.4,1.2c-0.3,0.4-0.5,0.9-0.5,1.4c0,0.6,0.2,1.1,0.6,1.5c0.4,0.4,0.9,0.6,1.5,0.6c0.3,0,0.7-0.1,1-0.2
		C59.3,17,59.7,16.8,60.3,16.3z M59,11.4c0.7-0.3,1.2-0.7,1.5-1.1C60.8,9.9,61,9.5,61,9c0-0.4-0.1-0.7-0.4-0.9
		c-0.2-0.2-0.5-0.4-0.9-0.4c-0.5,0-0.8,0.2-1,0.5c-0.2,0.3-0.4,0.6-0.4,0.9c0,0.3,0,0.6,0.1,0.9C58.6,10.3,58.8,10.7,59,11.4z"/>
</g>
<g id="Layer_2">
	<g>
		<path fill="#FFFFFF" d="M72.3,5l-0.5,2.5l-0.5,2.7c-0.2,0.9-0.3,1.9-0.5,2.9l-0.4,2.4c-0.1,0.5-0.1,0.8-0.1,0.9c0,0.1,0,0.2,0,0.2
			c0,0.2,0,0.3,0.1,0.3c0.1,0.1,0.2,0.1,0.4,0.2c0.2,0,0.5,0.1,1,0.1l0.1,0.1l-0.1,0.4l-0.1,0.1c-1.1-0.1-1.8-0.1-2.3-0.1
			c-0.6,0-1.3,0-2.2,0.1L67,17.8l0-0.4l0.1-0.1c0.5,0,0.8-0.1,0.9-0.1c0.1,0,0.1,0,0.2-0.1c0,0,0.1-0.1,0.1-0.1c0,0,0.1-0.1,0.1-0.2
			c0.1-0.3,0.2-0.7,0.3-1.3l0.5-2.8l0.5-3l0.5-3c0.1-0.9,0.2-1.4,0.2-1.6c0-0.1,0-0.2-0.1-0.3c-0.1-0.1-0.2-0.1-0.5-0.1
			c-0.3,0-0.5-0.1-0.7-0.1l-0.1-0.1l0.1-0.4l0.1-0.1c0.6,0.1,1.3,0.1,2.1,0.1c0.6,0,1.2,0,1.9,0c0.8,0,1.4,0,1.6,0
			c0.8,0,1.5,0.1,2,0.3c0.5,0.2,0.9,0.6,1.2,1c0.3,0.5,0.4,1,0.4,1.6c0,0.4-0.1,0.8-0.2,1.3c-0.1,0.5-0.3,0.9-0.6,1.3
			c-0.2,0.4-0.6,0.8-1,1.2c-0.4,0.4-0.9,0.7-1.4,0.9c-0.5,0.2-1,0.3-1.5,0.3c-0.7,0-1.2-0.1-1.7-0.4v-0.5l0.1-0.1
			c0.4,0.2,0.9,0.3,1.4,0.3c0.6,0,1.1-0.2,1.6-0.5c0.5-0.3,0.9-0.8,1.2-1.4c0.3-0.6,0.4-1.3,0.4-1.9c0-1-0.2-1.6-0.7-2.1
			c-0.5-0.4-1.2-0.6-2.1-0.6C73.4,4.9,72.9,4.9,72.3,5z"/>
		<path fill="#FFFFFF" d="M84.4,15.7l0.1,0.2l0,0.1c-1.6,1.3-2.9,2-4,2c-0.4,0-0.7-0.1-1.1-0.3c-0.4-0.2-0.7-0.5-0.8-0.8
			c-0.2-0.4-0.3-0.8-0.3-1.4c0-0.8,0.1-1.7,0.4-2.6c0.3-0.9,0.5-1.6,0.8-2c0.3-0.4,0.7-0.8,1.2-1.2c0.5-0.4,1-0.7,1.5-0.9
			c0.5-0.2,0.9-0.4,1.4-0.4c0.5,0,0.9,0.1,1.2,0.4c0.3,0.3,0.5,0.6,0.5,1.1c0,0.5-0.2,1-0.4,1.4c-0.3,0.4-0.8,0.9-1.6,1.3
			c-0.8,0.4-1.7,0.7-2.8,1l-0.5,0.1c-0.1,0.6-0.2,1.1-0.2,1.5c0,0.6,0.1,1,0.4,1.4c0.3,0.3,0.6,0.5,1.1,0.5c0.9,0,1.9-0.5,3.1-1.4
			L84.4,15.7z M79.9,13.2c0.7-0.1,1.3-0.3,1.9-0.6c0.6-0.3,1.1-0.6,1.4-1s0.5-0.9,0.5-1.3c0-0.3-0.1-0.6-0.3-0.8
			c-0.2-0.2-0.4-0.3-0.6-0.3c-0.3,0-0.6,0.1-1,0.2c-0.4,0.2-0.7,0.4-1,0.9C80.6,10.7,80.3,11.7,79.9,13.2z"/>
		<path fill="#FFFFFF" d="M95.8,14.2c-0.1,0.1-0.3,0.3-0.5,0.6c-0.6,0.7-1.1,1.3-1.7,1.9c-0.6,0.6-1,1-1.3,1.2
			c-0.2,0.2-0.5,0.2-0.7,0.2c-0.2,0-0.4-0.1-0.5-0.2c-0.1-0.2-0.2-0.3-0.2-0.5c0-0.2,0-0.4,0.1-0.8c0-0.1,0.1-0.9,0.3-2.4l-0.1,0
			c-0.9,1.1-1.7,2-2.6,2.8c-0.9,0.7-1.6,1.1-2,1.1c-0.2,0-0.3-0.1-0.4-0.2c-0.1-0.1-0.2-0.3-0.2-0.5s0-0.5,0.1-1
			c0.1-0.5,0.3-1.5,0.6-3.1l0.5-2.6c0.1-0.3,0.1-0.5,0.1-0.7c0-0.3-0.1-0.4-0.2-0.4c-0.1,0-0.2,0-0.3,0.1c-0.1,0.1-0.5,0.3-1,0.6
			l-0.1,0l-0.1-0.2l0-0.1c0.6-0.5,1.2-0.8,1.7-1.2c0.5-0.3,0.9-0.5,1.2-0.5c0.1,0,0.2,0,0.3,0.1c0.1,0.1,0.1,0.2,0.1,0.4
			c0,0.1-0.2,1-0.5,2.5c-0.6,2.6-0.9,4.1-0.9,4.7c0,0.4,0.1,0.6,0.4,0.6c0.1,0,0.3-0.1,0.4-0.2c0.4-0.3,1-0.8,1.7-1.6
			c0.7-0.7,1.1-1.3,1.3-1.8c0.2-0.4,0.3-0.9,0.5-1.7l0.4-2.8c0.4-0.1,0.9-0.2,1.3-0.3l0.1,0.1c-0.2,0.7-0.5,2-0.8,3.8
			c-0.3,1.8-0.5,3.1-0.5,3.6c0,0.5,0.1,0.7,0.4,0.7c0.1,0,0.3-0.1,0.5-0.2s0.6-0.5,1.2-1.2s1-1.1,1.2-1.5c0.3-0.3,0.4-0.7,0.6-1.1
			c0.1-0.4,0.3-1.3,0.5-2.7c0.1-0.6,0.2-1,0.2-1.4c0.4-0.1,0.8-0.2,1.3-0.3l0.1,0.1c-0.2,0.7-0.5,2-0.9,3.9c-0.4,1.9-0.5,3-0.5,3.5
			c0,0.2,0,0.4,0.1,0.6c0.1,0.1,0.2,0.2,0.3,0.2c0.1,0,0.3-0.1,0.5-0.2s0.6-0.5,1.3-1.1l0.1,0l0.1,0.2l0,0.1c-0.4,0.4-1,0.9-1.7,1.5
			c-0.7,0.6-1.3,0.8-1.6,0.8c-0.2,0-0.3-0.1-0.4-0.2c-0.1-0.1-0.1-0.3-0.1-0.5c0-0.2,0-0.5,0.1-0.8c0.1-0.3,0.2-1.1,0.4-2.3
			L95.8,14.2z"/>
		<path fill="#FFFFFF" d="M101.3,18.1l-0.2-0.2c0.1-0.6,0.2-1.5,0.4-2.8l0.4-2.9c0.1-0.7,0.2-1.2,0.2-1.6c0-0.4,0.1-0.6,0.1-0.6
			c0-0.3-0.1-0.4-0.3-0.4c-0.1,0-0.3,0-0.5,0.1c-0.2,0.1-0.6,0.3-1.3,0.8l-0.1-0.1l-0.1-0.2l0-0.2c1.2-0.8,2-1.3,2.4-1.5
			s0.8-0.3,1-0.3c0.3,0,0.4,0.2,0.4,0.5c0,0.2-0.1,0.8-0.2,1.6l-0.5,2.8l0.2,0.1l1.8-1.8c0.7-0.6,1.3-1.2,1.9-1.7
			c0.6-0.5,1-0.9,1.3-1c0.2-0.1,0.4-0.2,0.7-0.3c0.2,0,0.4,0,0.5,0.1c0.1,0,0.2,0.1,0.3,0.2c0.1,0.1,0.2,0.2,0.2,0.3
			c0,0.1-0.1,0.4-0.2,1.1l-0.2,0.1c-0.2-0.2-0.4-0.3-0.6-0.3c-0.2,0-0.5,0.1-0.8,0.2c-0.3,0.1-0.7,0.3-1.2,0.6
			c-0.5,0.3-0.9,0.6-1.4,0.9c-0.4,0.3-0.7,0.6-0.7,0.6c-0.1,0.1-0.1,0.1-0.1,0.2c0,0.1,0,0.2,0.1,0.3c0.1,0.1,0.2,0.4,0.4,0.8
			c0.4,0.9,0.8,1.6,1.2,2.2c0.4,0.6,0.7,1,0.9,1.1c0.2,0.1,0.4,0.2,0.6,0.2c0.4,0,0.9-0.2,1.5-0.7l0.1,0l0.1,0.1l0,0.1
			c-1.1,1-2,1.5-2.6,1.5c-0.2,0-0.4-0.1-0.6-0.2c-0.2-0.1-0.4-0.3-0.6-0.7c-0.2-0.3-0.5-0.9-0.9-1.8l-1.1-2.3
			c-0.5,0.4-0.7,0.6-0.8,0.7c-0.1,0.1-0.1,0.2-0.2,0.4c0,0.1-0.1,0.6-0.2,1.5c-0.1,0.9-0.1,1.5-0.2,1.8
			C102,17.8,101.5,18,101.3,18.1z"/>
		<path fill="#FFFFFF" d="M117.7,15.9l0.1,0.3l0,0.1c-1.4,1.2-2.3,1.8-2.8,1.8c-0.3,0-0.5-0.2-0.5-0.6c0-0.2,0-0.5,0.1-0.8
			s0.1-0.6,0.2-1l0.2-1l0.1-0.6l-0.1,0c-1,1.4-1.9,2.4-2.7,3.1c-0.8,0.7-1.4,1-1.8,1c-0.4,0-0.7-0.6-0.7-1.7c0-0.7,0.1-1.5,0.3-2.4
			s0.5-1.7,0.8-2.4c0.3-0.7,0.6-1.2,0.7-1.5c0.2-0.2,0.5-0.5,0.9-0.8c0.4-0.3,0.8-0.5,1.2-0.7c0.4-0.2,0.8-0.2,1.3-0.2
			c0.6,0,1.2,0.1,1.8,0.3l0.6-0.4l0.2,0.2c0,0.1-0.2,0.6-0.4,1.5l-0.4,1.6l-0.2,1c-0.2,0.7-0.3,1.4-0.5,2.1
			c-0.2,0.7-0.2,1.3-0.2,1.5c0,0.3,0.1,0.4,0.3,0.4c0.1,0,0.3-0.1,0.4-0.1c0.2-0.1,0.5-0.3,1-0.7L117.7,15.9z M116.1,9.7
			c-0.5-0.2-1-0.3-1.6-0.3c-0.5,0-0.9,0.1-1.3,0.3c-0.1,0.1-0.3,0.3-0.4,0.6c-0.1,0.3-0.3,0.7-0.6,1.5c-0.3,0.7-0.5,1.5-0.6,2.3
			c-0.2,0.8-0.2,1.5-0.2,1.9c0,0.4,0,0.6,0.1,0.7c0.1,0.1,0.2,0.2,0.3,0.2c0.2,0,0.7-0.3,1.4-0.9c0.7-0.6,1.3-1.4,1.7-2.2
			c0.5-0.8,0.9-1.9,1.2-3.3L116.1,9.7z"/>
	</g>
</g>
</svg>
