<?xml version="1.0" encoding="UTF-8" standalone="no"?>
<svg width="110px" height="73px" viewBox="0 0 110 73" version="1.1" xmlns="http://www.w3.org/2000/svg" xmlns:xlink="http://www.w3.org/1999/xlink" xmlns:sketch="http://www.bohemiancoding.com/sketch/ns">
    <!-- Generator: Sketch 3.4.4 (17249) - http://www.bohemiancoding.com/sketch -->
    <title>Artboard</title>
    <desc>Created with Sketch.</desc>
    <defs></defs>
    <g id="Page-1" stroke="none" stroke-width="1" fill="none" fill-rule="evenodd" sketch:type="MSPage">
        <g id="Artboard" sketch:type="MSArtboardGroup">
            <path d="M0,0.0252181818 L0,72.9997788 L110,59.4195667 L110,0.0252181818 L0,0.0252181818 Z" id="Fill-1" fill="#3180C5" sketch:type="MSShapeGroup"></path>
            <path d="M27.86234,22.2435424 C27.70174,22.1008606 27.48834,22.0333909 27.27274,22.0599364 L14.91974,23.5851939 C14.54354,23.6316485 14.25974,23.9535121 14.25974,24.333997 L14.25974,37.5702242 C14.25974,37.7870121 14.35214,37.9927394 14.51384,38.1365273 C14.65134,38.2593 14.82844,38.3256636 15.01104,38.3256636 C15.04184,38.3256636 15.07154,38.3234515 15.10234,38.3201333 L19.83454,37.7361333 C20.21074,37.6896788 20.49344,37.3678152 20.49344,36.9862242 L20.49344,28.5834818 L21.88164,28.4120424 L21.88164,36.6289667 C21.88164,36.8457545 21.97404,37.0514818 22.13574,37.1952697 C22.29634,37.3379515 22.51084,37.4054212 22.72424,37.3788758 L27.45644,36.7948758 C27.83264,36.7484212 28.11534,36.4265576 28.11534,36.0449667 L28.11534,22.8098455 C28.11534,22.5930576 28.02404,22.3873303 27.86234,22.2435424" id="Fill-2" fill="#FFFFFF" sketch:type="MSShapeGroup"></path>
            <path d="M42.00515,20.4974045 C41.84455,20.3547227 41.63005,20.287253 41.41555,20.3137985 L35.46895,21.0482227 C31.66845,21.5171924 29.48935,23.6552076 29.48935,26.9158742 C29.48935,28.0152985 29.78965,28.9598742 30.35945,29.6445258 C30.69055,30.0427076 31.10525,30.3402379 31.57825,30.52495 L28.62255,35.4181621 C28.47295,35.6659197 28.47735,35.9778288 28.63355,36.2200561 C28.77325,36.43795 29.01085,36.566253 29.26385,36.566253 C29.29465,36.566253 29.32545,36.5640409 29.35625,36.5607227 L34.65825,35.9059348 C34.90905,35.8749652 35.12685,35.7201167 35.23905,35.4922682 L36.11685,33.718147 L36.11685,34.8717682 C36.11685,35.0885561 36.20925,35.2942833 36.36985,35.4380712 C36.53155,35.580753 36.74605,35.6471167 36.95945,35.6216773 L41.59925,35.0487379 C41.97545,35.0022833 42.25925,34.6804197 42.25925,34.2988288 L42.25925,21.0637076 C42.25925,20.8469197 42.16685,20.6411924 42.00515,20.4974045" id="Fill-4" fill="#FFFFFF" sketch:type="MSShapeGroup"></path>
            <path d="M43.30304,25.6773076 C43.46364,25.8210955 43.67814,25.8874591 43.89264,25.8609136 L45.68234,25.6408076 L45.68234,33.6907167 C45.68234,33.9075045 45.77474,34.1132318 45.93534,34.2570197 C46.07394,34.3797924 46.25104,34.4461561 46.43364,34.4461561 C46.46334,34.4461561 46.49414,34.4439439 46.52494,34.4406258 L51.25604,33.8566258 C51.63334,33.8101712 51.91604,33.4883076 51.91604,33.1067167 L51.91604,24.8709894 L53.88944,24.62655 C54.26564,24.5800955 54.54834,24.2593379 54.54834,23.877747 L54.54834,19.5453076 C54.54834,19.3296258 54.45594,19.1238985 54.29534,18.9801106 C54.13364,18.8363227 53.92024,18.7699591 53.70574,18.7965045 L43.70894,20.0308682 C43.33274,20.0762167 43.05004,20.3980803 43.05004,20.7796712 L43.05004,25.1121106 C43.05004,25.3277924 43.14134,25.5346258 43.30304,25.6773076" id="Fill-6" fill="#FFFFFF" sketch:type="MSShapeGroup"></path>
            <path d="M42.00306,36.0550318 C41.84246,35.91235 41.62906,35.8448803 41.41346,35.8714258 L36.68236,36.4554258 C36.30616,36.5018803 36.02236,36.8237439 36.02236,37.2053348 L36.02236,40.9427136 L34.63416,41.114153 L34.63416,37.5614864 C34.63416,37.3458045 34.54286,37.1389712 34.38116,36.9962894 C34.21946,36.8525015 34.00606,36.7850318 33.79156,36.8126833 L29.06046,37.3966833 C28.68426,37.4431379 28.40046,37.7638955 28.40046,38.1454864 L28.40046,51.3817136 C28.40046,51.5985015 28.49286,51.8042288 28.65456,51.9480167 C28.79206,52.0707894 28.96916,52.137153 29.15176,52.137153 C29.18256,52.137153 29.21226,52.1349409 29.24306,52.1316227 L33.97526,51.5476227 C34.35146,51.5011682 34.63416,51.1793045 34.63416,50.7977136 L34.63416,46.8015167 L36.02236,46.6300773 L36.02236,50.4415621 C36.02236,50.6572439 36.11476,50.8629712 36.27646,51.0067591 C36.43706,51.1494409 36.65156,51.2180167 36.86606,51.1903652 L41.59716,50.6063652 C41.97336,50.5599106 42.25606,50.238047 42.25606,49.8564561 L42.25606,36.6202288 C42.25606,36.404547 42.16366,36.1988197 42.00306,36.0550318" id="Fill-8" fill="#FFFFFF" sketch:type="MSShapeGroup"></path>
            <path d="M57.44332,34.148847 C57.28272,34.0061652 57.06932,33.9375894 56.85372,33.9652409 L52.21502,34.5381803 C51.97632,34.5669379 51.76622,34.7096197 51.64962,34.9219833 L49.11742,39.5220894 L49.11742,35.77365 C49.11742,35.5579682 49.02502,35.3511348 48.86442,35.207347 C48.70272,35.0646652 48.48932,34.9971955 48.27482,35.0237409 L43.70872,35.5878318 C43.33252,35.6342864 43.04982,35.95615 43.04982,36.3377409 L43.04982,49.5728621 C43.04982,49.78965 43.14222,49.9953773 43.30282,50.1391652 C43.44142,50.2619379 43.61852,50.3283015 43.80002,50.3283015 C43.83082,50.3283015 43.86162,50.3271955 43.89242,50.3227712 L48.56852,49.7454076 C48.80722,49.71665 49.01842,49.5728621 49.13502,49.3616045 L51.62872,44.8234379 L51.62872,48.5143621 C51.62872,48.7300439 51.72112,48.9368773 51.88282,49.0795591 C52.04342,49.223347 52.25682,49.2897106 52.47132,49.2642712 L57.03742,48.7001803 C57.41362,48.6537258 57.69742,48.3318621 57.69742,47.9502712 L57.69742,34.7140439 C57.69742,34.4983621 57.60502,34.2915288 57.44332,34.148847" id="Fill-10" fill="#FFFFFF" sketch:type="MSShapeGroup"></path>
            <path d="M73.20357,41.3737455 C73.04077,41.1713364 72.78337,41.0684727 72.52817,41.1005485 L72.34337,41.1226697 L72.34337,32.9057455 C72.34337,32.6900636 72.25097,32.4843364 72.09037,32.3405485 C71.92867,32.1967606 71.71417,32.130397 71.50077,32.1569424 L66.76967,32.7409424 C66.39237,32.787397 66.10967,33.1092606 66.10967,33.4908515 L66.10967,41.8935939 L64.72147,42.0639273 L64.72147,33.847003 C64.72147,33.6313212 64.62907,33.4255939 64.46847,33.2818061 C64.30677,33.1380182 64.09337,33.0716545 63.87887,33.0982 L59.14777,33.6822 C58.77047,33.7275485 58.48777,34.0494121 58.48777,34.431003 L58.48777,47.6672303 C58.48777,47.8840182 58.58017,48.0897455 58.74077,48.2324273 C58.90247,48.3762152 59.11697,48.4436848 59.33037,48.4171394 L66.12507,47.5776394 L66.12507,49.3816242 C66.12507,49.5973061 66.21747,49.8041394 66.37917,49.9468212 C66.51667,50.0695939 66.69377,50.1370636 66.87637,50.1370636 C66.90717,50.1370636 66.93797,50.1348515 66.96767,50.1315333 L70.28307,49.7222909 C70.56907,49.686897 70.80887,49.4911242 70.90237,49.2168212 L73.33117,42.094897 C73.41477,41.8482455 73.36637,41.5761545 73.20357,41.3737455" id="Fill-12" fill="#FFFFFF" sketch:type="MSShapeGroup"></path>
            <path d="M84.15044,31.1837197 C84.03054,30.8541136 83.70054,30.6505985 83.35294,30.6937348 L78.08834,31.3429924 C77.80234,31.3783864 77.56254,31.5752652 77.46904,31.8484621 L72.77424,45.6642652 C72.69064,45.9109167 72.73904,46.1830076 72.90184,46.3843106 C73.04594,46.5623864 73.26044,46.6641439 73.48484,46.6641439 C73.51564,46.6641439 73.54644,46.6619318 73.57614,46.6586136 L78.65814,46.0303712 C78.96944,45.9927652 79.22464,45.7627045 79.29724,45.4552197 L79.58104,44.2507197 L81.98454,43.9542955 L82.23974,44.930947 C82.33654,45.295947 82.68414,45.53375 83.05814,45.4872955 L88.13904,44.8601591 C88.36674,44.8325076 88.56914,44.7008864 88.68794,44.5051136 C88.80784,44.3082348 88.83204,44.0682197 88.75284,43.8514318 L84.15044,31.1837197 Z" id="Fill-14" fill="#FFFFFF" sketch:type="MSShapeGroup"></path>
            <path d="M95.12096,41.2219939 C94.96036,41.0793121 94.74696,41.0118424 94.53136,41.0383879 L89.96306,41.6024788 C89.58686,41.6489333 89.30416,41.9696909 89.30416,42.3512818 L89.30416,46.5200242 C89.30416,46.7368121 89.39656,46.9425394 89.55716,47.0852212 C89.69576,47.2079939 89.87286,47.2754636 90.05546,47.2754636 C90.08626,47.2754636 90.11596,47.2732515 90.14676,47.2699333 L94.71506,46.7058424 C95.09126,46.6593879 95.37506,46.3375242 95.37506,45.9559333 L95.37506,41.788297 C95.37506,41.5715091 95.28266,41.3657818 95.12096,41.2219939" id="Fill-16" fill="#FFFFFF" sketch:type="MSShapeGroup"></path>
            <path d="M95.72255,29.4494167 C95.55975,29.2901439 95.33425,29.2138258 95.10765,29.2414773 L89.38765,29.94825 C88.98395,29.9980227 88.69355,30.3608106 88.73095,30.7678409 L89.59555,40.0698106 C89.61425,40.2733258 89.71435,40.46025 89.87275,40.588553 C90.00695,40.696947 90.17305,40.7544621 90.34355,40.7544621 C90.37435,40.7544621 90.40405,40.7533561 90.43485,40.7489318 L94.42675,40.2567348 C94.77765,40.2135985 95.05155,39.9293409 95.08345,39.5754015 L95.94805,30.0599621 C95.96785,29.8332197 95.88535,29.6086894 95.72255,29.4494167" id="Fill-18" fill="#FFFFFF" sketch:type="MSShapeGroup"></path>
        </g>
    </g>
</svg>