<?xml version="1.0" encoding="utf-8"?>
<!-- Generator: Adobe Illustrator 19.0.0, SVG Export Plug-In . SVG Version: 6.00 Build 0)  -->
<svg version="1.1" id="Layer_1" xmlns="http://www.w3.org/2000/svg" xmlns:xlink="http://www.w3.org/1999/xlink" x="0px" y="0px"
	 viewBox="0 0 777.8 500.5" style="enable-background:new 0 0 777.8 500.5;" xml:space="preserve">
<style type="text/css">
	.st0{fill:#ED1C24;}
	.st1{fill:#002E6D;}
	.st2{fill:url(#XMLID_2_);}
	.st3{fill:url(#XMLID_3_);}
	.st4{fill:#002B52;}
	.st5{fill:#FFFFFF;}
</style>
<g>
	<g>
		<g>
			<polygon class="st0" points="69.2,250.6 45.9,205.9 0.1,205.9 0,319.7 42.8,319.7 42.9,268.6 73.1,319.7 113.6,319.7 
				113.7,205.9 69.2,205.9 			"/>
			<path class="st0" d="M206.8,237.7c-6.1-4.4-13.9-7.4-21.3-8.7c-3.5-0.7-7.5-1.1-11.5-1.2c-14.9-0.2-32,3.9-42,13
				c-6.7,6.1-9.6,16.6-11.1,25.5c-2.4,12.9-0.4,38.2,13.1,45.5c11.1,5.8,24.6,7.9,36.9,8h3.1c12.9-0.3,25.9-3.8,37.3-7.7
				c2.5-7.7,5.1-15.4,7.6-23.1c-11.8,2.2-23.6,5.6-35.6,6.4c-3,0.2-5.2-0.4-8.6-0.8c-2.1-0.2-5.1-0.6-7.8-2.5
				c-2.6-1.9-2.6-5.6-2.9-9.2h10h46.1c0.1-3.3,0.2-7,0.3-10.8c-0.4-6.4,0.1-13.3-2.1-19.3C216.1,247,211.9,241.4,206.8,237.7z
				 M174,263.5h-11.9c-0.3-6.6,5.3-13.2,11.2-13.2h0.8c6.2,0.4,11.2,5.9,11.9,13.2H174z"/>
			<path class="st0" d="M364.1,227.4c-6.1-0.2-15.6,0.9-22.1,3.2c-6,2.1-12.8,9.2-16.1,15.4c-3.2-8.8-13.4-17.5-22.9-18.3
				c-7-0.6-15.5,0.4-22.1,3c-6.3,2.4-11.5,8.9-16,13.4v-13.4l-38.7-0.1v88.9h40.7v-43.4c0-9.7,6.7-11.7,11.3-11.7c3.4,0,9,2.9,9,8.9
				v46.2h40.5l0.3-43.3c0-9.6,6.7-11.7,11.3-11.7c3.4,0,9.1,2.9,9.1,8.9v46.1h41.1v-65.5C389.4,240.5,373.8,227.8,364.1,227.4z"/>
			<path class="st0" d="M395.5,230.3l-0.1,89.3h41.9v-89.1C423.4,233.2,409.1,232.8,395.5,230.3z"/>
			<path class="st0" d="M434,206.4h-34.8c-1.9,0-3.3,1.5-3.3,3.3v12.4c0,1.8,1.4,3.3,3.3,3.3H434c1.9,0,3.4-1.4,3.4-3.3v-12.4
				C437.3,207.9,435.8,206.4,434,206.4z"/>
			<path class="st0" d="M777.8,237.4v-28.8c-18.4-2.2-31.6-3-46.9-0.6c-9.9,1.6-22.4,7-22.4,16v24.4h-35.7v-9.9
				c-0.1-4.4,18.7-2.7,26.2-0.7V209c-18.5-2.2-31.6-3-46.9-0.6c-10,1.5-22.4,7-22.4,16v24.1h-10.1V260c-2-10.5-6.8-18.9-15-24.2
				c-9.7-6.2-22.5-7.8-34.3-8.3c-0.6,0-1.4-0.1-2.1-0.1c-10.3-0.2-21.7,1.6-30.8,5.1c-10.9,4.1-17.5,12.4-21.1,25v-28.2
				c-8.3-1.6-11.7-1.9-16.2-1.1c-8.1,1.4-14.9,8.1-16.7,21.7v-19.7l-39.4-0.1v89.3h42.4v-27.4c0-5.9,6.5-10.9,11.9-13.7
				c5-2.5,11.3-0.6,16.8-0.9L516,290c3.6,12.4,9.6,20.8,20.6,24.9c9.1,3.4,17.6,4.7,27.9,4.6c0.7,0,4.4,0.4,5.1,0.4
				c11.7-0.5,24.9-2.4,34.2-8.3c7.9-5,14.6-15.4,15.8-29.5l10.6,0.1v37.4h42.7l-0.1-37.4h36.2v37.4h42.8v-37.4h25.9v-34.1l-25.9-0.1
				l-0.1-10C751.7,233.7,770.4,235.4,777.8,237.4z M580.7,280.1c0,7.1-5.9,12.9-13,12.9c-7.2,0-13.1-5.8-13.1-12.9v-9.6
				c0-7.1,5.9-12.9,13.1-12.9c7.1,0,13,5.8,13,12.9V280.1z"/>
		</g>
		<path class="st0" d="M276.4,152.1c-1.5-0.4-2.4,1-0.1,1.5c0.3,0.2,1.6,0.4,1.9,0.3c1.2-0.2,2.3,0.6,3.4,0.7c0.3,0,1.1-0.7,0.5-0.9
			c-0.8-0.1-0.1-0.7,0.4-0.6c0.1,0.2,2.9,0.1,5,0c1.3-0.1,0.8-0.5,0.1-0.5C285.3,152.6,279.7,152.7,276.4,152.1z"/>
		<path class="st0" d="M446.3,39.9c-0.2,0.1-1.4,1.3-2,2.3c-0.4,0.5,0.2,0.6,0.8,0.1c1.6-1.4,4.3-4,5.7-6c0.5-0.8,0.4-1.2-0.5-0.3
			C448.8,37.6,446.5,39.8,446.3,39.9z"/>
		<path class="st0" d="M473.9,16.2c-2.4,1.7-7.2,4.9-6.9,5.6c0.6,0.4,4.9-3,7-5.1C474.8,16,474.6,15.7,473.9,16.2z"/>
		<path class="st0" d="M581.6,26c0.1,0.1,0.9,0,1.1-0.1c5.4-3.3,14-10.8,20.7-20.8c0.7-1.1,0.5-1.4-0.3-0.5
			c-11.8,13.6-17.7,16.2-18.9,16.8c-0.4,0.2-0.7,0.3-0.9,0.5c-2.6,1.9-2.1,2.8-2.1,2.8C581.2,25,581.2,25.6,581.6,26z"/>
		<path class="st0" d="M358.6,91.3c0.5-0.3,0.4-0.5-0.1-0.4c-1.2,0.3-2.6,0.6-2.2,1.3C356.8,92,357.8,91.7,358.6,91.3z"/>
		<path class="st0" d="M195.1,117.3c1.3,0.1,4.1,0.4,5,0.3c1.6,0.1,4.3,0.2,5.9,0c0.5-0.1,0.5-0.3-0.1-0.4c-1.7-0.1-6.2-0.7-7.8-1
			c-0.9-0.1-1.4-0.2-2.6-0.2C194.6,116.2,194.2,117.2,195.1,117.3z"/>
		<path class="st0" d="M203.5,135.8c-0.6-0.1-8.1-2-8.8-2C194.6,134.9,203.4,136.6,203.5,135.8z"/>
		<path class="st0" d="M215.6,117.6c1-0.4-3.5-0.3-4.4-0.3c-0.8,0-1.9-0.4-3-0.2c-0.6,0.1-1,0.7-0.5,0.8
			C209.9,118,214.5,118.1,215.6,117.6z"/>
		<path class="st0" d="M363.3,89.3c2-0.8,4.6-1.8,6.3-2.7c1-0.5,0.6-0.8-0.3-0.4c-1.8,0.8-4.3,1.8-6.2,2.7
			C361.7,89.5,361.8,89.9,363.3,89.3z"/>
		<path class="st0" d="M290.2,154.4c0.3,0,0.8,0.6,1.1,0.6c2-0.1,7.2-0.4,11.8-0.1c0.7,0.1-0.2-0.7-1.5-0.9
			c-2.1-0.3-6.1-0.4-8.3-0.4c-1.5,0-2.8,0-3.2,0c-1.5-0.2-3.4,0.5-4.3,0.6c-0.5,0.1-0.4-0.4-0.7-0.4c-0.2,0-1.8-0.3-1.7,0.7
			c0.9,1.1,2.9,1.1,4.1,0.2c0.2-0.1,1-0.2,1.1,0.3c-0.2,0.1-0.3,0.2-0.5,0.2c-0.5,0-0.4,0.3,0,0.4c0.3,0,0.6,0,0.8,0
			c0.8-0.2,0.9-0.5,0.8-0.7C289.6,154.6,289.9,154.4,290.2,154.4z"/>
		<path class="st0" d="M453.4,51.4c0.1-0.2,0.3-0.3,0.6-0.4c0.2,0,0.6-0.5,0.8-0.7c0.4-0.5,1.2-0.9,0.3-1.2
			c-1.8,1.7-5.9,4.5-8.2,6.8c-0.4,0.4-0.3,0.9,0.2,0.6c1.6-1.1,3.3-3.4,5.1-3.9C452.5,52.3,453.3,51.6,453.4,51.4z"/>
		<path class="st0" d="M506.5,116.2c0.3-0.1,1.6-0.4,2.3-0.5c2.1-0.5,5.6-1.3,2.9-2.3c-0.5-0.1-3,1-4.7,2c-0.1,0.2-0.8,0.4-1.1,0.5
			C505.5,115.9,506,116.2,506.5,116.2z"/>
		<path class="st0" d="M464.5,126.6c0.4,0.5,1.6,0.6,2.6,0.6c-0.2,0.2,3.1-1.1,6.5-2.1c2.6-0.8,4.9-1.1,7.5-2.1
			c0.5-0.2,0.8-0.6,0.2-0.5C477.2,123.1,467.5,125.7,464.5,126.6z"/>
		<path class="st0" d="M509.8,113.5c-0.4-1.2-4.3,1.1-3.8,1C504.7,116.2,508.7,113.8,509.8,113.5z"/>
		<path class="st0" d="M604.5,17.2c-0.4,0.3-1.7,0.8-0.6,1.8c0.6,0.9,6.1-4.1,8.4-6.6c0.7-1.8-2.7,1.2-3.4,1.9
			C607.3,15.5,605.1,16.9,604.5,17.2z"/>
		<path class="st0" d="M460.2,140.4c0.6-0.2,3.4-1.1,4.1-1.5c-0.6-0.6-2-0.4-2.8-0.5c-0.4,0-0.9,0-1.2,0.1c-0.5,0.3-1,0.5-1.2,0
			c0.6-0.6,1.3-0.3,1.4-0.7c-0.2-0.1-0.6,0-0.9-0.1c-0.2,0,0.1-0.6,0.3-0.6c1.4-0.3,1.8-0.2,2.7-0.1c0.3,0,0.7,0.4,1.1,0.7
			c0.3,0.2,1.4,0.9,3.6,0.4c2.6-0.7,4.3-2.6,4.5-2.9c0.9-1.2,3.3-2.4,1.3-2.1c-0.2-1.1,1.2-1.3,2.3-1.4c0.4,0,0.3,0.2,0,0.4
			c-0.4,0.2-0.6,0.4-0.7,0.8c1.1-0.4-1.4,1.7-2.3,2.4c-0.4,0.3-0.2,1.3,1.5-0.2c0.7-0.4,1.9-1.6,2.2-1.8c-0.1-0.3-0.3-0.8,0-0.9
			c0.8,0.1,0.5,1.7,2.7,1c0.8-0.2,2.4-1.7,2.9-1.5c-0.2,0.1-0.5,0.3-0.7,0.4c-0.3,0.2-0.1,0.4,0.1,0.3c0.4-0.1,0.7-0.2,1-0.2
			c0.4,0,3.1-0.4,4.2-0.9c0.3-0.2,1.5-0.2,0.8,0.5c-0.7,0.6-2.8,1.3-3.1,1.2c-0.2,0-1.1,0.8-1.3,1c-0.4,0.4-0.4,0.8-0.1,0.7
			c1.1-0.4,1.7,0.2,5.9-2.1c0.1-1.1,1.3-1.7,2.7-2.3c0.2-0.1,0.4-0.6,0.3-0.8c0-0.5,0.3-0.6,0.8-0.7c0.2,0,0.5-0.4,0.5-0.6
			c0.2-1.4,2.8-1.9,3.8-2.3c1.9-0.8,2.4,0.4,2.8,0.3c0.4-0.4,0.6-1,1.1-1.1c0.1,0,0.3,0,0.5,0.2l0,0c-0.1,0.1-0.3,0.3-0.6,0.5
			c-0.5,0.3-5.6,3.4-6.3,4.2c-0.6,0.5,1.6,0,2.3-0.2c2-0.8,4.7-1.9,6.1-2.6c0.4-0.2,0.3-0.5,0.2-0.6c-0.4-0.2,0.6-0.5,0.9-1.1
			c-0.5-0.2-0.9,0.1-1.2,0.3c-0.2,0.1-0.4,0.2-0.7,0.1c0,0,0,0,0,0c0.3-0.2,0.5-0.4,0.7-0.6c0.8-0.7,0.9-0.9,1.7-1.6
			c0.8-0.3,2.4-0.2,2.6,0c-0.2,0.4-0.8,0.4-1.3,0.6c-0.9,0.3-0.6,0.7-0.6,0.9c-0.2,0.1-0.3,0.1-0.2,0.4c1.5-1,2.4-0.9,3.1-1.3
			c0.1-0.1,0-0.3-0.1-0.3c-0.2,0-0.3-0.1-0.3-0.4c4.1-1.3,2.2-2.7,3.1-2.8c0.5,1.7,0.7-0.7,1.7,0.1c0,0.4-2.2,1.8-2.8,2.3
			c-0.1-0.1,0.1,0.4,1.8-0.2c0.3-0.5,0.5-1.2,1.2-1.6c0.2,0.2,0.2,0.5,0.5,0.5c-0.1-0.7,0.6-0.9,1.1-0.6c0.2-0.8-0.4-0.8-0.1-1.2
			c1.5-0.7,3,0,4.5-0.8c-0.8-1.1,2-1.4,3.3-2.2c0-0.5-0.7-0.6-0.3-0.8c0.2,0.3,0.4,0.1,0.6-0.2c0,0.9,1.4,1.2,0,2
			c-1.5,0.9-3.6,2.1-4.8,2.9c-0.6,0.4-0.3,0.6,0.2,0.4c4.1-2.1,9.8-3.9,11.3-6.1c0.6-0.4,0-0.6,0.4-0.9c3.8-2.1,14.2-7.6,28.3-19.4
			c4.5-3.7,6.8-6.5,8.2-8.4c0.3-0.4,0.5-0.9,0.1-0.6c-0.5,0.4-0.5,0,0.1-0.5c0.4-0.4,0.9-0.8,1.3-1.2c0.5-0.4,1.4-1.9,1.2-2.7
			c0.4-0.1,1.2-1,1.8-1.7c0.5-0.6,0.1-0.7-0.2-0.5c-0.7,0.7-0.8,0.6-0.9,0.3c0-0.1,0.3-0.5,0.5-0.6c1.3-0.5,1.5-1.7,1.7-2.2
			c-0.6,0.1-0.5,0.6-0.7,0.2c0.3-0.2,0.1-0.4-0.2-0.5c1.2-0.6,1-0.8,1.3-1.7c0.3-1,0.5-1.8,0.6-2.4c0,0,0.3-1.9-0.3-0.8
			c-0.3,0.6-0.1-0.2,0.2-1c0.3-0.8,0.4-1.7,0.2-2.8c0-0.3-0.3-0.9-0.7-0.5c-0.6-0.3-1.6-1.8-0.3-1.9c0.3,0.3-0.4,1.1,0.6,1
			c0.3-0.9-0.3-4.5-1.8-5.1c0.2-0.3,0.2-1-0.5-1.7c-0.5,0.1-0.4,0-0.7-0.5c-0.3-0.1-1.9-1.9-5.1-2.9c-2.6-0.8-4.6-1-5.8-1
			c-1.3,0-1.3,0.7-0.5,1.6c1.7,1.8,4.6,5.1,5.7,8.7c0.1,0.3,0.5,0.7,0.6,0.8c0.4,0.2,0.7,0.7,1,1.2c0.1,0.3,0.1,0.9-0.1,0.6
			c-0.2-0.3-0.5-0.7-0.8-1c-0.2-0.2-0.4,0.5-0.3,0.7c0.2,0.7,0.2,1.3,0.5,1.6c0.1,0.1,0.6,0.8,0.7,1.2c2.6,14.7-30.4,32.9-40.4,37.7
			c-1.2,0.6-8.5,4.3-10.3,4.8c-0.5,0.1-0.6,0.3-0.5,0.3c0.1,0.1,0.2,0.2,0.3,0.4c-1.7,1.8-7.1,2.5-7.3,2.5c-0.3,0.1-0.4-0.1-0.7,0.2
			c-0.1-0.3-0.3-0.3-0.9-0.3c0.1,0.2-2.7,2.6-3.1,2.5c-0.1,0,0-0.4,0.2-0.5c0.6-0.4,2.4-1.8,2.4-1.9c0-1.3-0.1-1.3-1.2-0.7
			c-2,0.3-1.2,2.1-2.6,2.7c-0.5,0.1-0.6,0-0.9-0.1c-0.1-0.6,0.6-0.8,0.5-1.4c-0.7,0.2-1.1,0.6-1.3,1.1c-0.2,0.3-0.1,0.8,0.1,0.8
			c0.4,0,1,0.1,1.1,0.5c-0.3,0.1-0.3,0.3-0.5,0.5c-0.5-0.7-1.8,0.3-2.9,0.6c-0.1-0.4-0.5-0.3-0.2-0.5c0.6-0.6,1.7-0.3,1.7-1.2
			c-0.7-0.5-2.7,1.7-3.4,1.1c0.5-0.2,1.1-0.3,0.7-0.8c-1.8,0.5-2.1,0.5-2.1,0.5c-0.6-0.6-1.3,2.2-2,1.7c-0.1-0.4-2.7,0.5-3.2,0.7
			c-1.6,0.7-3.3,0.2-3.8,0.5c-1.2-0.1,0.1,1-0.6,1.1c-1,0.3-1.6,0.2-1.4-0.1c0.1-0.1,0-0.4-0.2-0.3c-1,0.5-1.7,1.3-2,1.3
			c-0.6,0-1.8-0.4-1.9,0.1c-1.6,0.4-4.2,0.2-5.2,1.6c-0.1,0.1-3.1,1.1-4.9,1.8c-0.7,0.3-1.6,0.1-1.9,0.1c-0.9-0.1-2.3,0.7-2-0.4
			c-1,0.4-0.6,1.5-0.5,2.2c-1-0.2-1.5-0.6-2.8-0.5c-0.2,0-0.3-0.4,0-0.5c0.4-0.1,0.9-0.2,1.4-0.2c0.3,0,0.1-0.3-0.1-0.3
			c-1.2-0.1-2.8,0.2-4,0.4c-0.3,0-0.7,0.6-0.4,0.7c0.6,0.1,0.9,0.4,0.6,0.5c-2.1,0.4-5.7,1-7.7,1.7c-0.4,0.1-1.3,0-1.5,0
			c-1.2,0.3-2.4,0.6-3.6,1.1c-0.2,0.1-0.4,0.2-0.6,0.3c0,0,0,0,0,0c0-0.3,0.1-0.5,0.3-0.7c0.5-0.6,1.8-0.6,2.8-1.1
			c0.3-0.1,0.3-0.5,0-0.4c-1.3,0.3-2.4,0.8-2.6,0.1c0-0.1-0.6,0-1.1,0.2c-2.8,1.3-8.9,2.3-9.9,2.7c-0.4,0.2-0.3,0.6,0.1,0.5
			c2.2-0.5,5.6-1.1,5.9-1.1c1-0.1,2.7-0.2,1.1,0.4c-1.6,0.2-7.6,1.5-8.7,1.7c-1.3,0.2-2.3,0.5-2.9-0.4c-0.2-0.3-0.7-0.9-1-0.8
			c-1,0.3-4.6,0.7-4.4,1.3c0.9,0.1,2-0.7,2.5,0c0.1,0.5-1.5,0.5-0.3,0.7c0.5-0.1,1.2-0.4,1.7-0.5c0.4-0.1,0.4,0.4,0.1,0.5
			c-1,0.4-2.5,1.1-3.6,1c-0.4,0-0.4-0.4-0.1-0.6c0.2-0.1,0.3-0.2,0.4-0.3c0.2-0.1,0-0.4-0.2-0.4c-1.6,0.3-3.7,0.7-5.6,0.9
			c-0.3,0-0.5-0.2-0.1-0.3c0.5-0.1,1.1-0.3,1.7-0.4c0.4-0.1,0.4-0.4-0.1-0.4c-1.4-0.1-3.5,0.7-5,1c-0.9,0.2-2.6,0-2.6,1.1
			c0.8-0.2,1.4-0.4,1.9-0.5c0.5-0.1,0.6,0.6,0.1,0.8c-0.9,0.2-1.8,0.1-2.6-0.2c-0.2-0.1-0.8,0-0.8,0.2c0,0.2,0.1,0.5,0,1
			c-0.8-0.4-2.7,0.1-2.1,0.6c0.1,0.1,0,0.5-0.2,0.5c-0.5,0.1-0.7-0.3-1.1-0.1c-0.1,0.1-0.4-0.1-0.5-0.2c-0.1-0.2-0.4-0.3-0.7-0.4
			c-1.1,0.2-3.8,0.7-4.2,0.7c-0.3,0-0.2-0.5,0-0.5c1.9-0.2,3.8-0.5,5.5-0.9c0.6-0.2,0.5-0.7-0.1-0.6c-1.5,0.2-3.4,0.8-4.9,0.7
			c-0.4,0-0.4-0.4-0.1-0.5c1.8-0.3,4.5-0.5,7.9-1.4c0.6-0.6,0-0.6-0.2-0.6c-6.2,0.9-14.8,1.9-21.7,3.3c-5.1,0.9-12,2-13.3,2
			c-0.6,0-2.8-0.2-7.6-0.3c-0.7,0-15.8,1.2-17.9,1.2c-0.5,0-1.5,0.3-1.8,0.4c-0.7,0.3-2.1,0.1-2.5-0.1c-0.1-0.1-0.7-0.6-1-0.6
			c-8.8,0.5-15.8-0.2-23-0.3c-0.5,0-1.6,0.9-2.7,0.9c-1.5-1.6-5,0.8-6.8-1.2c0.6-0.4,7,0.6,10.3-0.3c0.6-0.2,1-0.7,0.2-0.7
			c-3.5,0-14.5,0-14.9-0.1c-0.2-0.1-1.4-0.2-1.9,0.4c0.2,0.5,1.2,0.9,2,1.1c0.5,0.2-0.2,0.5-0.6,0.5c-1.5,0-1.4-0.9-1.8-1.1
			c-0.4-0.2-1.4-0.6-2.3-0.4c-0.8,0.2-1.7,0.4-2.5,0.2c-0.4-0.1,2.6-1.4-1.7-1.4c-0.2-0.1-2,0-2.3,0c-0.3,0.1-6.9-0.4-8.2-0.5
			c-1.8-0.1-4.1-0.2-4.9-0.3c-17-1.4-32.5-4.8-39.1-6.3c-2.1-0.5-2.2-0.8-0.2-0.9c8.4-0.3,33.3-1.7,64.8-8.6c3.7-0.6,9.6-2.4,11-2.7
			c1.4-0.4,1.9-0.5,4.2-1.2c0.2-0.8-0.4-0.8-0.1-1.2c2.2-0.3,3.1-0.9,4.3-0.9c0.4,0,0.5,0.5,0,0.6c-1.1,0.1-1.1,0-2.9,0.7
			c0.1,0.4-0.9,0.7-1,0.9c0,0.4,1.9-0.4,2-0.9c0.7,0.3-0.1,1,1,0.9c1.2-0.4,2.8-0.8,4.7-1.4c8.2-2.8,0-0.8,0.2-1.3
			c-1.3,0-2-0.6-1-0.7c3.3,0.1,5.5-0.2,5.7-0.2c-0.1,0.5,1.9-0.3,5.6-1.5c3.2-1.2,7.4-2.7,9-3.8c0.7-0.5,0.9-1.4,1.2-1.5
			c0.4-0.1,0.7-0.3,0.8,0.1c-0.3,0.2,0,0.7,0.2,0.7c0.9-0.1,1-0.6,1.2-1.4c0.8,0.8,0.7-1.2,1.5-0.5c0.3,0.6-0.8,0.6-0.6,1.1
			c0.7,0.3,4.5-1,4.9-1.2c3.6-1.6,8.8-3.5,15-6.2c0.2-0.1,0.3-0.7-0.1-0.9c-0.6-0.3-1.3-0.7-0.8-1.3c0.2-0.3,0.3,0.2,0.4,0.5
			c0.1,0.3,0.5,0.6,1,0.6c0.9-0.5,1.1-0.9,1.2-1.2c0.1-0.2,0.5-0.3,0.6-0.2c0.2,0.1,0.3,0.3,0,0.7c-0.2,0.3-0.1,0.7,0.3,0.4
			c10.6-4.9,18.2-8.6,31-17.3c0.9-0.5,2.3-1.5,3.1-2c10-7.3,19-11.7,28-20.7c0.5-1.7-5.2,3.6-8.8,4.9c-0.7,0.2-2,1.1-2.3,1.8
			c-0.5,0.9-1.4,2-2.1,2.7c-4.7,3.5-5.3,3.7-9.4,6.9c-1.3,0.8-1.4,0.8-1.5,0.4c0-0.1,0.4-0.5,0.9-0.7c1.7-0.8,4.9-3.6,6.9-5.5
			c0.6-0.6,1.1-2.3-1.5-0.2c-0.9,0.8-4.6,4.2-6.5,5.2c-0.3,0.2-1.2-0.2-0.3-1.2c0.8-1,2.3-1.6,1.6-2.5c-0.1-0.1-0.1-0.8,0-1.2
			c0.4-0.8,0.8-1.8,1.7-0.8c-0.6,0.6,0.9,0.6,1,0c0.8-0.6,4.8-7,6.3-7.3c0.2,1.4-2.2,3.3-3.3,4.9c-0.5,0.8,0.7,1.2,1.1,0.9
			c2.2-1.6,3.6-2.3,5.1-5.4c0.2-0.3,0.9-1.9,1.1-1.3c0.1,0.3-0.5,1.2-0.8,2c-1,1.5,0.5,1,0.8,0.7c0.5-0.6,1.1-1.2,1.2-1.3
			c0.5-0.4,0.8-1.1,1.5-1.5c0.2-0.1,0.6-1,0.6-1.2c0-0.7,0.9-1,1.6-1.4c1.2,0.3,0.3,1.4-0.8,2.7c-0.5,0.6-0.7,1.4,0.2,0.7
			c1.7-1.2,4.6-3.5,8.6-6.7c3.4-3,5.5-4.2,6.5-5.2c0.5-0.4,1.2-0.7,1.8-1c0-0.5,1.1-1.3,2-1.9c0.4-0.3,0.4-0.6,0.2-0.6
			c-0.2,0-0.3-0.1-0.4-0.2c0.2-0.6,0.3-0.5,0.6-0.6c0.1,0,0.3-0.8,0.2-1c-0.7-1.3-2.2-0.3-2.9-0.1c-0.5,0.2-0.7,0.5-0.4,0.6
			c0.2,0,0.5,0.1,0.5,0.2c-0.8,0.7-1.2,0.9-1.7,1.3c-1.4,1.1-1-1.5-0.5-1.8c0.7-0.4,2-1.4,2.4-1.1c0.2,0.1,1.6-0.9,2.1-1
			c0.4-0.1,0.6-0.4,0.2-0.6c-0.7-1.8,2-3,3.3-4c0.4-0.3,0.5,0,0.2,0.4c-0.6,0.8-1.4,2-2,2.8c-0.2,0.3-0.4,1.5-0.4,2.6
			c0,0.8,0.5,0.9,0.7,0.5c0.3-0.6,0.7-1.1,1-0.9c0.4,0.5-1.1,0.9-0.1,1c-0.1,0.1-0.2,0.2-0.3,0.3c-1.6,1.7-1.1,2.4,0.2,1
			c1.3-1.8,3.2-3.8,3.8-4.4c0,0.3-0.2,0.7-0.3,1c-0.2,0.5,0.4,0,0.6-0.4c0.5-0.7,1.2-1.1,0.3-1.8c0.4-0.3,0.6-0.3,0.8-0.1
			c0.2,0.1,0.7-0.4,0.9-0.7c0.5-0.9,1.4-1.7,2.5-1.6c0.2-0.5,0.6-2.4,1.1-1.8c1.3,0.6-5.8,6.5-4.5,6.6c1.3-1.2,7.3-6.3,7.3-9.3
			c0.6-0.1,0.8,0.6,1.7,0.1c-0.6-0.9,0.8-0.8,1.1-0.6c-1.3-1,1.7-2.6,0.7-1.2c0.5,0.1-1,1.9,3.5-2.4c-0.1-1.6-0.3,0.2-0.8-0.4
			c-0.3-0.7,0.9-1.2,1-1.1c0.8,0.5,1.1,1,0.6,2c0.9-0.6-4.2,3.3-6.5,5.9c-0.7,0.7-0.6,1.2-0.1,0.8c2.6-2.4,9.2-8.2,11.5-9.9
			c2.3-2,15-13.3,31-15.8c5.2-0.8,10-0.8,15.5,2.9c2.7,1.8,5.1,5.2,6.8,7.7c3.1,4.4,5.3,9.5,9,14.7c6.1,7,10.3,4.7,16.2,3.5
			c1.5-0.4,3-0.9,4.3-1.2c0.8-0.2,0.9,0.5,0,0.8c-1.1,0.4-2.3,0.7-3.3,0.9c-1.4,0.4-1.1,0.8,0.1,0.6c3.9-0.6,10-2.6,12.7-4.1
			c0.6-0.3-0.6-0.8,0.6-1.8c0.3-0.2,0.7-0.5,1.2-0.8c1.1-0.8,5.6-2.8,0.9,1.3c-0.9,0.9-1.9,1.6-2.9,2.2c-1.1,0.6-1.9,1.3-0.5,1
			c4.2-0.8,12.5-3.1,22.3-9.5c3.6-2.6,7.2-5.5,9.3-7.2c1.2-0.9,2.4-1.8,2.5-2c0.4-0.4,0.1-0.9-0.4-1c-0.2,0-0.6,0.6-0.8,0.8
			c-0.2,0.3-0.7,0.6-1.2,0.9c-0.7,0.4-0.8-0.1-0.4-0.3c1.8-1.5,6.6-6,7.1-6.6c1.8-1.8,1.1-2.2,0.7-1.9c-1,0.7-8.5,6.9-8.9,7.2
			c-1.2,0.7-1.5,0.2-1.8-0.1c-0.8-1-0.7-2-0.2-2.5c0.9-0.8,5.2-3.7,5.6-4.1c3.1-2.5,8.5-6.7,7.9-7c-8.2,2.9-9.4-2.2-10.2-2.5
			c-1.6,4.2-5.6,8.4-6.8,10.4c-0.3,0.6-2.2,2.7-3.3,3.5c-4,2.9-11.1,7.9-11.6,8.1c-1.2,0.5-3.2,1.9-4.5,2.4
			c-2.2,0.9-4.9,1.7-7.4,2.6c-0.5,0.2-2.5,0.6-3.6,1.1c-0.5,0.2-1.4,0.2-1.7,0.2c-0.6,0-1.2,0.3-2,0.5c-0.5,0.1-3.1-0.1-0.1-0.8
			c1.3-0.3,3.9-0.9,8.4-2.2c0.3-0.1,0.7-0.7,0.5-0.7c-1-0.2-2.5,1.5-2.8,0.5c-0.3,0-0.2-0.3,0-0.6c0.1-0.2,0.9-0.4,1.2-0.4
			c1.7,0,5.4-0.1,5.3-1.1c-0.2-0.3-2.1,0-3.2,0.1c-0.5,0-0.3-0.4,0-0.5c1.7-0.4,2.3,0.4,4-0.6c-0.1-0.3-0.3-0.8,0-0.9
			c0.3,0.6,1.8-0.3,2.2-1c0.3-0.6-0.4-0.8-1.3-0.5c-0.4,0.2-0.7,0.3-0.9,0.4c-0.3,0.1-1.9,0.7-2.5,0.9c-3.6,1.3-15.3,6.2-19.5,6.4
			c-1.9,0.1-2.6-0.7-5.4-4.5c-3.6-4.7-6.4-12.3-12.5-19.2c-4.5-5-11.3-7.7-16.1-7.9c-8.3-0.5-9.9,0.3-10.6,0.7
			c0.4,0.7-0.3,1-0.5,0.5c-0.1-0.2-0.5-0.5-0.6-0.3c-0.2,0.5,0,1.3-0.9,1.3c-0.2-0.4,0.3-1.3-0.2-1.2c-1.6-0.1-5,0.2-6.1,1.3
			c-0.2,0.2,0,0.5,0.5,0.6c0.7,0.1,1.6,0.6,1.6,0.9c-1.4,0.6-3.2,0.1-3.2-0.2c-0.2-1-0.9-1-2.2-1c-1.5,0-10.4,4.7-15.5,8.2
			c-1.3,0.9-1,1,0.1,0.4c5.5-3.1,11.4-5.6,11.9-5c-0.1,0.7-1.4,1.3-2.5,1.8c-1.1,0.5-3,1-5,1.8c-2.6,1.1-5.8,2.6-7.6,4
			c-1.4,1.1-3.7,1.4-5.1,2.7c-1.9,1.4-0.6,3.1-2.7,2.6c-0.3,1.4-0.9,2.2-1.7,2.4c-0.4,0.1-0.6-0.5-0.3-0.9c0.3-0.4,0.7-1,1.2-1.8
			c0.2-0.4,0.2-0.8-0.1-0.5c-1.5,1.2-2.6,2.3-2.8,2.2c-0.3,1-0.6,0.8-2,1.2c-0.6,1-1.5,3-2.4,4.3c-0.9,1.1-1.4,1-1.7,0.7
			c-0.2-0.2,2.7-2.4,2.8-3.8c0-0.3-0.4-0.5-0.7-0.3c-1.8,1.8-5,4.6-6.2,5.8c-1.3,0.6,0.1-0.6-0.8-0.4c0.3,0.9-2.6,0.3-0.9,1.2
			c-0.9,0.7-1.5,1.2-2.1,2.1c-0.4-1-4.5,1.9-3,2.3c0.4-0.5,0.7-1,1-1.4c0.4-0.5,0.3,0.1,0.2,0.4c-0.3,0.5-0.3,1.2-0.8,1.7
			c-0.2,0.1-0.3,0-0.4-0.1c-0.1-0.1-0.5,0.3-0.6,0.5c-0.2,0.3-0.6,0.6,0,0.8c-0.7,0.4-1.4,0.7-2,2.1c-0.7,0.6-5.3,5.8-6,6.1
			c-1-0.1-2.9,0.4-4.3,1c-1.7,1.2-3.6,2.6-4.5,3.3c0.1,0.7,0.3-0.1,0.3,0.8c-0.4,0.1-0.3,0.5-0.8,0.6c-0.6-0.5,0.4-1.3-0.4-1.1
			c0.1,0.4-4.6,5.1-5.3,5.3c-0.2,0-0.1-0.4,0.1-0.6c1.1-0.8,1.9-2.1,3.1-2.7c0.3-0.1,0.6-0.8,0.6-1c0-0.6,1.5-1.4,2.4-1.9
			c0.7-0.4,1.6-1,2.6-1.7c0.7-0.7,1.5-1,2.5-1.4c1.2-0.9,8.6-8.2,7.5-8c-2.4,2.2-6.5,6.6-7.8,7.2c-0.1-0.3-0.5-0.4-0.9-0.4
			c-0.5,0.9-4.3,3.3-5.2,4c-0.6-1.2-1.4-0.4-1.7-0.1c0.1,0.5,0,0.7-0.2,0.6c-0.2-0.1-0.7,0-0.9,0.2c-0.6,0.9-6,5.4-6.4,6.1
			c-0.2,0.4-0.5-0.2-2.5,0.5c-0.2,0.9,0.8,1.2,0,2.1c-0.6,0.6-6.1,3.7-6.4,4.1c-1.1,1.4-2.2,2.6-3.7,4.7c-0.3,0.4-0.9,0.4-0.7-0.1
			c0.6-1.4,2.4-3.2,1.9-3.2c-0.8,0-2.2,0.9-2.6,1.8c-0.2,0.4-0.4,0.8-0.8,1.1c0.3,2.9-2.3,1.5-3.3,3.1c-2.6,2-4.3,3.2-5.3,3.8
			c-1,0.7-1.7,1.4-2.2,1.5c-0.5,0.1-0.8-0.4,0-1.1l1.6-0.8c0.8-0.6,6.4-4.5,7.4-5.4c1.2-0.9,1.8-2.1,1.6-2.2
			c-0.3-0.2-11.2,8.2-15,10.5c-0.6,0.4-1.7,1.3-1.9,1.7c-0.9-0.1-0.4-0.5-0.9-0.6c-0.9,0.7-1.7,1.5-2.6,2.3
			c-2.6,2.1-1.8,2.8-2.6,3.2c0.1-0.7-0.5-0.8-1.3-0.6c-0.3,0.1-0.3,0.4-0.1,0.5c0.7,0.3,0.1,0.8,0.3,1.7c-0.4-0.2-0.9-0.2-1.4-0.1
			c-0.5,0.1-0.9,1-1,1.2c-0.6,1.1-4,2.6-5.8,2.9c-0.4,0.1-0.5-0.4,0.1-0.8c1.3-0.8,3.5-1.9,3.8-2c0.4-0.1,0.9-0.1,1-0.3
			c0.2-0.2,0.3-0.3,0.3-0.3c0.5-0.6,1.3-2.7-1.5-1c-2.5,2.2-12,4.7-15.7,6.4c0,0.5-0.1,0.8-0.3,0.9c-0.2,0.1-0.7,0.4-0.9,0.6
			c-0.9,0.6-0.6-0.3-1.1-0.2c-1,0.5-4.9,1.8-7.2,2.8c-0.5,0.2-0.4,0.7,0.1,0.7c0.3,0,1.1,0.2,0.6,0.7c-0.6,0.4-1.9,0.3-2.2,0.2
			c0.2-0.7,0.9,0.1,0.8-0.6c-0.6-1.7-1.7-1.1-2.2-0.5c-0.7,0.7-1.3,1.8-1.8,2c-0.4,0.2-0.8,0.2-0.4-0.3c0.2-0.3,0.5-0.6,0.7-0.9
			c0.2-0.3-0.2-0.1-0.5,0c-2.1,0.8-2.6,1-3.5,1.2c-0.2,0.1-0.8,0.5-0.8,0.7c0.1,0.4,0.4,0.4,0.1,0.7c-0.7,0.2-2.7,0-4.4,1.5
			c-0.2,0.4-0.2,1.1-0.5,1.1c-0.3,0-0.7-0.1-0.9-0.1c-1.4,0-5.9,1.5-7.6,2.1c-3.7,1.2-9.3,3.6-17,5.7c-5.1,1.4-15,3.3-27.3,5.3
			c-18.2,2.5-32.7,3.5-50.3,4.8c-7.2,0.5-14.7-0.4-20.7,0.7c-4.7,1.3-12,0.8-17.7,0.8c-0.8,0-2.7-0.4-5.4-0.5c-1,0-1.7-0.3-2.1-0.6
			c-0.3-0.2-1.1-0.4-1.3-0.3c-0.6,0.2-1,0.5-1.2,0.5c-1-0.3-2.2-0.2-4.4-0.2c-6,0-9.9,1.9-10.5,4.6c-0.7,5.5,6.2,7.3,8.7,8.1
			c4.6,1.6,9.7,3.2,20,5.4c0.1,0,0.4,0.5,0.2,0.6c-0.5,0.2-1.5,0.3-2.5,0.3c-1.1,0-1.2,0.3-0.3,0.4c0.7,0.2,3,1,4.7,1.5
			c0.6,0.2,1.7-0.6,1.3-0.9c-0.8-0.4-2.2-1-2.2-1.2c0.1-0.4,1.6-0.2,3,0.7c1.7,1.1,3.7,1.4,4.8,0.9c0.2-0.1,0.8,0,1.2,0.2
			c1.2,0.7,3.6,1.5,3,2.2c-1.1-0.3-5.9-1.4-7.9-1.8c-1.9-0.2-1.8,0.3-0.8,0.8c0.2,0.5,2.1,1.2,2.5,1.1c0.2-0.4,1.7-1.1,1.9-0.3
			c-0.3,0.2-0.6,0.5-0.7,0.8c0.3,0,1.1,0.6,2.6,0.7c0.6-0.1,0.6-0.5,1.1-0.6c0.6,0.5-0.4,1.3,0.4,1.1c2.4-0.8,10.9,2,14.7,3.3
			c0.6,0.2,1.9,0.4,2.3,0.3c0.7-0.1,1.5-0.1,1.3,1c4.4,0.8,8.9,1.4,13.1,2.3c0.7,0.1,2.3,0.9,3.2,1c0.3,0,4.5,0,6-0.5
			c0.3-0.1,0.7-0.1,1,0.1c0.2,0.1,0.4,0.8-0.2,1.3c-0.9,0.5-2.5-0.2-2.9-0.2c-0.8-0.1-0.4,0.9,0.2,1c3.3,0.4,8.6,2.8,11.5,1.6
			c0.9,0.1,2.8,0.4,3.1,0.5c3.2-0.1,3.9-0.7,3.9-1.3c0-0.3-0.6-0.7-0.8-0.7c-1,0.1-2-0.1-3,0c-0.3,0-3-0.6-3.2-1.3
			c-0.2-0.3-2.8-1-2.8,0.6c0.6,0.6,1.4-0.7,1.6-0.2c-0.3,0.8-1.5,1-2.2,0.4c-0.5-0.7,0.4-0.7,0.2-1.3c-1.2,0.1-1.6,1.6-1.7,1
			c0.2-0.7-0.1-1.7-2.4-2.1c-2.9-0.2-6.3-1.2-8.7-1.3c-0.4,0-1.3-0.6-1.6-0.7c-0.5-0.1-0.5-0.7,0-0.8c1-0.1,2.3,0,3,0.4
			c0.3,0.2,8.9,1.8,13.1,2.6c2.2,0.1,5.3,0.7,5.6,1.1c0.3,0.3,0.6,1,1,0.8c0.3-0.1,0.5-0.2,0.8-0.4c0.2-0.1,3.8,0.9,4,0.9
			c0.2-0.1,2.3,0.8,2.7,0.8c1.8,0.2,3.2,0,4-0.2c0.4-0.1,1.1-0.1,1.3,0.1c0.2,0.2,0.5,0.3,0.8,0.3c4,0.1,14,0.5,19.2,1.4
			c1,0.2,7.4,0,8.2,0c0.4,0,4.5,1,19.9,1.9c0.6,0,2.4,0.6,2.4-0.7c-0.7-0.2-1.8-0.5-1.6-0.7c2.4,0.4,5.4-0.4,7.7-0.2
			c0.4,0,0.5,0.3,0,0.4c-1.2,0.2-3,0.6-3.7,0.9c-0.8,0-1.2,0.1-1.6,0.3c-0.4,0.3-0.3,0.9,0.3,0.9c2.5,0,8.3,0.4,11.1-0.5
			c0.8-0.2,2.7,0.2,3.3,0.2c1.1,0.1,2.8-0.3,4.3-0.3c0.5,0,0.7,0.4,0.1,0.5c-0.8,0-1.8,0.1-2.6,0.7c2.9,0.7,7.9-0.6,10.8-1.5
			c0-0.8,1.1-0.7,2-0.6c0.3,0,0.4,0.5,0.2,0.7c-1.1,0.9-3.6,1.1-5,1.2c-0.4,0-0.5,0.4-0.2,0.5c2.1,0.6,6.9-1,9.9-1.6
			c0.5-0.1,0.6-0.6,0.3-0.7c-1.1-0.3-2,0-2.7,0.2c-1.1,0.2-0.6-0.6-0.2-0.9c1.5-0.4,4.3-0.6,3.6-1.2c-0.1-0.1-0.2-0.3,0-0.3
			c1.3,0,2.3-0.7,3.6-0.5c0.3,0.1,0.2,0.5-0.2,0.6c-0.8,0.2-1.7,0.5-2.8,0.8c-0.6,0.2-1.1,0.6-0.1,0.6c5.7-0.3,21.5-2.1,24.8-2.7
			c0.8,0.6-4.4,1.4-7.5,1.8c-1.3,0.2-1.1,0.5,0,0.5c1.8,0,4.6-0.2,7.8-1.1C397.7,153,450.5,143.6,460.2,140.4z M508.1,122.1
			c0.6-0.2,0.8,0.1,0.2,0.4c-0.9,0.5-1.6,0.8-2.2,1C505.9,122.6,506.9,122.4,508.1,122.1z M483.8,131.1c1.6-0.7,3.5-0.6,5.2-1.7
			c1.3-0.7,0.9,0.4,0.8,0.5c-0.2,0.3-0.5,0.5-0.8,0.6c-0.3,0.1-0.6,1-1.3,0.5c-0.2-0.1-1.1,0-1.2,0.1c-1.8,0.4-1.8,0.2-2.6,0.4
			C483.6,131.4,483.5,131.2,483.8,131.1z M468.9,136.4c-0.5,0.3-1.8,1-2.7,1.2C463.7,137.6,468.6,135,468.9,136.4z M449.9,139.7
			c1.7-0.6,4.9-1.5,5.4-1.1c0.3,0.5-1.3,0.9-1.9,1.1c-1.3,0.3-2.6,0.4-3.5,0.5C449.4,140.1,449.1,140,449.9,139.7z M440.4,141.4
			c2.1-0.3,4.5-1.1,6.6-1.4c0.3-0.1,0.2,0.4-0.2,0.5c-1,0.3-4.9,1.5-6.4,1.3C440.2,141.8,440.2,141.5,440.4,141.4z M404.4,148.1
			c4.2-1.7,16.6-3.1,20.8-3.6c0.6-0.1,0.9,0.2,0.1,0.4c-2.5,0.6-8,1-9.2,1.2c-1.8,0.3-3.4,1.5-4.6,1.4c0,0-0.2-0.5-0.5-0.3
			c-0.9,0.6-2.4,1.6-2.6,0.6c0-0.1-0.3-0.3-0.3-0.2c-0.1,0.2-0.5,0.5-0.7,0.4c-1-0.2-1.7,0.1-2.9,0.4
			C403.8,148.7,403.7,148.4,404.4,148.1z M596.8,28c1.2-1.2,2.8-2.5,3.9-3.4c0.5-0.4,2.1-1.3,2.8-1.4c0.7-0.1,1.3-0.1,1.1,0.1
			c-0.9,1-5.5,4-8.1,6C595.3,30.1,595.2,29.5,596.8,28z M555.4,33.8c0.1-1.3,1.4,0.6,1.4-0.7c1.9-0.2,2.8-0.4,6.6,0.7
			c0.3,0.1,0.4,0.5-0.1,0.5c-0.6,0-1.2-0.1-1.8-0.1c-0.4,0-1.9-0.1-2.9,0.3C556.4,35,554.1,34,555.4,33.8z M545.8,31.9
			c0.6,0.3,1.2,0.9,1.7,1.4c4.6,4.7,9.9,4.5,13.1,3.7c0.5-0.1,1.8,0.1,1.2,0.4c-1.9,1.1-7.1,1.6-9.1,1.3c-4-0.1-6.4-4.4-7.4-6
			C545,32.2,545.5,31.7,545.8,31.9z M474.3,20.7c1.5-1.7,3.7-3.7,4.2-4c0.6,0.7-6,6.6-5.6,6.2C472.4,22.9,473.2,21.9,474.3,20.7z
			 M472.3,30.9c-0.2,0.3-1.1,2.2-0.9,2.7c-0.2,1.1-0.3-1.1-1.1-0.3c0,0.1-0.5,0.6-1,1c-0.5,0.5-0.9,0.6-0.3-0.3
			C469.9,32.7,471.3,30.9,472.3,30.9z M470.3,22.8c0.2-0.4-3.4,3.9-3.6,3.8C465.6,26.4,469.7,22.5,470.3,22.8z M459.7,29.6
			c0.6-0.5,2.2-1.5,2.3-1.6c0.6-0.4,0.3-1.2,1.6-1.3c-0.2,0.8-1,1.3-1.4,1.9c0.6,0.5-0.2,0.7-0.7,0.8c-0.1-0.3-3.1,4.1-5.8,4.5
			C455.5,33.3,457.9,31.1,459.7,29.6z M448.3,51.3c1.2-1.4,4.1-3.8,4.3-3.6c0.8,0.2-2.3,2.8-3.7,4.2C448.5,52.4,447.8,52,448.3,51.3
			z M437.1,57.3c1.2-1.9,3.4-3.4,4-4.1c0.7-0.2,1.5-0.7,1.6,0c-0.3,0.1-3.6,3-5.3,4.6C436.8,58.5,436.7,57.9,437.1,57.3z
			 M426.5,57.8c1.4-1.5,3.7-3.5,5.1-4.5c0.5-0.4,0.7-0.2,0.4,0.2c-1.1,1.1-3.1,3.1-4.6,4.5C426.4,58.9,425.6,58.8,426.5,57.8z
			 M405.3,78.6c1.1-1.2,4.1-3.1,4.7-3.6c1.2-0.9,3.1-2.5,4.4-3.4c0.8-0.5,3.4-2,1.5,0.1c-2.2,3.7-7.3,5.9-10.2,7.5
			C404.6,79.7,404.3,79.7,405.3,78.6z M399.3,80.8c0,0.8-8.8,7.9-9.3,6.8C390.1,85.7,398.5,81.3,399.3,80.8z M371.2,93.5
			c2.6-1.5,8.1-4.5,8.8-4.7c0.5,0.8-2.7,2.6-4.1,3.6c-2.2,1.1-3.7,1.7-4.7,1.9C370.4,94.5,370.3,94.1,371.2,93.5z M378.8,91.8
			c0.4-0.2,0.6,0.1,0.1,0.5c-2.2,1.8-9.1,5-9.8,5.3C369,96.9,376.4,93.1,378.8,91.8z M350.5,108.5c1.9-0.6,12.9-4.8,18.1-6.8
			c1.6-0.6,1.7-0.3,0,0.4c-6.4,3-20.9,9-21.8,9.4c-0.8,0.1-3.1,1-4.1,1C341.4,112.4,348.7,109.5,350.5,108.5z M200.5,120.8
			c-2.7-0.1-8.2-0.9-10.8-1.3c-0.8-0.1-0.8-0.4,0.1-0.4c2.7,0,8.3,0.5,10.8,1C201.4,120.3,201.2,120.8,200.5,120.8z M241.1,128.2
			c4-1.4,26.8-2.3,34.6-2.3c1.9,0,1.1,0.5-0.4,0.7c-6.3,0.9-20.5,2.3-26,3.1C242.7,130.7,239.9,128.6,241.1,128.2z M218.9,138.7
			c-0.7,0.3-2.3-0.7-2.9-1.3c-1-0.6-2.9-1.2-3-1.6c0.5-0.2,6,2.2,6.5,2C219.3,138.5,218.6,137.9,218.9,138.7z M246.1,145.9
			c-0.2,0-1.8-0.2-2.4-0.4c-5.2-1.6-13.9-3.3-16.8-4.1c-0.6-0.1-1-0.3-1-0.3c-0.3,0.1-0.6,0.2-0.9,0.2c-1.1,0-2.1-0.7-3.1-0.9
			c-0.6-0.1-2.3-1-2-1.4c0.2-0.2,2.4,0.3,2.8,0.4c8.2,2.2,17.2,4.3,24.8,6C247.5,146.1,246.8,145.9,246.1,145.9z M255.1,140.7
			c2.9,0.2,8.5,1.6,11.3,2.2c1.4,0.3,1.1,0.8-0.4,0.5c-2.8-0.5-5.6-1-8.4-1.4C254.2,141.5,254.2,140.6,255.1,140.7z M262.3,146.9
			c0.3-1.2,7.9,0.7,8.8,0.6C271.1,148.7,262.9,146.9,262.3,146.9z M272.5,142c-2.6-0.2-8.9-1.2-13.2-1.8c-0.8-0.1-0.6-0.5,0.3-0.4
			c1.9,0.2,4.1,0.7,5.8,0.5c0.3,0,1.9-0.2,2.6-0.1C270.2,140.3,273,140.7,272.5,142z M295,140.9c0.6,0.1,1.1,0.2,1.2,0.3
			c0,0,0,0.1,0,0.1c-0.2-0.1-0.6-0.1-1.2,0c-1.1,0-2.5,0.2-3,0.2c-0.7,0.1-1.8-0.1-1.9-0.2c-0.2-0.2-0.4-0.3-0.3-0.4
			C289.8,140.7,293.2,140.7,295,140.9z M297.1,144c-4.8,0.3-7.3-0.2-9.1-0.7c-1.2-0.3-1.5-0.8,0-0.8c2.9,0,6.9,0.1,9.4,0.6
			C298.2,143.4,297.8,144,297.1,144z M333.9,145c-0.5,0-2.2,0.1-2.7,0.2c-1.2,0.1-4.4-0.6-6-0.7c-1-0.1-1.2-0.3,0-0.4
			c5.5-0.2,18.7,0.3,20.8,0.9C344.5,145.6,339.1,145.3,333.9,145z M379.3,142.3c1.4-0.2,3-0.5,4.1-0.7c0.5-0.1,1.6,0.2,1.2,0.3
			c-0.8,0.3-5.1,0.9-5.4,1C378.9,142.9,378.9,142.4,379.3,142.3z M384.2,143.7c-1,0.4-2.6,0.4-2.6-0.5c0.9-0.1,1.8,0.1,2.5,0
			C384.5,143.1,384.8,143.4,384.2,143.7z M350.8,145.9c-0.7,0.2-1.2,0.2-1.9,0.3c-0.4,0-1-0.1-0.4-0.4c1-0.5,2.4-1,2.5-1.1
			c0.2-0.2,0.4-0.5-0.8-0.3c-0.6,0.2-1.4,0-1.1-0.2c1.5-1,3.7,0,5.6-0.3c0.2,0.8-1.3,0.7-1.8,0.6c-1.1,0.6,2,0.7,3,0.6
			c0.6-0.1,1.1,0.2,0.3,0.4c-0.9,0.2-1.8,0.3-2.6,0.3C352.8,145.8,351.1,145.8,350.8,145.9z M356.8,155.1c-1.4,0.3-3.9,0.5-4.5,0.2
			c0.6-0.6,2.9-0.5,4.5-0.5C357.2,154.8,357.3,155,356.8,155.1z M362.2,154.9c-1.4,0.3-4.4,0.7-4.3,0.2c0.3-1,4-0.6,5.3-0.8
			C363.7,154.3,363.3,154.6,362.2,154.9z M377.2,143.7c-2.1,1.1-16.1,1.1-19,0.5c-0.8-0.2-0.7-0.6,0.1-0.6c2.8-0.2,9.3-0.4,11.7-0.7
			C376.2,142.3,378.3,143.2,377.2,143.7z M379.1,151.3c-0.6,0-0.7-0.3,0-0.5c2.6-0.7,8.9-1.6,9.2-0.7
			C386.5,151.5,381.5,151.3,379.1,151.3z M392.2,143.8c-0.8,0.2-1.8-0.8-1.8-1c-1.6-0.2-2.2,0.4-4,0.5c-0.3,0-0.5-0.4-0.3-0.5
			c0.3-0.2-0.3-0.4-0.7-1c0.1-1,1.1,0.4,3.4,0c-0.2-0.5,0.5-1.2,1.5-1.5c0.3-0.1,0.7,0.2,0.6,0.5c-0.1,0.2-0.1,0.4,0.2,0.4
			c0.9,0,3-0.8,3.6-0.9c1.6-0.2,3.3-0.9,4.8-1.2c0.5-0.1,0.7,0.3,0.2,0.5c-1.6,0.6-3.1,1.3-4.8,1.5c-0.5,0.1-0.8,0.3-0.1,0.4
			c0.9,0.1,1.5-0.3,2.3-0.3c0.5,0,0.6,0.3,0.2,0.4C395.4,142.2,392,142.7,392.2,143.8z M393,144.3c-0.1-0.8,3.7-1.1,5.5-1.4
			c0.6-0.1,1,0.1,0.4,0.3C397.5,143.8,392.7,145.1,393,144.3z"/>
		<path class="st0" d="M473.6,136.1c-0.9,0.5-0.5,0.7,0.3,0.5c1.5-0.2,4-0.5,6.7-1.9c0.5-0.2,0.5-0.8,0.1-0.7
			C477.6,134.3,475,135.3,473.6,136.1z"/>
		<path class="st0" d="M497.3,126.9c-0.7-0.1-1.6,0.1-2.2,0.4c-0.4,0.2-2.4,1.6-2.2,2.5c-0.5,1,2.7-1.9,4.4-2.4
			C497.6,127.2,497.7,126.9,497.3,126.9z"/>
		<path class="st0" d="M489.3,131.9c-0.3,0.2-0.2,0.6,0.1,0.5c0.8-0.3,2.7-1.1,3.2-1.5c0.2-0.2,0-0.4-0.2-0.3
			C491.7,130.8,489.9,131.5,489.3,131.9z"/>
		<path class="st0" d="M503.4,127.8c0.8-0.1,8.9-3.4,11.5-5.7c0.4-0.3,0.3-0.7-0.1-0.5C512.1,123,503.6,127.1,503.4,127.8z"/>
		<path class="st0" d="M445,57c-0.8,0.7-2.6,2.3-3,2.9c0.8,0.1,2.8-1.3,3.4-2.2C445.8,57.2,445.4,56.6,445,57z"/>
		<path class="st0" d="M414,136.1c-0.8,0.2-0.5,0.3,0.2,0.3c5.2-0.5,12.2-2.5,17.6-3.6c1.1-0.2,1-0.6,0-0.5
			c-5.4,0.5-11.3,2.6-16.6,3.6C415,135.9,414.5,136,414,136.1z"/>
		<path class="st0" d="M456.1,129.9c0.2-0.4-0.3-1.2-1.6-0.5c-1.3,0.7-3.9,1.1-4.4,1.1c-0.6,0-0.4,0.8,0.4,0.6
			C451.4,130.9,455.8,130.3,456.1,129.9z"/>
	</g>
	<g>
		<g>
			<rect id="XMLID_4952_" x="60.4" y="380.7" class="st1" width="656.9" height="116"/>
			<linearGradient id="XMLID_2_" gradientUnits="userSpaceOnUse" x1="60.426" y1="381.9193" x2="717.3344" y2="381.9193">
				<stop  offset="0" style="stop-color:#D3B376"/>
				<stop  offset="1.046100e-002" style="stop-color:#D5B57A"/>
				<stop  offset="9.413839e-002" style="stop-color:#E5CC9B"/>
				<stop  offset="0.1707" style="stop-color:#F1DEB7"/>
				<stop  offset="0.2371" style="stop-color:#FBEBC9"/>
				<stop  offset="0.2857" style="stop-color:#FFF1D0"/>
				<stop  offset="0.8279" style="stop-color:#C8AC71"/>
				<stop  offset="0.8626" style="stop-color:#C5A96B"/>
			</linearGradient>
			<polygon id="XMLID_4947_" class="st2" points="60.4,385.6 60.4,378.2 717.3,378.2 717.3,385.6 60.4,385.6 			"/>
			<linearGradient id="XMLID_3_" gradientUnits="userSpaceOnUse" x1="60.426" y1="496.765" x2="717.3344" y2="496.765">
				<stop  offset="0" style="stop-color:#D3B376"/>
				<stop  offset="1.046100e-002" style="stop-color:#D5B57A"/>
				<stop  offset="9.413839e-002" style="stop-color:#E5CC9B"/>
				<stop  offset="0.1707" style="stop-color:#F1DEB7"/>
				<stop  offset="0.2371" style="stop-color:#FBEBC9"/>
				<stop  offset="0.2857" style="stop-color:#FFF1D0"/>
				<stop  offset="0.8279" style="stop-color:#C8AC71"/>
				<stop  offset="0.8626" style="stop-color:#C5A96B"/>
			</linearGradient>
			<polygon id="XMLID_4946_" class="st3" points="60.4,500.5 60.4,493.1 717.3,493.1 717.3,500.5 60.4,500.5 			"/>
		</g>
		<g>
			<path id="XMLID_251_" class="st4" d="M256.8,419.3h26.7v-13.7h-5.8v10.1H251V431h5.8V419.3z M203.5,412.9
				c-1.9-1.5-3.9-2.8-6.1-3.8c0.1,0.1,0.2,0.2,0.4,0.3c7.1,5.7,11.6,14.7,11.6,27.8c0,14.1-4.8,23.9-11.3,29.9
				c-7.2,6.5-18.3,9.5-31.7,9.5c-4.7,0-8.6-0.2-11.8-0.5v2.9c3.8,0.6,9.6,1.1,17.6,1.1c13.4,0,24.5-3.1,31.7-9.5
				c6.5-6,11.3-15.8,11.3-29.9C215,427.6,210.6,418.6,203.5,412.9z M256.8,448.2H282v-13.6h-5.8v10H251v17.5h5.8V448.2z
				 M279.1,475.8h-37.7v3.6h43.5v-13.7h-5.8V475.8z M533.5,432.3c0.3-1.2,0.6-2.4,0.8-3.8c-1.1-4.4-2.3-9.8-3.3-14h-0.3
				c-0.9,4.4-2,10-3,14.2l-4.2,15.7h6.7L533.5,432.3z M327.1,405.6h-5.8v56.2h5.8V405.6z M443.7,426.5l0.8-1.3v-19.6h-5.8v29.1h0.2
				C440.5,431.8,442.1,429.1,443.7,426.5z M170,463.5v-45c1.3-0.3,3.6-0.6,7-0.6c3.3,0,6.3,0.5,9,1.5c-3.7-3.3-8.7-5.1-14.8-5.1
				c-3.3,0-5.7,0.3-7,0.7v48.3c1.3,0.3,3.6,0.3,5.4,0.3C169.7,463.5,169.8,463.5,170,463.5z M542.7,405.6l20.3,70.3h-11.8l1,3.6
				h16.6l-21.3-73.8H542.7z M521.3,456.9l-4.8,18.9h-9.2l-1,3.6h16l4.8-18.9H542l-1-3.6H521.3z M582.7,419.6h12.7V416h-12.7V419.6z
				 M629.5,405.6V416h-18.7v59.8h-9.6v3.6h15.4v-59.8h18.7v-14H629.5z M484,405.6h-8.4l-20.1,27.9l23.8,42.4h-14.1l1.9,3.6h18
				L461.4,437L484,405.6z M348.5,475.8h-36.8v3.6h42.6v-14h-5.8V475.8z M391.6,475.8H382v3.6h15.4v-73.8h-5.8V475.8z M438.8,451.7
				v24.1h-9.5v3.6h15.3v-24.1l3.5-4.7l-3.5-6.7L438.8,451.7z"/>
			<path id="XMLID_268_" class="st5" d="M197.7,409.3c-6.5-5.3-15-7.9-28.1-7.9c-7.7,0-15.1,0.5-20.8,1.6v72.4
				c3.7,0.6,9.5,1.1,17.6,1.1c13.4,0,24.5-3.1,31.7-9.5c6.5-6,11.3-15.8,11.3-29.9C209.2,424,204.8,415,197.7,409.3z M169.5,463.5
				c-1.8,0-4,0-5.4-0.3v-48.3c1.3-0.3,3.7-0.7,7-0.7c13.4,0,21.7,8.1,21.7,23.5C192.9,455.3,183.6,463.7,169.5,463.5z M251,444.6
				h25.2V431H251v-15.3h26.7V402h-42.1v73.8h43.5v-13.7H251V444.6z M321.3,402h-15.4v73.8h42.6v-14h-27.2V402z M376.2,475.8h15.4
				V402h-15.4V475.8z M478.2,402h-19.1l-15.4,24.5c-1.6,2.6-3.2,5.3-4.8,8.1h-0.2V402h-15.3v73.8h15.3v-24.1l5.8-7.8l16.8,31.9h18
				l-23.8-42.4L478.2,402z M521.4,402l-20.9,73.8h16l4.8-18.9H541l5.3,18.9H563L541.6,402H521.4z M523.6,444.4l4.2-15.7
				c1-4.3,2.1-9.9,3-14.2h0.3c1,4.3,2.2,9.9,3.4,14.2l4.2,15.7H523.6z M576.9,402v14h18.5v59.8h15.4V416h18.7v-14H576.9z"/>
		</g>
	</g>
</g>
</svg>
