<?xml version="1.0" encoding="utf-8"?>
<!-- Generator: Adobe Illustrator 18.0.0, SVG Export Plug-In . SVG Version: 6.00 Build 0)  -->
<!DOCTYPE svg PUBLIC "-//W3C//DTD SVG 1.1//EN" "http://www.w3.org/Graphics/SVG/1.1/DTD/svg11.dtd">
<svg version="1.1" id="Capa_1" xmlns="http://www.w3.org/2000/svg" xmlns:xlink="http://www.w3.org/1999/xlink" x="0px" y="0px"
	 viewBox="57.1 4.5 14.5 14.1" enable-background="new 57.1 4.5 14.5 14.1" xml:space="preserve">
<g>
	<g>
		<path d="M68.2,9.3c-0.2,0-0.4,0-0.6,0C67.7,8.7,68,7.7,68,6.7s-0.6-2.1-2.3-2.1c-0.1,0-0.2,0-0.3,0c-0.2,0-0.4,0.2-0.5,0.4
			c0,0-1.2,3.2-1.9,4.2c-0.4,0.6-1.6,1.1-2.2,1.3c-0.1-0.1-0.2-0.1-0.3-0.1h-2.9c-0.3,0-0.6,0.3-0.6,0.6v6.7c0,0.3,0.2,0.5,0.6,0.5
			l3,0l0,0c0.3,0,0.6-0.2,0.6-0.5c0-0.1,0-0.2-0.1-0.3c0.3,0,0.7-0.1,1.1-0.1c0.1,0,0.2,0,0.2,0c0.2,0,0.3,0.1,0.6,0.3
			c0.3,0.2,0.6,0.5,1.2,0.7c0.4,0.2,1.1,0.3,2.1,0.3c1.2,0,2.5-0.2,3.1-0.3c1.5-0.3,1.8-2,2-3.3c0-0.1,0-0.2,0-0.3
			c0.2-1.3,0.5-2.9-0.5-4.4C70.3,9.7,69.4,9.3,68.2,9.3z M58.2,11.5h1.9v5.3c0,0.1,0,0.2,0.1,0.2l-2,0V11.5z M70.2,14.6
			c0,0.1,0,0.2,0,0.3c-0.2,1.5-0.5,2.3-1.1,2.4c-0.5,0.1-1.7,0.2-2.9,0.2c-1,0-1.4-0.1-1.6-0.2c-0.4-0.2-0.7-0.4-0.9-0.6
			c-0.3-0.3-0.6-0.5-1.1-0.5c-0.3,0-0.9,0-1.3,0v-4.7c0.7-0.2,2.1-0.8,2.7-1.8c0.6-0.9,1.5-3.2,1.8-4.1c0.2,0,0.4,0.1,0.6,0.2
			c0.2,0.1,0.4,0.3,0.4,0.8c0,1.7-0.6,3.1-0.6,3.1c-0.1,0.2,0,0.4,0.1,0.6c0.1,0.2,0.4,0.2,0.6,0.2c0,0,0.6-0.2,1.3-0.2
			c0.6,0,1.4,0.1,1.7,0.6C70.7,12.2,70.5,13.3,70.2,14.6z"/>
	</g>
</g>
</svg>
