<?xml version="1.0" encoding="utf-8"?>
<!DOCTYPE svg PUBLIC "-//W3C//DTD SVG 1.1//EN" "http://www.w3.org/Graphics/SVG/1.1/DTD/svg11.dtd">
<svg version="1.1" baseProfile="full"
 xmlns="http://www.w3.org/2000/svg"
 xmlns:xlink="http://www.w3.org/1999/xlink"
 xmlns:ev="http://www.w3.org/2001/xml-events" 
  height="18px" 
  width="18px" 
>
<path fill="rgb( 51, 51, 51 )"
 d="M17.485,16.071 C17.485,16.071 16.071,17.485 16.071,17.485 C16.071,17.485 9,10.414 9,10.414 C9,10.414 1.929,17.485 1.929,17.485 C1.929,17.485 0.515,16.071 0.515,16.071 C0.515,16.071 7.586,9 7.586,9 C7.586,9 0.515,1.929 0.515,1.929 C0.515,1.929 1.929,0.515 1.929,0.515 C1.929,0.515 9,7.586 9,7.586 C9,7.586 16.071,0.515 16.071,0.515 C16.071,0.515 17.485,1.929 17.485,1.929 C17.485,1.929 10.414,9 10.414,9 C10.414,9 17.485,16.071 17.485,16.071 Z "/>
</svg>
