<?xml version="1.0" encoding="utf-8"?>
<!DOCTYPE svg PUBLIC "-//W3C//DTD SVG 1.1//EN" "http://www.w3.org/Graphics/SVG/1.1/DTD/svg11.dtd">
<svg version="1.1" baseProfile="full"
 xmlns="http://www.w3.org/2000/svg"
 xmlns:xlink="http://www.w3.org/1999/xlink"
 xmlns:ev="http://www.w3.org/2001/xml-events" 
  height="16px" 
  width="17px" 
>
<path opacity="0.702" fill="rgb( 255, 255, 255 )"
 d="M0.03599999999994,15.2 C0.69100000000003,13.948 1.41899999999998,12.23 1.38099999999997,11.032 C0.49900000000002,10.009 0,8.69200000000001 0,7.35000000000002 C0,3.56599999999997 3.82100000000003,0.80000000000001 8.10000000000002,0.80000000000001 C12.352,0.80000000000001 16.2,3.54500000000002 16.2,7.35000000000002 C16.2,11.311 11.6559999999999,15.011 5.42100000000005,13.54 C4.28899999999999,14.213 1.79200000000003,14.892 0.03599999999994,15.2 ZM8.10000000000002,2.315 C4.50300000000004,2.315 1.577,4.57400000000001 1.577,7.35000000000002 C1.577,8.81099999999998 2.23400000000004,9.73000000000002 3.15999999999997,10.638 C2.97199999999998,11.984 2.51999999999998,13.155 2.51999999999998,13.155 C2.51999999999998,13.155 3.85699999999997,12.815 5.37599999999998,11.963 C11.187,13.443 14.623,10.222 14.623,7.35000000000002 C14.623,4.57400000000001 11.697,2.315 8.10000000000002,2.315 Z "/>
</svg>
