<?xml version="1.0" encoding="utf-8"?>
<!DOCTYPE svg PUBLIC "-//W3C//DTD SVG 1.1//EN" "http://www.w3.org/Graphics/SVG/1.1/DTD/svg11.dtd">
<svg version="1.1" baseProfile="full"
 xmlns="http://www.w3.org/2000/svg"
 xmlns:xlink="http://www.w3.org/1999/xlink"
 xmlns:ev="http://www.w3.org/2001/xml-events" 
  height="18px" 
  width="19px" 
>
<path fill="rgb( 140, 140, 140 )"
 d="M0.69199999999999,7.45700000000011 C0.69199999999999,7.45700000000011 4.27,7.45700000000011 4.27,7.45700000000011 C4.42,7.45700000000011 4.547,7.50399999999991 4.66200000000001,7.57500000000005 C5.47,7.31400000000008 6.92400000000001,6.69599999999991 7.40900000000001,5.8889999999999 C8.205,4.55899999999997 9.729,0.49900000000002 9.73999999999999,0.46299999999997 C9.83199999999999,0.21399999999994 10.052,0.04700000000003 10.306,0.01199999999994 C10.329,0.01199999999994 10.456,0 10.64,0 C12.741,0 13.491,1.41300000000001 13.491,2.73099999999999 C13.491,4.04899999999998 13.237,5.27099999999996 12.995,6.11400000000003 C13.237,6.09099999999989 13.502,6.07899999999995 13.779,6.07899999999995 C15.28,6.06700000000001 16.422,6.56600000000003 17.057,7.49199999999996 C18.361,9.41599999999994 18.026,11.375 17.726,13.096 C17.703,13.2149999999999 17.68,13.3340000000001 17.669,13.452 C17.391,15.0909999999999 17.011,17.3240000000001 15.164,17.6559999999999 C14.449,17.7860000000001 12.845,17.999 11.344,17.999 C10.167,17.999 9.313,17.8699999999999 8.759,17.596 C8.09,17.2760000000001 7.663,16.931 7.31699999999999,16.6579999999999 C6.982,16.3969999999999 6.81999999999999,16.278 6.624,16.2550000000001 C6.544,16.2429999999999 6.45099999999999,16.2429999999999 6.336,16.2429999999999 C5.92700000000001,16.2429999999999 5.432,16.2919999999999 5.077,16.336 C5.041,16.3409999999999 5.00700000000001,16.345 4.974,16.3499999999999 C4.974,16.3499999999999 4.974,16.3499999999999 4.974,16.3499999999999 C4.974,16.3499999999999 4.974,16.3499999999999 4.974,16.3499999999999 C5.00700000000001,16.345 5.041,16.3409999999999 5.077,16.337 C5.077,16.337 5.077,16.6389999999999 5.077,16.6389999999999 C5.077,16.6389999999999 5.07299999999999,16.6389999999999 5.07299999999999,16.6389999999999 C5.07599999999999,16.6690000000001 5.078,16.6990000000001 5.078,16.729 C5.078,17.1210000000001 4.76600000000001,17.431 4.38500000000001,17.431 C4.38500000000001,17.431 0.69199999999999,17.4179999999999 0.69199999999999,17.4179999999999 C0.312,17.4179999999999 0,17.1099999999999 0,16.7180000000001 C0,16.7180000000001 0,8.1690000000001 0,8.1690000000001 C0,7.77700000000004 0.312,7.45700000000011 0.69199999999999,7.45700000000011 ZM5.17,14.8889999999999 C5.678,14.8299999999999 6.336,14.7940000000001 6.751,14.8299999999999 C7.351,14.8889999999999 7.744,15.1980000000001 8.148,15.53 C8.44799999999999,15.768 8.794,16.0409999999999 9.325,16.3019999999999 C9.532,16.3969999999999 10.063,16.5740000000001 11.321,16.5740000000001 C12.729,16.5740000000001 14.229,16.3720000000001 14.899,16.2550000000001 C15.649,16.124 15.961,15.0799999999999 16.272,13.2149999999999 C16.295,13.096 16.318,12.9770000000001 16.33,12.8579999999999 C16.63,11.2560000000001 16.895,9.74800000000005 15.914,8.31099999999992 C15.453,7.63400000000001 14.495,7.49199999999996 13.756,7.49199999999996 C12.879,7.49199999999996 12.117,7.69399999999996 12.106,7.69399999999996 C11.852,7.7650000000001 11.575,7.68200000000002 11.402,7.46800000000007 C11.229,7.26700000000005 11.183,6.96900000000005 11.287,6.72000000000003 C11.298,6.69599999999991 12.071,4.83200000000011 12.071,2.71900000000005 C12.071,2.01900000000001 11.783,1.76800000000003 11.575,1.6389999999999 C11.333,1.49600000000009 11.056,1.43599999999992 10.837,1.42499999999995 C10.398,2.55199999999991 9.267,5.45000000000005 8.563,6.62599999999998 C7.825,7.87200000000007 6.06999999999999,8.596 5.17,8.89400000000001 C5.17,8.89400000000001 5.17,14.8889999999999 5.17,14.8889999999999 ZM1.373,16.0050000000001 C1.373,16.0050000000001 3.797,16.0170000000001 3.797,16.0170000000001 C3.797,16.0170000000001 3.797,8.88100000000009 3.797,8.88100000000009 C3.797,8.88100000000009 1.373,8.88100000000009 1.373,8.88100000000009 C1.373,8.88100000000009 1.373,16.0050000000001 1.373,16.0050000000001 Z "/>
</svg>
