<?xml version="1.0" encoding="utf-8"?>
<!DOCTYPE svg PUBLIC "-//W3C//DTD SVG 1.1//EN" "http://www.w3.org/Graphics/SVG/1.1/DTD/svg11.dtd">
<svg version="1.1" baseProfile="full"
 xmlns="http://www.w3.org/2000/svg"
 xmlns:xlink="http://www.w3.org/1999/xlink"
 xmlns:ev="http://www.w3.org/2001/xml-events" 
  height="32px" 
  width="31px" 
>
<path fill="rgb( 177, 177, 177 )"
 d="M19.929,29.1329999999998 C12.341,31.1669999999999 4.48599999999999,26.5430000000001 2.41800000000001,18.826 C0.351,11.1089999999999 4.84199999999998,3.17700000000013 12.429,1.14399999999978 C14.9450000000001,0.4699999999998 17.593,0.50799999999981 20.088,1.25199999999995 C20.776,1.45800000000008 21.175,2.19000000000005 20.979,2.88599999999997 C20.7809999999999,3.58399999999983 20.064,3.98199999999997 19.375,3.77599999999984 C17.336,3.16699999999992 15.17,3.13700000000017 13.111,3.68899999999985 C6.90300000000002,5.35199999999986 3.22900000000004,11.8420000000001 4.91999999999996,18.1559999999999 C6.61199999999997,24.4690000000001 13.039,28.252 19.247,26.5889999999999 C24.131,25.2800000000002 27.583,20.9589999999998 27.837,15.8359999999998 C27.873,15.1100000000001 28.482,14.558 29.197,14.5999999999999 C29.912,14.6419999999998 30.463,15.2649999999999 30.427,15.991 C30.117,22.2530000000002 25.898,27.5340000000001 19.929,29.1329999999998 Z "/>
</svg>
