<?xml version="1.0" encoding="utf-8"?>
<!-- Generator: Adobe Illustrator 18.0.0, SVG Export Plug-In . SVG Version: 6.00 Build 0)  -->
<!DOCTYPE svg PUBLIC "-//W3C//DTD SVG 1.1//EN" "http://www.w3.org/Graphics/SVG/1.1/DTD/svg11.dtd">
<svg version="1.1" id="Слой_1" xmlns="http://www.w3.org/2000/svg" xmlns:xlink="http://www.w3.org/1999/xlink" x="0px" y="0px"
	 viewBox="50 65.4 412 381.3" enable-background="new 50 65.4 412 381.3" xml:space="preserve">
<path id="speech-bubble-2-icon" d="M50.9,446.6c16.7-33.1,35.2-78.6,34.2-110.4c-22.5-27.1-35.1-62-35.1-97.5
	c0-100.2,97.2-173.4,206-173.4c108.1,0,206,72.7,206,173.4c0,104.9-115.6,202.9-274.1,163.9C159.1,420.5,95.6,438.5,50.9,446.6z
	 M256,105.5c-91.5,0-165.9,59.8-165.9,133.3c0,38.7,16.7,63,40.3,87.1c-4.8,35.7-16.3,66.7-16.3,66.7s34-9,72.6-31.6
	c147.8,39.2,235.2-46.1,235.2-122.2C421.9,165.3,347.5,105.5,256,105.5z"/>
</svg>
