<?xml version="1.0" encoding="utf-8"?>
<!DOCTYPE svg PUBLIC "-//W3C//DTD SVG 1.1//EN" "http://www.w3.org/Graphics/SVG/1.1/DTD/svg11.dtd">
<svg version="1.1" baseProfile="full"
 xmlns="http://www.w3.org/2000/svg"
 xmlns:xlink="http://www.w3.org/1999/xlink"
 xmlns:ev="http://www.w3.org/2001/xml-events" 
  height="18px" 
  width="19px" 
>
<path fill="rgb( 140, 140, 140 )"
 d="M18.308,10.5440000000001 C18.308,10.5440000000001 14.73,10.5440000000001 14.73,10.5440000000001 C14.58,10.5440000000001 14.453,10.4960000000001 14.338,10.425 C13.53,10.6859999999999 12.076,11.3040000000001 11.591,12.1110000000001 C10.795,13.441 9.27099999999999,17.502 9.25999999999999,17.537 C9.16800000000001,17.787 8.94800000000001,17.953 8.69399999999999,17.9880000000001 C8.67099999999999,17.9880000000001 8.54400000000001,17.999 8.36000000000001,17.999 C6.25899999999999,17.999 5.50899999999999,16.587 5.50899999999999,15.269 C5.50899999999999,13.951 5.76300000000001,12.7280000000001 6.005,11.885 C5.76300000000001,11.9090000000001 5.49799999999999,11.921 5.221,11.921 C3.72,11.933 2.578,11.434 1.94300000000001,10.508 C0.63900000000001,8.58500000000004 0.97399999999999,6.62599999999998 1.274,4.90300000000002 C1.297,4.78500000000008 1.31999999999999,4.66599999999994 1.33099999999999,4.548 C1.608,2.91000000000008 1.989,0.67699999999991 3.83600000000001,0.34400000000005 C4.55099999999999,0.21399999999994 6.155,0 7.65600000000001,0 C8.833,0 9.68700000000001,0.13000000000011 10.241,0.404 C10.91,0.72399999999993 11.337,1.06899999999996 11.683,1.3420000000001 C12.018,1.60200000000009 12.18,1.72199999999998 12.376,1.74499999999989 C12.456,1.75700000000006 12.549,1.75700000000006 12.664,1.75700000000006 C13.073,1.75700000000006 13.568,1.70800000000008 13.923,1.66399999999999 C13.959,1.65900000000011 13.993,1.65499999999997 14.026,1.65100000000007 C14.026,1.65100000000007 14.026,1.65100000000007 14.026,1.65100000000007 C14.026,1.65100000000007 14.026,1.65100000000007 14.026,1.65100000000007 C13.993,1.65499999999997 13.959,1.65900000000011 13.923,1.66399999999999 C13.923,1.66399999999999 13.923,1.3610000000001 13.923,1.3610000000001 C13.923,1.3610000000001 13.927,1.3610000000001 13.927,1.3610000000001 C13.924,1.3309999999999 13.922,1.30099999999993 13.922,1.27099999999996 C13.922,0.87899999999991 14.234,0.56899999999996 14.615,0.56899999999996 C14.615,0.56899999999996 18.308,0.5809999999999 18.308,0.5809999999999 C18.688,0.5809999999999 19,0.8900000000001 19,1.28199999999993 C19,1.28199999999993 19,9.8309999999999 19,9.8309999999999 C19,10.223 18.688,10.5440000000001 18.308,10.5440000000001 ZM13.83,3.1110000000001 C13.322,3.17000000000007 12.664,3.2059999999999 12.249,3.17000000000007 C11.649,3.1110000000001 11.256,2.80199999999991 10.852,2.46900000000005 C10.552,2.23199999999997 10.206,1.95900000000006 9.67500000000001,1.69699999999989 C9.46799999999999,1.60200000000009 8.93700000000001,1.42499999999995 7.679,1.42499999999995 C6.27099999999999,1.42499999999995 4.77099999999999,1.62699999999995 4.101,1.74499999999989 C3.351,1.87599999999998 3.03899999999999,2.92100000000005 2.72800000000001,4.78500000000008 C2.70500000000001,4.90300000000002 2.68199999999999,5.02199999999993 2.66999999999999,5.14100000000008 C2.37,6.74399999999991 2.10499999999999,8.25199999999995 3.08600000000001,9.68900000000008 C3.547,10.365 4.505,10.508 5.244,10.508 C6.12100000000001,10.508 6.88200000000001,10.306 6.89400000000001,10.306 C7.148,10.2349999999999 7.42500000000001,10.319 7.59800000000001,10.5319999999999 C7.77099999999999,10.7339999999999 7.81700000000001,11.03 7.71299999999999,11.28 C7.702,11.3040000000001 6.929,13.1669999999999 6.929,15.2819999999999 C6.929,15.982 7.21700000000001,16.231 7.42500000000001,16.3610000000001 C7.667,16.5039999999999 7.94399999999999,16.5630000000001 8.16300000000001,16.5740000000001 C8.602,15.4469999999999 9.733,12.55 10.437,11.375 C11.175,10.1289999999999 12.93,9.404 13.83,9.10699999999997 C13.83,9.10699999999997 13.83,3.1110000000001 13.83,3.1110000000001 ZM17.627,1.99499999999989 C17.627,1.99499999999989 15.203,1.98299999999995 15.203,1.98299999999995 C15.203,1.98299999999995 15.203,9.11899999999991 15.203,9.11899999999991 C15.203,9.11899999999991 17.627,9.11899999999991 17.627,9.11899999999991 C17.627,9.11899999999991 17.627,1.99499999999989 17.627,1.99499999999989 Z "/>
</svg>
