<?xml version="1.0" encoding="utf-8"?>
<!-- Generator: Adobe Illustrator 18.0.0, SVG Export Plug-In . SVG Version: 6.00 Build 0)  -->
<!DOCTYPE svg PUBLIC "-//W3C//DTD SVG 1.1//EN" "http://www.w3.org/Graphics/SVG/1.1/DTD/svg11.dtd">
<svg version="1.1" id="Capa_1" xmlns="http://www.w3.org/2000/svg" xmlns:xlink="http://www.w3.org/1999/xlink" x="0px" y="0px"
	 viewBox="20.6 16.3 51.7 50.3" enable-background="new 20.6 16.3 51.7 50.3" xml:space="preserve">
<g>
	<g>
		<path d="M32.8,49.5c0.8,0,1.6,0,2.3-0.1c-0.7,2.4-1.4,5.8-1.4,9.5c0,3.7,2.2,7.6,8.2,7.6c0.5,0,0.9,0,1,0c0.7-0.1,1.4-0.6,1.6-1.3
			c0-0.1,4.4-11.4,6.7-15.2c1.4-2.3,5.6-4,7.9-4.7c0.3,0.2,0.7,0.3,1.1,0.3h10.3c1.1,0,2-0.9,2-2V19.8c0-1.1-0.9-2-2-2l-10.6,0l0,0
			c-1.1,0-2,0.9-2,2c0,0.4,0.1,0.8,0.3,1.1c-1,0.1-2.6,0.3-3.9,0.3c-0.3,0-0.6,0-0.8,0c-0.6-0.1-1-0.4-2-1.1c-1-0.8-2.2-1.7-4.1-2.6
			c-1.6-0.8-4-1.1-7.4-1.1c-4.3,0-8.9,0.6-11,1c-5.3,0.9-6.4,7.2-7.2,11.7c0,0.3-0.1,0.7-0.2,1c-0.9,4.8-1.8,10.3,1.9,15.7
			C25.2,48.2,28.4,49.6,32.8,49.5z M68.4,41.7h-7V22.6c0-0.3-0.1-0.6-0.2-0.9l7.2,0V41.7z M25.4,30.6c0-0.3,0.1-0.7,0.2-1
			c0.9-5.2,1.8-8.1,3.9-8.5c1.9-0.3,6.2-0.9,10.3-0.9c3.6,0,5.1,0.5,5.7,0.8c1.5,0.7,2.5,1.5,3.4,2.2c1.2,0.9,2.3,1.8,4,2
			c1.2,0.1,3.1,0,4.5-0.2v16.7c-2.6,0.8-7.6,2.9-9.8,6.3c-2,3.3-5.3,11.4-6.5,14.5c-0.6,0-1.4-0.2-2.1-0.6c-0.6-0.4-1.4-1.1-1.4-3
			c0-5.9,2.2-11.1,2.3-11.2c0.3-0.7,0.2-1.5-0.3-2.1c-0.5-0.6-1.3-0.8-2-0.6c0,0-2.2,0.6-4.7,0.6c-2.1,0-4.9-0.4-6.2-2.3
			C23.8,39.3,24.6,35.1,25.4,30.6z"/>
	</g>
</g>
</svg>
