<?xml version="1.0" encoding="utf-8"?>
<!-- Generator: Adobe Illustrator 18.0.0, SVG Export Plug-In . SVG Version: 6.00 Build 0)  -->
<!DOCTYPE svg PUBLIC "-//W3C//DTD SVG 1.1//EN" "http://www.w3.org/Graphics/SVG/1.1/DTD/svg11.dtd">
<svg version="1.1" id="Слой_1" xmlns="http://www.w3.org/2000/svg" xmlns:xlink="http://www.w3.org/1999/xlink" x="0px" y="0px"
	 viewBox="0 0 457.4 45.5" enable-background="new 0 0 457.4 45.5" xml:space="preserve">
<path d="M25.2,43.8l-12.8-17l-3.3,3.9v13H0V1.5h9.1v18.9L24.1,1.5h11.2L18.3,21.4l18,22.5H25.2z M41.8,43.8V1.5h19.9
	C71,1.5,76,7.8,76,15.1S71,28.8,61.7,28.8H50.9v15L41.8,43.8L41.8,43.8z M66.7,15.2c0-3.5-2.7-5.7-6.3-5.7h-9.7v11.4h9.7
	C64.1,21,66.7,18.7,66.7,15.2z M77.7,41.6l3.4-7.2c1.5,1.2,3.4,2.3,5.5,2.3c3.1,0,4.6-1.3,6.2-4.4L77.2,1.7h10.3l10.5,22.5
	l10.6-22.5h10.3l-17.6,34.2c-2.6,5.1-6.3,8.9-13.9,8.9C83.5,44.6,79.6,43.3,77.7,41.6z M124,43.8V1.5h30.1v8h-21v34.4H124z
	 M208.2,22.8c0-13,9.9-21.9,22.7-21.9c9.4,0,14.8,5.1,17.8,10.4l-7.8,3.8c-1.8-3.4-5.6-6.2-10-6.2c-7.8,0-13.4,5.9-13.4,13.9
	s5.6,13.9,13.4,13.9c4.4,0,8.2-2.7,10-6.2l7.8,3.8c-3.1,5.2-8.4,10.4-17.8,10.4C218.1,44.6,208.2,35.8,208.2,22.8z M255.4,43.8V1.5
	h22.4c8.1,0,12.2,5.1,12.2,10.8c0,5.3-3.3,8.9-7.3,9.7c4.6,0.7,8.2,5.1,8.2,10.4c0,6.3-4.3,11.4-12.4,11.4L255.4,43.8L255.4,43.8z
	 M280.8,13.9c0-2.7-1.9-4.6-5-4.6h-11.4v9.2h11.4C278.8,18.5,280.8,16.6,280.8,13.9z M281.6,31.2c0-2.7-1.9-5-5.5-5h-11.6V36h11.6
	C279.6,36,281.6,34.2,281.6,31.2z M298.9,43.8V1.5H329v8h-21v9h20.7v8h-20.6V36h21v8h-30.2V43.8z M347.3,43.8V9.5h-12.4v-8h34v8
	h-12.4v34.4H347.3z M401.1,43.8l-12.8-17l-3.3,3.9v13h-9.1V1.5h9.1v18.9l15.1-18.9h11.2l-17.1,19.9l18,22.5H401.1z M447.1,43.8
	l-2.6-7.2h-18.3l-2.7,7.2h-10.3l16.5-42.3H441l16.4,42.3H447.1z M435.3,10.6l-6.6,18.2H442L435.3,10.6z M178,45.3
	c-0.1,0-0.2-0.1-0.2-0.1h-0.1h-0.1l0,0c0.2,0.1,0.3,0.1,0.5,0.1l0,0H178z M163.2,9C163.2,9,163.1,9,163.2,9L163.2,9L163.2,9z
	 M191.9,9.3L191.8,9l-0.2-0.2h-0.2l-0.2-0.1L191.2,9L191,9l-0.2,0.2l-0.2,0.1l-0.2,0.3l0.3,0.3l0.1,0.2c0.2,0.2,0.4,0.3,0.7,0.5
	l0.2,0.2h0.2l0.1,0.1l-0.2,0.1l0.1,0.2v0.1l-0.1,0.1l0.1,0.2l0.2,0.2l0.3,0.1l0.2,0.2L193,12l0.4-0.1v-0.1l-0.2-0.2l-0.1-0.3
	l-0.2-0.1V11h-0.2v-0.3l0.3,0.1l0.2-0.1l-0.3-0.2l-0.2-0.2l-0.2,0.1l0.1,0.2l-0.2-0.2l-0.1-0.1v-0.2l-0.1-0.2L192,9.9l-0.2-0.3
	l-0.2-0.1l-0.1-0.1l0.3,0.1l-0.1-0.2L191.9,9.3L191.9,9.3z M204,24v-0.3v-0.2v-0.3V23v-0.2v-0.2c0-0.2-0.1-0.3-0.1-0.4v0.2v-0.2
	c0-0.2,0-0.4,0-0.7l-0.1-0.3V21l-0.1-0.2l-0.1-0.4c-0.1-0.3-0.2-0.8-0.2-1.1l-0.1-0.3v0.2l-0.1,0.3l-0.1-0.1l-0.1-0.1l-0.1-0.4
	l-0.1-0.3l-0.2-0.4v-0.2l-0.1-0.1c-0.1-0.2-0.2-0.3-0.2-0.5l-0.1-0.2v-0.2l-0.1-0.2h-0.1l0.1,0.2v0.2l-0.1-0.1v0.1l-0.1-0.1h-0.1
	v0.1H202l-0.2,0.1l0.1,0.3v0.3l-0.2,0.2l-0.1,0.4l-0.1,0.3l-0.2,0.2c0,0.1,0,0.2,0.1,0.2l-0.1,0.1l-0.2,0.2h-0.1v0.3
	c0.1,0.3,0.1,0.5,0.2,0.8l-0.1,0.4l0.1,0.7h-0.1l-0.1,0.3l0.1,0.2l-0.2,0.1l-0.1,0.3l-0.1,0.1l-0.2-0.3c-0.1-0.3-0.2-0.7-0.2-0.9
	l-0.1-0.2l-0.2-0.3c-0.1-0.2-0.1-0.5-0.2-0.7l-0.3-0.5c-0.1-0.4-0.2-0.8-0.3-1.2l-0.1-0.4l-0.1-0.3l-0.3,0.2l-0.2-0.1l-0.4-0.4
	l0.1-0.2l-0.1,0l-0.3-0.3l-0.2-0.1l-0.2-0.3l-0.3-0.3l-0.4,0.1h-0.4l-0.3,0.1c-0.3-0.1-0.6-0.2-0.9-0.2l-0.3-0.1l-0.2-0.4l-0.2-0.1
	l-0.2,0.1l-0.3,0.2l-0.4-0.2l-0.4-0.3l-0.3-0.1l-0.3-0.3l-0.3-0.4l-0.1,0.1l-0.2-0.2l-0.1,0.2H192l0.1,0.2v0.1
	c0.1,0.2,0.2,0.3,0.3,0.5l0.2,0.1l0.1,0.2l0.2,0.2l0.1,0.2v0.2l0.1,0.2l0.1,0.1l0.1,0.2l0.1,0.1l-0.1-0.3l0.1-0.2l0.1-0.1l0.1,0.1
	l0.1,0.2l-0.1,0.2l0.1,0.2h0.1l0.1,0.1l0.2-0.1c0.2,0,0.3,0,0.4,0.1l0.2-0.2l0.2-0.2l0.2-0.2l0.1-0.2l0.1,0.1V16l-0.1,0.1l0.1,0.3
	l0.2,0.2l0.2,0.2l0.2,0.1l0.2,0.1c0.1,0.1,0.2,0.2,0.3,0.3l0.1,0.1c0,0.1,0,0.1,0,0.1c-0.1,0.1-0.1,0.2-0.1,0.3l-0.1,0.2l-0.1,0.2
	h-0.2l-0.2-0.1v0.2l0.1,0.2v0.1c-0.1,0-0.1,0-0.2,0l-0.2,0.2v0.2l-0.1,0.1h-0.2l-0.2,0.1v0.2l-0.2,0.1l-0.2-0.1l-0.2,0.2h-0.2
	l-0.2,0.2l0.1,0.1v0.2l-0.3,0.2l-0.5,0.2l-0.3,0.3h-0.2l-0.1-0.1l-0.2,0.1l-0.2,0.1H192h-0.1l-0.1,0.2l-0.1,0.1l-0.1,0.1h-0.2
	l-0.1,0.1h-0.2l-0.1-0.2v-0.4l-0.1-0.2l-0.2-0.3l-0.1-0.2h0.1l-0.1-0.2l0.1-0.1l-0.1-0.2l-0.1-0.2l-0.1-0.2l-0.1-0.1l-0.1-0.2
	l-0.3-0.3l-0.2-0.3l-0.3-0.3l-0.2-0.1l-0.3-0.4l-0.1-0.3v-0.3l-0.2-0.4l-0.2-0.1l-0.2-0.1l-0.1-0.2v-0.1l-0.1-0.2l-0.1-0.1l-0.2-0.3
	c-0.2-0.2-0.3-0.3-0.4-0.5h-0.2l0.1-0.2v-0.2l0.1-0.2v0l-0.1,0.2l-0.1,0.3l-0.1,0.2l-0.1,0.1c-0.1-0.1-0.2-0.2-0.3-0.3l-0.3-0.5
	h-0.1l0.2,0.3l0.2,0.3l0.3,0.5l0.2,0.2l0.2,0.2l0.3,0.4l-0.1,0.1l0.1,0.2l0.4,0.3l0.1,0.1l0.2,0.3l-0.1,0.1l0.1,0.3L189,18
	c0.2,0.1,0.2,0.2,0.3,0.2l0.2,0.4l0.2,0.3l0.2,0.2l0.5,0.3c0.2,0.2,0.3,0.3,0.5,0.6l0.2,0.2l0.1,0.2v0.2l-0.2,0.1
	c0.1,0.1,0.2,0.2,0.3,0.2l0.1,0.2l0.2,0.2h0.2l0.3-0.1l0.3-0.1l0.3-0.2l0.2-0.1l0.2-0.1c0.1,0,0.2,0,0.3,0l0.2-0.1l0.2-0.1l0.2-0.2
	h0.2v0.1l-0.1,0.2v0.2l-0.1,0.2l-0.2,0.4c-0.1,0.3-0.2,0.7-0.3,0.9l-0.3,0.6c-0.2,0.3-0.4,0.7-0.7,0.9l-0.3,0.3l-0.5,0.3l-0.4,0.3
	l-0.4,0.4l-0.1,0.3l-0.1,0.1l-0.3,0.2l-0.1,0.2l-0.1,0.1l-0.1,0.3l-0.1,0.1l-0.1,0.2l-0.2,0.2l-0.2,0.4v0.2l0.2,0.2v0.1l-0.2,0.3
	v0.1l-0.1,0.2l0.1,0.2l0.1,0.3l0.2,0.1l0.1,0.2l-0.1,0.3v0.3l-0.1,0.5l0.1,0.2l-0.2,0.2l-0.2,0.2l-0.2,0.2c-0.2,0.1-0.5,0.2-0.7,0.3
	l-0.4,0.3l-0.2,0.1l-0.3,0.2l-0.2,0.1l-0.1,0.2l0.2,0.3l0.1,0.2v0.1h0.1l-0.1,0.4l-0.2,0.2l0.1,0.1l-0.1,0.2l-0.2,0.1
	c-0.2,0.1-0.4,0.2-0.7,0.3l-0.2,0.2v0.2h0.1l-0.1,0.2l-0.2,0.2l-0.1,0.3l-0.1,0.2c-0.1,0.1-0.2,0.2-0.3,0.2l-0.2,0.2l-0.1,0.2
	l-0.2,0.2c-0.2,0.2-0.4,0.3-0.7,0.4l-0.3,0.2l-0.3,0.1h-0.2l-0.1,0.1l-0.2-0.2l-0.2,0.1l-0.3-0.1L183,36h-0.2l-0.3,0.1l-0.3,0.1
	l-0.2,0.1h-0.2l-0.2-0.1h-0.1l-0.2-0.2v0.1V36v-0.2l-0.1-0.2l0.1-0.1v-0.2c-0.2-0.3-0.4-0.7-0.6-0.9l-0.3-0.2l-0.2-0.3l-0.1-0.3
	l-0.1-0.2l-0.2-0.5v-0.4l-0.1-0.2l-0.1-0.1l-0.2-0.3l-0.2-0.4l-0.1-0.2l-0.3-0.3l-0.1-0.3v0.4l0.1-0.3l0.2-0.3v-0.2l0.2-0.3l0.1-0.2
	l0.2-0.2l0.2-0.2l0.1-0.3v-0.3l-0.2-0.2c-0.1-0.2-0.2-0.3-0.2-0.4v-0.1l0.2-0.2c-0.1-0.2-0.2-0.4-0.2-0.6l-0.2-0.2l0.1-0.1l-0.1-0.2
	l-0.1-0.3l-0.3-0.3l-0.6-0.4l-0.3-0.3l-0.2-0.4v-0.2l0.1-0.2c0.1-0.2,0.2-0.3,0.2-0.5l-0.2-0.1l0.2-0.4l0.1-0.3l-0.2-0.3l-0.2-0.1
	l-0.1-0.2l-0.1-0.1V23l-0.4,0.2l-0.2-0.1l-0.2,0.1h-0.3l-0.2-0.2l-0.2-0.3l-0.3-0.3c-0.2,0-0.4,0-0.7,0l-0.3,0.1l-0.3,0.1l-0.7,0.2
	l-0.2,0.2l-0.3,0.1l-0.3-0.2h-0.2l-0.3-0.1h-0.2l-0.4,0.1c-0.2,0.1-0.4,0.2-0.7,0.2h-0.1h-0.1l-0.3-0.2l-0.3-0.2l-0.7,0.1l-0.2-0.3
	l-0.1-0.1l-0.3-0.2l-0.2-0.2l-0.1-0.2l-0.1-0.3l-0.2-0.2l-0.2-0.2l-0.1-0.1l-0.1-0.1l-0.1-0.2l-0.1-0.1l-0.1-0.1l-0.2-0.2l-0.2-0.1
	l-0.1-0.1v-0.1l-0.1-0.1c0-0.2-0.1-0.3-0.1-0.3l0.1-0.2v-0.3l-0.2-0.2l0.2-0.1l0.2-0.3l0.1-0.2v-0.3l0.1-0.2l0.1-0.3v-0.3v-0.2
	l0.1-0.2h-0.1l-0.2-0.2c0.1-0.1,0.1-0.2,0.1-0.3l0.2-0.1l0.2-0.2v-0.2l0.2-0.3l0.2-0.2l0.2-0.1l0.2-0.2l0.1-0.2l0.2-0.2l0.2-0.2
	l0.3-0.3l0.2-0.2l0.3-0.1l0.3-0.2l0.2-0.1l0.3-0.3v-0.4l0.2-0.3l0.1-0.2l0.3-0.2c0.2-0.1,0.4-0.2,0.7-0.3l0.3-0.3l0.2-0.2h0.2
	l0.2,0.2h0.3l0.3,0.1h0.2l0.3-0.2l0.4-0.1l0.2-0.2l0.3-0.1c0.4-0.1,0.8-0.1,1.2-0.1l0.2,0.1l0.3-0.2h0.3l0.2,0.1h0.2l0.4-0.2
	l0.2,0.1l0.1,0.2l0.3-0.2v0.1l-0.2,0.2v0.2l0.2,0.1l-0.1,0.3l-0.2,0.2l0.1,0.2h0.2l0.1,0.2l0.2,0.1l0.4,0.2l0.2-0.1l0.3,0.1l0.5,0.2
	l0.2,0.3l0.3,0.1l0.5,0.2l0.4,0.2l0.2-0.1l0.1-0.3l-0.1-0.2l0.1-0.2l0.3-0.2l0.2-0.1l0.5,0.1l0.2,0.2h0.2l0.2,0.1l0.3,0.1l0.1,0.2
	h0.4c0.3,0.1,0.6,0.2,0.9,0.3l0.3-0.1l0.2-0.1l0.3-0.1l0.3,0.1l0.1,0.2l0.1-0.1l0.3,0.1l0.3,0.1l0.2-0.1l0.1-0.1h-0.1l0.1-0.2
	l0.1-0.3l0.1-0.1l0,0l0.1-0.3l0.2-0.2l0,0l-0.1-0.3l0.1-0.2l-0.2-0.2l0.1-0.2l-0.2,0.1l-0.3-0.1l-0.2,0.2l-0.5,0.1l-0.3-0.2h-0.3
	l-0.1,0.2l-0.2,0.1l-0.3-0.2h-0.3l-0.2-0.3l-0.3-0.2l0.2-0.2l-0.3-0.2l0.3-0.3h0.5l0.1-0.2l0.7,0.1l0.3-0.2l0.3-0.1h0.5l0.6,0.2
	l0.4,0.2l0.3-0.1l0.3,0.1l0.3-0.2v-0.2l-0.2-0.3l-0.2-0.2H189l-0.2-0.1l-0.4-0.3L188,10l-0.3-0.2l0.2-0.1l0.2-0.2L188,9.4l0.4-0.1
	V9.2l-0.3,0.1H188l-0.2,0.1h-0.3l-0.2,0.1l0.1,0.2l0.2,0.1h0.3l-0.1,0.1l-0.3,0.1l-0.3,0.2L187,10l0.1-0.2l-0.3-0.1l0.1-0.1l0.3-0.1
	L187,9.5l-0.5-0.1l-0.1-0.1l-0.3,0.1l-0.1,0.2l-0.2,0.2v0.1l-0.2,0.1l-0.1-0.1l-0.1,0.3l-0.2,0.2l-0.1,0.2l0.2,0.2l0.1,0.2l0.3,0.1
	l-0.1,0.1h-0.3l-0.2,0.1l-0.3,0.2l-0.1-0.2V11h-0.2l-0.2-0.1L184,11l0.2,0.2l-0.2,0.1c-0.1,0-0.2,0-0.2,0l-0.1-0.2v0.1l0.1,0.2
	l0.2,0.2l-0.2,0.1l0.2,0.2l0.2,0.1V12l-0.3-0.2l0.1,0.2l-0.3,0.1l0.2,0.3h-0.2l-0.3-0.2l-0.2-0.3l-0.1-0.2c-0.1-0.1-0.2-0.2-0.3-0.3
	l-0.1-0.1h-0.1v-0.6l-0.2-0.1l-0.1-0.2l0.1-0.2l0.1-0.1l-0.1-0.1l-0.1-0.1l-0.1-0.1c-0.2-0.1-0.3-0.2-0.4-0.2l-0.2-0.1l-0.3-0.1
	L181,9.5h0.1l-0.2-0.2V9.2l-0.2-0.1l-0.1,0.2l-0.1-0.1V9.1l0,0l0.1-0.1L180.4,9L180.2,9v0.2l-0.1,0.1l0.1,0.2l0.3,0.2l0.2,0.3
	l0.3,0.2h0.3l0.1,0.1l-0.2,0.1c0.2,0.1,0.3,0.2,0.5,0.2l0.3,0.2l0.1,0.1l-0.1,0.1l-0.2-0.2l-0.3-0.1l-0.2,0.2l0.2,0.2l-0.1,0.2h-0.2
	l-0.2,0.2H181c0-0.1,0-0.1,0-0.1l0.1-0.2l0.1-0.1c-0.1-0.1-0.2-0.2-0.2-0.3l-0.2-0.1l-0.1-0.2l-0.3-0.1l-0.2-0.2h-0.2l-0.3-0.2
	l-0.3-0.2l-0.2-0.2l-0.1-0.3L179.2,9L178.9,9L178.7,9l-0.2,0.2h-0.2L178,9.4l-0.7-0.1l-0.5,0.1l-0.1,0.2v0.2l-0.3,0.2L176,10v0.1
	l-0.2,0.2l-0.2,0.3l0.1,0.2l-0.2,0.2l-0.2,0.2l-0.3,0.1l-0.3,0.2c-0.3,0-0.5,0-0.8,0l-0.2,0.1l-0.2,0.2l-0.3-0.1l-0.1-0.1l-0.1-0.2
	H173l-0.2,0.1l-0.2-0.1l-0.2,0.1l0.2-0.2l0.1-0.2l-0.2-0.1l-0.2-0.3l0.1-0.2l0.2-0.1l0.1-0.2L173,10l0.1-0.2V9.7V9.6l0.1-0.2
	L173,9.3l0.5-0.2l0.3,0.1h0.4l0.3,0.1h0.3h0.5l0.2-0.2l0.2-0.6l-0.2-0.3L175.5,8L175,7.8l0.1-0.2l0.4-0.1l0.5,0.1V7.3l0.2,0.2
	l0.8-0.2l0.2-0.2c0.2-0.1,0.3-0.1,0.5-0.1l0.2-0.1l0.3-0.4l0.4-0.1h0.2l0.1-0.1h0.3l0.1,0.1l0.2-0.2l-0.1-0.1V6l-0.1-0.2l0.1-0.3
	l0.1-0.1h0.1h0.3l0.1-0.1l0.2-0.1L180,5.5h-0.1l0.1,0.1l0.2,0.1l-0.1,0.1L180,5.7l-0.2,0.2l0.1,0.2v0.1l0.3,0.1v0.1l0.3-0.1l0.2-0.1
	l0.3,0.1l0.2,0.1l0.2-0.1c0.3-0.1,0.5-0.2,0.8-0.2l0.3,0.1v0.1h0.3l0.1-0.1L183,6L183,5.9V5.7l0.2-0.2l0.2-0.1l0.2,0.2h0.2
	c0-0.1,0.1-0.2,0.1-0.3l-0.1,0.1l-0.1-0.1l0.1-0.1l0.3-0.1l0.3-0.1l0.3,0.1h0.3l0.3-0.2l-0.3-0.2h-0.4l-0.3,0.2L183.6,5l-0.2-0.2
	l-0.3-0.1l0.1-0.2l-0.2-0.2l0.1-0.2l0.2-0.2l0.5-0.2l0.2-0.1L184,3.7l-0.3-0.1l-0.4,0.1L183,3.8l0.1,0.2c-0.3,0.2-0.5,0.2-0.8,0.3
	l-0.2,0.3l0.2,0.2l0.2,0.2l-0.2,0.3h-1.1l-0.2,0.4l-0.2,0.2l-0.3-0.1L180.4,6H180l-0.1-0.2l-0.2-0.3l-0.1-0.3l-0.2-0.2l-0.7,0.3
	l-0.3,0.1l-0.3-0.2L178,4.8l0.1-0.5l0.3-0.2l0.7-0.2l0.5-0.2c0.3-0.2,0.7-0.4,1-0.7c0.3-0.2,0.7-0.2,0.9-0.3l0.5-0.1h0.3l0.3-0.2
	h0.3l0.3,0.1l0.7,0.2l-0.2,0.1l0.3,0.2l0.2-0.1l0.3,0.2l0.5,0.1l0.9,0.2l0.2,0.1l0.1,0.2l-0.2,0.1l-0.3,0.1c-0.3-0.1-0.7-0.2-1-0.2
	h-0.2l0.4,0.2l0.2,0.3c0.2,0.1,0.3,0.1,0.5,0.2V4.2l-0.2-0.1l0.2-0.1l0.6,0.2l0.2-0.1L186.2,4l0.3-0.2h0.2l0.2,0.1v0l-0.2-0.2V3.6
	l-0.2-0.2l0.5,0.1l0.2,0.1h-0.2l0.1,0.1l0.2,0.1l0.3-0.1l-0.1-0.2c0.3-0.1,0.5-0.2,0.8-0.3h0.2l-0.1,0.2l0.2,0.1l0.1-0.1h0.3
	l0.2-0.1l0.3,0.2l0.1-0.2l-0.3-0.2V3l0.5,0.1c0.3,0.1,0.7,0.2,1,0.3h-0.1l-0.3-0.1l-0.1-0.1h-0.2l-0.1-0.1L189.9,3l-0.1-0.1V2.7
	l-0.2-0.2l0.1-0.1l0.3,0.1l0.2,0.1l0.1,0.2l0.2,0.1l0.2,0.2l0.3,0.3l0.3,0.2l0.2,0.2l0.1,0.3l0.2,0.1l-0.1-0.1l0.1-0.1l-0.1-0.1V3.6
	l-0.2-0.2l-0.2-0.2h-0.2L191,3.2L190.8,3h-0.3V2.9l-0.2-0.2h0.1l0.2,0.1l0.2,0.2l0.2,0.1l-0.2-0.2l0.1-0.1h0.2l0.3,0.1L191,2.7
	l-0.3-0.2l0.2-0.1h0.2h0.2L191,2.4l-0.2-0.1h0.1V2.2h0.1l-0.1-0.1l0,0c-5.3-2.4-11.3-2.7-16.7-1h-0.1l0.3-0.1v0.1h0.1v0.1l0.1-0.1
	l0.2-0.1l0.3-0.1h0.2l0.2-0.1c0.3,0,0.6,0,0.9,0c0.2,0.1,0.3,0.1,0.3,0.1L176.4,1c-0.3,0-0.6,0-0.9,0l0,0h0.3l0.3,0.1l0.3-0.1v0.1
	l-0.3,0.1c0.3-0.1,0.7-0.1,0.9-0.1l0.3,0.1v0.1l-0.7,0.1l0,0h-0.1h-0.4h0.3c-0.2,0.1-0.3,0.2-0.5,0.2l-0.2,0.2v0.1h-0.2l-0.3,0.1
	l0.2,0.1l-0.2,0.2h-0.2v0.2l-0.3,0.1l0.1,0.1l-0.2,0.1h-0.2h-0.2v0.2l-0.1,0.1l-0.2-0.3L174,2.6l0.2,0.1l0.1,0.1L174.2,3L173.8,3
	c0-0.1-0.1-0.2-0.1-0.2L173.6,3l-0.3,0.1c0.2,0,0.3,0,0.5,0.1c-0.3,0.1-0.7,0.2-1.1,0.3l-0.5,0.1h-0.2l-0.2,0.1l-0.4,0.2L171.1,4
	h-0.2c-0.2,0.1-0.3,0.1-0.4,0.1l-0.3,0.1l-0.2,0.2l-0.2,0.2l-0.4,0.2l-0.2,0.1c-0.2,0.2-0.3,0.3-0.6,0.4h-0.2l0.1-0.2h-0.2l0.1-0.2
	l0.2-0.2l0.2-0.3l0.2-0.2l0.2-0.2l0.2-0.2l0.2-0.2l0.1-0.1l0.4-0.2l0.2-0.1c0.2-0.1,0.3-0.2,0.4-0.2c-0.1,0.1-0.2,0.1-0.3,0.1
	l-0.1,0.1V3.3l0.2-0.2l0.2-0.1h0.1l0.2,0.1l0.1-0.2l0.1-0.1h-0.1l0.1-0.1l0.3-0.2l0.1-0.1c0.2-0.1,0.3-0.2,0.4-0.3l0.1-0.1
	c-1.9,0.9-3.6,2-5.2,3.3c-0.2,0.2-0.3,0.3-0.3,0.4L166.2,6l-0.1,0.2l-0.1,0.2l0.1,0.1l-0.1,0.1l-0.2,0.2l0.1,0.1l-0.1,0.1l-0.3,0.3
	l-0.2,0.1l0,0l-0.2,0.1l-0.3,0.2l-0.3,0.2l-0.2,0.1l-0.1-0.1l0,0c-0.2,0.2-0.3,0.3-0.3,0.4l0,0l0,0c-0.2,0.2-0.4,0.4-0.6,0.7
	L163.4,9l0.2-0.1l0.3-0.3l-0.2,0.2l-0.1,0.1L163.5,9l-0.3,0.2L163,9.3L163,9.4c-2.5,3.3-4.1,7.3-4.4,11.6V21l0.1,0.1l0.1-0.2v-0.2
	h0.1h0.1l-0.1,0.1V21l0.1,0.1l0.1,0.2v0.3h0.1c0.1,0.1,0.1,0.2,0.1,0.2v0.3v0.2l0,0c0,0.2,0,0.3,0.1,0.4l0.2,0.1v-0.1l0.1-0.1
	l0.2,0.2c0,0.1,0.1,0.1,0.1,0.2l0.2,0.3l0.1,0.2h0.1c0.1,0.3,0.1,0.6,0.2,0.9h0.1v0.3l-0.1,0.3l0.1,0.2l0.3,0.1l0.1,0.4l0.1-0.2
	l0.2,0.2l0.3,0.2l0.1,0.2v0.2l0.2-0.2l0.4,0.2h0.3l0.3,0.3L163,27l0.2,0.1h0.2l0.1,0.2c0.1,0.2,0.2,0.4,0.2,0.7v0.6l-0.1,0.3
	l-0.2,0.5l0.1,0.5l-0.1,0.3h-0.1v0.3l0.2,0.7c0.1,0.3,0.1,0.5,0.2,0.8v0.2l0.2,0.4V33l0.1,0.3l-0.1,0.2l0.1,0.2c-0.1,0-0.2,0-0.2,0
	l-0.2,0.1l-0.1,0.2l-0.2,0.1l-0.1,0.3l0.1,0.3l0.1,0.2l0.2,0.2l0.2,0.3l0.1,0.2v0.2l0.2,0.5l0.1,0.2v0.2l0.2,0.3l0.1,0.2l0.1,0.2
	v0.2l-0.2-0.1l-0.1,0.1l-0.2-0.2h-0.1l-0.2-0.2l0.1,0.2l0.3,0.2l0.2,0.2l0.2,0.2l0.1,0.2l0.2,0.3v0.1l-0.1,0.1l-0.1-0.1
	c0.1,0.2,0.2,0.2,0.3,0.3l0.2,0.2l0.1,0.1v0.1c1.9,2.1,4.2,3.6,6.7,4.8h0.1h0.1c1.9,0.9,3.9,1.5,5.9,1.8l-0.2-0.1h-0.8l0,0l0,0V45
	v-0.1l0.2,0.1h0.1c0.1,0,0.1,0,0.1,0h0.1h0.1h0.1c0.1,0,0.1-0.1,0.1-0.1v-0.1l0,0l-0.1-0.1l-0.2-0.1l-0.1-0.1v-0.1
	c0.1,0,0.1-0.1,0.2-0.1l0.1-0.1v-0.1l-0.1-0.1l0.1-0.1h0.2l0.1,0.1h0.2l-0.1-0.1V44h0.2l0.1,0.1h0.1c0.1,0,0.2-0.1,0.3-0.1h0.2
	l0.1,0.1l0.1-0.1c0.2-0.1,0.2-0.1,0.3-0.1l0.1-0.1h0.2l0.1-0.1l0.1-0.1l0.1,0.1h0.1c0.1,0.1,0.2,0.1,0.2,0.1h0.2l0.1-0.1l0.2-0.1
	h0.2l0.1,0.1l0.1-0.1c0.2,0,0.3,0,0.4,0c0.1,0,0.2,0,0.3,0.1l0.1,0.1l0.1,0.1h0.2c0.2,0,0.3,0,0.4,0c0.1,0,0.2,0,0.3-0.1l0.2-0.1
	h0.2h0.2l0.2-0.1l0.2-0.1l0.1-0.1h0.2v0.1l0.1,0.1h0.2l0.1,0.1l0.1,0.1l0.2-0.1l0.1-0.1h0.2l0.2-0.1c0.2-0.1,0.5-0.1,0.7-0.2h0.1
	c0.1-0.1,0.2-0.1,0.3-0.1h0.1l0.2-0.1l0.1-0.1c0.2-0.1,0.4-0.1,0.6-0.1c0.1,0,0.2,0,0.2,0.1l0.1,0.1l-0.1,0.1l0.1,0.1v0.1h0.1v0.1
	v0.1h0.1l0.2-0.1l0.2-0.1l0.1,0.1c0.1,0,0.1,0,0.2,0.1h0.1c0.1,0,0.1,0,0.1,0l-0.2,0.2c-0.1,0.1-0.2,0.1-0.2,0.1
	c-0.1,0-0.2,0.1-0.3,0.1l-0.1,0.1h0.1l-0.2,0.1c-0.1,0.1-0.2,0.1-0.3,0.1l-0.1,0.1h0.1h0.2c0.2-0.1,0.3-0.1,0.5-0.2
	c0.1-0.1,0.2-0.1,0.3-0.1h0.1h0.1c0.1,0,0.2,0,0.2-0.1c0.2-0.1,0.4-0.2,0.7-0.2c0.1-0.1,0.2-0.1,0.3-0.1h0.1c0.1,0,0.2,0,0.2-0.1
	h0.1l0.2-0.1l0.2-0.1c-0.1,0.1-0.2,0.1-0.2,0.1v0.1l0,0h0.1c7.1-2.7,12.8-9.3,14.2-17.5c0-0.3,0.1-0.5,0.1-0.9V25c0-0.2,0-0.4,0-0.7
	l-0.1-0.2v-0.3c-0.1-0.2-0.1-0.4-0.2-0.7v-0.2h0.1l0.2,0.1c0.1,0.3,0.1,0.5,0.1,0.8v0.4h0.1c0-0.1,0-0.2,0-0.2v0.4v-0.2L204,24z
	 M179.6,11.4l0.4,0.1c0.2,0,0.4-0.1,0.7-0.1l-0.2,0.3l0.1,0.1l-0.1,0.2l-0.3-0.2l-0.2-0.1l-0.5-0.2L179.6,11.4z M187.5,2.4
	c0.2-0.1,0.3-0.2,0.4-0.2h0.3l0.1-0.1h0.2l0.2,0.1v0.1c-0.2,0.1-0.3,0.1-0.5,0.2L188,2.6v0.2L188,3l0.2,0.2l0.4,0.2h-0.1L188,3.2
	l-0.2-0.1L187.4,3L187.3,3l0.2-0.1l-0.1-0.1l0.2-0.2h-0.2L187.5,2.4L187.5,2.4z M175,6.8l0.4,0.1l0.1-0.2l-0.2-0.2L175,6.5V6.4
	l0.2-0.1l-0.1-0.1l-0.2,0.2l0.1-0.2L174.9,6l0.2-0.3l0.3-0.2h0.2h0.3L175.5,6l0.3-0.1h0.3L175.9,6l-0.3,0.2h0.3l0.2,0.3l0.2,0.1
	l0.1,0.3l0.1,0.1l0.3,0.1l-0.1,0.3l-0.2,0.1l0.1,0.2l-0.3,0.2h-0.4h-0.5L175,7.8l-0.2,0.2l-0.3-0.1L174.4,8l-0.2-0.1l0.5-0.3
	l0.3-0.1l-0.4-0.1l-0.1-0.1l0.3-0.1l-0.1-0.2L175,6.8z M174.7,6.4l0.2,0.2l-0.2,0.2l0,0l-0.1,0.2l-0.3,0.2l-0.5,0.2l-0.3-0.1
	l0.3-0.3V6.6c0.2-0.1,0.4-0.2,0.7-0.3L174.7,6.4L174.7,6.4z M172.6,3.9l0.2-0.2l0.3-0.1l0.2,0.2l0.3-0.1l0.2,0.1l0.4-0.1h0.3
	l-0.2,0.2l0.1,0.2l-0.3,0.1c-0.3,0.1-0.6,0.2-0.9,0.2c-0.2-0.1-0.4-0.1-0.7-0.1l0.3-0.1l-0.3-0.1l0.3-0.1l0.1-0.1H172.6z M165.1,7.2
	c-0.2,0.2-0.3,0.3-0.4,0.4l0.2-0.1v0.1l-0.1,0.1v0.1l0.1-0.1v0.1L164.7,8l0.1-0.1L164.7,8l-0.1,0.2l-0.2,0.2h-0.1V8.3l0.2-0.2v0.1
	l-0.3,0.2h-0.1l0.2-0.2l-0.1-0.1h-0.1H164l0.1-0.1l0.2-0.1l0.1-0.1C164.5,7.7,164.8,7.4,165.1,7.2l0.1-0.2l0.2-0.1h0.1L165.1,7.2z
	 M192.5,31.2L192.5,31.2L192.5,31.2l-0.2-0.1l-0.1,0.1v0.3l-0.1,0.2l-0.1,0.2L192,32c-0.3,0.7-0.7,1.3-1.1,1.9l-0.2,0.3l-0.3,0.1
	l-0.3,0.2c-0.2-0.1-0.2-0.2-0.3-0.2l-0.1-0.2l0.1-0.3l-0.1-0.3l0.1-0.2l0.1-0.2l0.2-0.1l0.1-0.1l0.2-0.3l0.1-0.2l-0.1-0.3v-0.2
	l0.1-0.3l0.2-0.2l0.1-0.2h0.2l0.2-0.1l0.2-0.1h0.2l0.2-0.2l0.3-0.2l0.2-0.2v-0.3l0.2,0.1l0.2-0.2l0.1-0.2l0.2-0.2l0.1,0.2l0.1,0.2
	l0.1,0.2l-0.2,0.3l0.1,0.2L192.5,31.2z M201.8,23L201.8,23l-0.3,0.2l-0.1-0.3l-0.1-0.5l0.1-0.7l0.2,0.2l0.1,0.3l0.1,0.4V23z
	 M204,20.6L204,20.6l-0.1-0.3h-0.1c0.1,0.5,0.1,1.1,0.1,1.5h0.1c0,0.2,0.1,0.4,0.1,0.7l0.1,0.2l0.1,0.1
	C204.1,22.2,204,21.4,204,20.6z"/>
</svg>
