<?xml version="1.0" encoding="utf-8"?>
<!DOCTYPE svg PUBLIC "-//W3C//DTD SVG 1.1//EN" "http://www.w3.org/Graphics/SVG/1.1/DTD/svg11.dtd">
<svg version="1.1" baseProfile="full"
 xmlns="http://www.w3.org/2000/svg"
 xmlns:xlink="http://www.w3.org/1999/xlink"
 xmlns:ev="http://www.w3.org/2001/xml-events" 
  height="15px" 
  width="24px" 
>
<path fill="rgb( 219, 48, 113 )"
 d="M22.526,0.83100000000002 C22.526,0.83100000000002 22.526,0.83000000000004 22.526,0.83000000000004 C22.362,0.74000000000001 22.025,0.62699999999995 21.575,0.89099999999996 C21.575,0.89099999999996 17.401,3.53800000000001 17.401,3.53800000000001 C17.401,3.53800000000001 17.401,3.28499999999997 17.401,3.28499999999997 C17.401,1.87400000000002 16.232,0.726 14.796,0.726 C14.796,0.726 3.595,0.726 3.595,0.726 C2.16,0.726 0.992,1.87400000000002 0.992,3.28499999999997 C0.992,3.28499999999997 0.992,12.096 0.992,12.096 C0.992,13.5069999999999 2.16,14.655 3.595,14.655 C3.595,14.655 14.796,14.655 14.796,14.655 C16.232,14.655 17.401,13.5069999999999 17.401,12.096 C17.401,12.096 17.401,11.843 17.401,11.843 C17.401,11.843 21.599,14.503 21.599,14.503 C21.919,14.668 22.258,14.669 22.533,14.505 C22.854,14.3150000000001 23.001,13.9640000000001 23.001,13.7190000000001 C23.001,13.7190000000001 23.001,1.63499999999999 23.001,1.63499999999999 C23.001,1.375 22.852,1.01300000000003 22.526,0.83100000000002 ZM21.155,3.30799999999999 C21.155,3.30799999999999 21.155,12.074 21.155,12.074 C21.155,12.074 17.401,9.69799999999998 17.401,9.69799999999998 C17.401,9.69799999999998 17.401,5.68399999999997 17.401,5.68399999999997 C17.401,5.68399999999997 21.155,3.30799999999999 21.155,3.30799999999999 ZM15.554,3.28499999999997 C15.554,3.28499999999997 15.554,12.096 15.554,12.096 C15.554,12.505 15.214,12.838 14.796,12.838 C14.796,12.838 3.595,12.838 3.595,12.838 C3.178,12.838 2.839,12.505 2.839,12.096 C2.839,12.096 2.839,3.28499999999997 2.839,3.28499999999997 C2.839,2.87599999999998 3.178,2.54200000000003 3.595,2.54200000000003 C3.595,2.54200000000003 14.796,2.54200000000003 14.796,2.54200000000003 C15.214,2.54200000000003 15.554,2.87599999999998 15.554,3.28499999999997 Z "/>
</svg>
