<?xml version="1.0" encoding="utf-8"?>
<!-- Generator: Adobe Illustrator 18.0.0, SVG Export Plug-In . SVG Version: 6.00 Build 0)  -->
<!DOCTYPE svg PUBLIC "-//W3C//DTD SVG 1.1//EN" "http://www.w3.org/Graphics/SVG/1.1/DTD/svg11.dtd">
<svg version="1.1" id="Layer_1" xmlns="http://www.w3.org/2000/svg" xmlns:xlink="http://www.w3.org/1999/xlink" x="0px" y="0px"
	 viewBox="16.7 9.4 59.7 59.4" enable-background="new 16.7 9.4 59.7 59.4" xml:space="preserve">
<g>
	<path d="M42.2,68.7c-0.1,0-0.2-0.1-0.2-0.1h-0.1h-0.1l0,0c0.2,0.1,0.4,0.1,0.7,0.1l0,0L42.2,68.7z M22.8,20.9
		C22.8,20.9,22.7,20.9,22.8,20.9L22.8,20.9L22.8,20.9z M60.3,21.4l-0.2-0.3l-0.2-0.2h-0.2l-0.2-0.1l-0.2,0.2L58.9,21l-0.2,0.2
		l-0.2,0.1l-0.2,0.4l0.5,0.3l0.1,0.2c0.2,0.2,0.5,0.5,0.9,0.7l0.2,0.2h0.2l0.1,0.1L60,23.5l0.1,0.2v0.1L59.9,24l0.1,0.2l0.1,0.2
		l0.3,0.1l0.2,0.2l0.5,0.1l0.5-0.1v-0.1l-0.2-0.2L61.5,24l-0.2-0.1v-0.2H61v-0.4l0.3,0.1l0.2-0.1l-0.3-0.2L61,22.7l-0.2,0.1l0.1,0.2
		l-0.2-0.2l-0.1-0.1v-0.2l-0.1-0.2L60,22.2l-0.2-0.3l-0.2-0.1l-0.1-0.1l0.3,0.1l-0.1-0.2l0.2-0.1L60.3,21.4z M76,40.7v-0.4V40v-0.3
		v-0.2v-0.2V39c0-0.2-0.1-0.3-0.1-0.5v0.2v-0.2c0-0.2,0-0.5,0-0.9l0-0.3v-0.4l-0.1-0.2L75.7,36c-0.1-0.5-0.2-1-0.2-1.4l-0.1-0.4v0.2
		l-0.1,0.3l-0.1-0.1L75,34.6L75,34l-0.1-0.4L74.6,33v-0.2l-0.1-0.1c-0.1-0.2-0.2-0.4-0.2-0.7l-0.1-0.2v-0.2l-0.1-0.2h-0.1l0.1,0.2
		v0.2l-0.1-0.1v0.1l-0.1-0.1h-0.1v0.1h-0.1l-0.2,0.1l0.1,0.3v0.3l-0.2,0.2l-0.1,0.6l-0.1,0.3l-0.2,0.2c0,0.1,0,0.2,0.1,0.2l-0.1,0.1
		l-0.2,0.2h-0.1v0.3c0.1,0.3,0.1,0.7,0.2,1.1l-0.1,0.5l0.1,0.9h-0.1l-0.1,0.4l0.1,0.2l-0.2,0.1l-0.1,0.3l-0.1,0.1l-0.2-0.5
		c-0.1-0.4-0.2-0.9-0.2-1.2l-0.1-0.2l-0.2-0.5c-0.1-0.2-0.1-0.7-0.2-0.9l-0.3-0.7c-0.1-0.5-0.2-1.1-0.4-1.6l-0.1-0.6L70,32l-0.3,0.2
		l-0.2-0.1l-0.5-0.6l0.1-0.2l-0.1-0.2l-0.5-0.4l-0.2-0.1L68,30.3l-0.3-0.4L67.1,30h-0.5l-0.5,0.1c-0.3-0.1-0.8-0.2-1.1-0.2l-0.4-0.1
		l-0.2-0.6l-0.2-0.1l-0.2,0.1l-0.3,0.2L63,29.2l-0.6-0.3L62,28.8l-0.3-0.4l-0.5-0.6l-0.1,0.1l-0.2-0.2l-0.1,0.2h-0.2l0.1,0.2v0.1
		c0.1,0.2,0.2,0.5,0.4,0.7l0.2,0.1l0.1,0.2l0.2,0.2l0.1,0.2v0.2l0.1,0.2l0.1,0.1l0.1,0.2l0.1,0.1L62,30.2l0.1-0.2l0.1-0.1l0.1,0.1
		l0.1,0.2l-0.1,0.2l0.1,0.2h0.1l0.1,0.1l0.2-0.1c0.2,0,0.3,0,0.6,0.1l0.2-0.2l0.2-0.2l0.2-0.2l0.1-0.2l0.1,0.1v0.2l-0.1,0.1l0.1,0.3
		l0.2,0.2l0.2,0.2l0.2,0.1l0.2,0.1c0.1,0.1,0.2,0.2,0.3,0.4l0.1,0.1c0,0.1,0,0.1,0,0.1c-0.1,0.1-0.1,0.2-0.1,0.4l-0.1,0.2l-0.1,0.2
		h-0.3l-0.2-0.1v0.1l0.1,0.2V33c-0.1,0-0.1,0-0.2,0l-0.2,0.2v0.2l-0.1,0.1h-0.2l-0.2,0.1v0.2l-0.2,0.1L63.6,34l-0.2,0.2h-0.2
		l-0.2,0.2l0.1,0.1v0.2l-0.4,0.2l-0.7,0.2l-0.3,0.3h-0.2l-0.1-0.1L61,35.6l-0.2,0.1h-0.3h-0.1l-0.1,0.2L60,36l-0.1,0.1h-0.2
		l-0.1,0.1h-0.2L59.2,36v-0.2l-0.1-0.2l-0.2-0.3L58.8,35h0.1l-0.1-0.2l0.1-0.1l-0.1-0.2l-0.1-0.2l-0.1-0.2l-0.1-0.1l-0.1-0.2
		L58,33.1l-0.2-0.4l-0.3-0.3l-0.2-0.1l-0.3-0.5l-0.1-0.3v-0.3l-0.2-0.5l-0.2-0.1l-0.2-0.1L56,30.1V30l-0.1-0.2l-0.1-0.1l-0.2-0.3
		c-0.2-0.2-0.4-0.5-0.6-0.7h-0.2l0.1-0.2v-0.2l0.1-0.2v-0.1l-0.1,0.2l-0.1,0.4l-0.1,0.2l-0.1,0.1c-0.1-0.1-0.2-0.2-0.4-0.3l-0.4-0.7
		h-0.1l0.2,0.5l0.2,0.5l0.4,0.7l0.2,0.2l0.2,0.2l0.5,0.5l-0.1,0.1l0.1,0.2l0.6,0.4l0.1,0.1l0.2,0.5L56,31.9l0.1,0.5l0.2,0.6
		c0.2,0.1,0.2,0.2,0.5,0.2l0.2,0.6l0.2,0.5l0.2,0.2l0.7,0.5c0.2,0.2,0.5,0.5,0.7,0.8l0.2,0.2l0.1,0.2v0.2L59,36.5
		c0.1,0.1,0.2,0.2,0.3,0.2l0.1,0.2l0.2,0.2h0.2l0.4-0.1l0.5-0.1l0.4-0.2l0.2-0.1l0.2-0.1c0.1,0,0.2,0,0.4,0l0.2-0.1l0.2-0.1l0.2-0.2
		H63v0.1l-0.1,0.2v0.2L62.8,37l-0.2,0.6c-0.1,0.4-0.2,0.9-0.5,1.2l-0.3,0.8c-0.2,0.4-0.6,0.9-0.9,1.2l-0.5,0.4l-0.7,0.5l-0.6,0.3
		l-0.5,0.6L58.4,43l-0.1,0.1L58,43.3l-0.1,0.2l-0.1,0.1L57.6,44l-0.1,0.1l-0.1,0.2l-0.2,0.2l-0.2,0.6v0.2l0.2,0.2v0.1L56.9,46v0.1
		l-0.1,0.2l0.1,0.2l0.1,0.5l0.2,0.1l0.1,0.2l-0.1,0.5v0.4l-0.1,0.7l0.1,0.2l-0.2,0.2l-0.2,0.2l-0.2,0.2c-0.2,0.1-0.7,0.2-0.9,0.3
		l-0.6,0.5l-0.2,0.1l-0.3,0.2l-0.2,0.1l-0.1,0.2l0.2,0.3l0.1,0.2v0.1h0.1l-0.1,0.5l-0.2,0.2l0.1,0.1l-0.1,0.2l-0.2,0.1
		c-0.2,0.1-0.6,0.2-0.9,0.3L52.9,54v0.2h0.1L53,54.5l-0.2,0.2L52.7,55l-0.1,0.2c-0.1,0.1-0.2,0.2-0.4,0.2l-0.2,0.2L51.7,56l-0.2,0.2
		c-0.2,0.2-0.5,0.4-0.9,0.6L50.3,57l-0.4,0.1h-0.2l-0.1,0.1L49.3,57l-0.2,0.1L48.8,57l-0.2,0.1h-0.2l-0.4,0.1l-0.3,0.1l-0.2,0.1
		h-0.4l-0.2-0.1h-0.1l-0.2-0.2v0.1v-0.1v-0.2l-0.1-0.2l0.1-0.1v-0.2c-0.2-0.4-0.5-0.9-0.8-1.2l-0.3-0.2L45,54.4L44.9,54l-0.1-0.2
		l-0.2-0.7v-0.6l-0.1-0.2l-0.1,0.3l-0.2-0.3l-0.2-0.5l-0.1-0.2L43.4,51l-0.1-0.3v-0.2l0.1-0.4l0.2-0.4v-0.2l0.2-0.4l0.1-0.2l0.2-0.2
		l0.2-0.2l0.1-0.3v-0.3l-0.2-0.2c-0.1-0.2-0.2-0.3-0.2-0.6v-0.1l0.2-0.2C44.1,46.3,44,46,44,45.7l-0.2-0.2l0.1-0.1l-0.1-0.2
		l-0.1-0.3l-0.3-0.5l-0.8-0.5l-0.3-0.4l-0.2-0.5v-0.2l0.1-0.2c0.1-0.2,0.2-0.5,0.2-0.7l-0.2-0.1l0.2-0.6l0.1-0.4l-0.2-0.3l-0.2-0.1
		l-0.1-0.2l-0.1-0.1v-0.1l-0.5,0.2l-0.2-0.1L40.7,40h-0.4L40,39.7l-0.2-0.3L39.5,39c-0.2,0-0.6,0-0.9,0l-0.5,0.1l-0.4,0.1l-0.9,0.2
		l-0.2,0.2l-0.5,0.1l-0.5-0.2h-0.4L35,39.4h-0.2l-0.6,0.1c-0.2,0.1-0.5,0.2-0.9,0.2h-0.1H33l-0.5-0.2l-0.4-0.2L31.8,39l-0.2-0.3
		l-0.1-0.1l-0.3-0.2l-0.3-0.2L30.7,38l0-0.3l-0.2-0.2l-0.2-0.2l-0.1-0.1L30,37l-0.1-0.2l-0.1-0.1l-0.1-0.1l-0.2-0.3l-0.2-0.1
		L29.2,36v-0.1l-0.1-0.1c0-0.2-0.1-0.3-0.1-0.5l0.1-0.2v-0.4l-0.2-0.2l0.2-0.1l0.2-0.3l0.1-0.2v-0.2l0.1-0.2l0.1-0.5v-0.5V32
		l0.1-0.2h-0.1l-0.2-0.3c0.1-0.1,0.1-0.2,0.1-0.4l0.2-0.1l0.2-0.2v-0.2l0.2-0.3l0.2-0.2l0.2-0.1l0.2-0.2l0.1-0.2l0.2-0.2l0.2-0.2
		l0.3-0.5l0.2-0.2l0.4-0.1l0.4-0.2l0.2-0.1l0.4-0.3v-0.5l0.2-0.4l0.1-0.2l0.3-0.2c0.2-0.1,0.5-0.2,0.9-0.3l0.4-0.4l0.2-0.2H36
		l0.2,0.2h0.4l0.5,0.1h0.2l0.5-0.2l0.5-0.1l0.2-0.2l0.5-0.1c0.5-0.1,1-0.1,1.5-0.1l0.2,0.1l0.5-0.2h0.5l0.2,0.1h0.2l0.5-0.2l0.2,0.1
		l0.1,0.2l0.4-0.2v0.1l-0.2,0.2V25l0.2,0.1l-0.1,0.3L43,25.7l0.1,0.2h0.2l0.1,0.2l0.2,0.1l0.5,0.2l0.2-0.1l0.4,0.1l0.7,0.2l0.2,0.4
		l0.4,0.1l0.7,0.2l0.5,0.2l0.2-0.1l0.1-0.3l-0.1-0.2l0.1-0.2l0.3-0.2l0.2-0.1l0.7,0.1l0.2,0.2h0.2l0.2,0.1l0.5,0.1l0.1,0.2h0.6
		c0.3,0.1,0.8,0.2,1.1,0.3l0.3-0.1l0.2-0.1l0.4-0.1l0.3,0.1l0.1,0.2l0.1-0.1l0.3,0.1l0.3,0.1l0.2-0.1l0.1-0.1h0l0.1-0.2l0.1-0.3
		l0.1-0.1l0,0l0.1-0.3L55,26l0,0l-0.1-0.5l0.1-0.2l-0.2-0.2l0.1-0.2L54.6,25l-0.3-0.1L54,25.1l-0.7,0.1L53,25h-0.5l-0.1,0.2
		l-0.2,0.1L51.8,25h-0.5l-0.2-0.4l-0.3-0.2l0.2-0.2l-0.5-0.2l0.5-0.3h0.7l0.1-0.2l0.9,0.1l0.5-0.2l0.5-0.1h0.7l0.8,0.2l0.6,0.2
		l0.5-0.1l0.3,0.1l0.4-0.2v-0.2l-0.2-0.5l-0.2-0.2H56l-0.2-0.1l-0.6-0.3l-0.4-0.1l-0.3-0.2l0.2-0.1l0.2-0.2l-0.2-0.2l0.5-0.1v-0.1
		l-0.3,0.1h-0.2L54.4,21h-0.5l-0.2,0.1l0.1,0.2l0.2,0.1h0.4l-0.1,0.1l-0.4,0.1L53.5,22l-0.2-0.1l0.1-0.2l-0.5-0.1l0.1-0.1l0.3-0.1
		l-0.1-0.1l-0.7-0.1L52.4,21l-0.3,0.1L52,21.3l-0.2,0.2v0.1l-0.2,0.1l-0.1-0.1l-0.1,0.5l-0.2,0.2L51,22.6l0.2,0.2l0.1,0.2l0.3,0.1
		l-0.1,0.1H51l-0.2,0.1l-0.4,0.2l-0.1-0.2v-0.1H50l-0.2-0.1l-0.5,0.1l0.2,0.2l-0.2,0.1c-0.1,0-0.2,0-0.2,0l-0.1-0.2v0.1l0.1,0.2
		l0.2,0.2L49.1,24l0.2,0.2l0.2,0.1v0.1l-0.5-0.2l0.1,0.2l-0.3,0.1l0.2,0.3h-0.2l-0.4-0.2l-0.2-0.3L48.1,24c-0.1-0.1-0.2-0.2-0.4-0.4
		l-0.1-0.1h-0.1v-0.1l-0.2-0.1l-0.1-0.2l0.1-0.3l0.1-0.1l-0.1-0.1l-0.1-0.1l-0.1-0.1c-0.2-0.1-0.4-0.2-0.6-0.2L46.3,22l-0.4-0.1
		l-0.3-0.2h0.1l-0.2-0.2v-0.1l-0.2-0.1L45,21.4l-0.1-0.1v-0.1l0,0l0.1-0.1L44.7,21l-0.3,0.1v0.2l-0.1,0.1l0.1,0.2l0.4,0.2l0.2,0.3
		l0.5,0.2h0.3l0.1,0.1l-0.2,0.2c0.2,0.1,0.5,0.2,0.7,0.2l0.3,0.2l0.1,0.1l-0.1,0.1l-0.2-0.2l-0.3-0.1l-0.2,0.3l0.2,0.2l-0.1,0.2
		h-0.2l-0.2,0.2h-0.2c0-0.1,0-0.1,0-0.1l0.1-0.2l0.1-0.1c-0.1-0.1-0.2-0.2-0.2-0.5l-0.2-0.1L45.2,23l-0.3-0.1l-0.2-0.2h-0.2
		l-0.3-0.2l-0.3-0.2l-0.2-0.2l-0.1-0.4l-0.2-0.1l-0.3-0.1l-0.2,0.1l-0.2,0.2h-0.2L41.9,22L41,21.9L40.3,22l-0.1,0.2v0.2l-0.5,0.3
		l-0.6,0.1V23l-0.2,0.2l-0.2,0.3l0.1,0.2L38.5,24l-0.2,0.2l-0.3,0.1l-0.3,0.2c-0.3,0-0.7,0-1,0l-0.2,0.1L36.1,25l-0.3-0.1l-0.1-0.1
		l-0.1-0.2h-0.3l-0.2,0.1l-0.2-0.1l-0.2,0.1l0.2-0.2l0.1-0.2L34.7,24l-0.2-0.3l0.1-0.2l0.2-0.1l0.1-0.2l0.2-0.2l0.1-0.2v-0.1v-0.2
		l0.1-0.2l-0.1-0.2l0.7-0.2l0.5,0.1h0.5l0.4,0.1h0.3h0.7l0.2-0.2l0.2-0.8l-0.2-0.4l-0.2-0.2l-0.5-0.2l0.1-0.2l0.5-0.1l0.7,0.1v-0.4
		l0.2,0.2l1-0.2l0.2-0.2c0.2-0.1,0.5-0.1,0.7-0.1l0.2-0.1l0.5-0.5l0.5-0.1h0.2l0.1-0.1h0.4l0.1,0.1l0.2-0.2l-0.1-0.1v-0.2l-0.1-0.2
		l0.1-0.3l0.1-0.1h0.1h0.3l0.1-0.1l0.2-0.1L44.2,17H44l0.1,0.1l0.2,0.1l-0.1,0.1L44,17.3l-0.2,0.2l0.1,0.2v0.1l0.3,0.1V18l0.3-0.1
		l0.2-0.1l0.4,0.1l0.2,0.1l0.2-0.1c0.3-0.1,0.7-0.2,1.1-0.2l0.3,0.1v0.1h0.3l0.1-0.1l0.5-0.1l-0.1-0.2v-0.2l0.2-0.2l0.2-0.1l0.2,0.2
		h0.2c0-0.1,0.1-0.2,0.1-0.4l-0.1,0.1l-0.1-0.1l0.1-0.1l0.4-0.1l0.4-0.1l0.3,0.1h0.3l0.3-0.2L50.2,16h-0.6l-0.5,0.2l-0.5,0.1
		l-0.2-0.2L48,15.9l0.1-0.2l-0.2-0.2l0.1-0.2l0.2-0.2l0.7-0.2l0.2-0.1L49,14.6l-0.4-0.1l-0.5,0.1l-0.2,0.1l0.1,0.2
		c-0.3,0.2-0.7,0.2-1.1,0.5l-0.2,0.4l0.2,0.2l0.2,0.2l-0.2,0.3h-0.3l-0.2,0.5L46,17.4l-0.4-0.1l-0.4,0.2h-0.4l-0.1-0.2l-0.2-0.4
		l-0.1-0.5l-0.2-0.2l-0.9,0.3l-0.5,0.1l-0.4-0.2l-0.1-0.3l0.1-0.7l0.3-0.2l0.9-0.2l0.7-0.2c0.5-0.2,0.9-0.6,1.4-0.9
		c0.4-0.2,0.9-0.2,1.2-0.5l0.7-0.1h0.4l0.3-0.2h0.5l0.4,0.1l0.9,0.2l-0.2,0.1l0.3,0.2l0.2-0.1l0.5,0.2l0.7,0.1l1.1,0.2l0.2,0.1
		l0.1,0.2l-0.2,0.1l-0.4,0.1c-0.4-0.1-0.9-0.2-1.3-0.2H51l0.5,0.2l0.2,0.4c0.2,0.1,0.4,0.1,0.7,0.2V15l-0.2-0.1l0.2-0.1l0.8,0.2
		l0.2-0.1l-0.3-0.2l0.5-0.2h0.2l0.2,0.1v-0.2l-0.2-0.2v-0.2l-0.2-0.2l0.7,0.1l0.2,0.1h-0.2l0.1,0.1l0.2,0.1l0.3-0.1l-0.1-0.2
		c0.3-0.1,0.7-0.2,1-0.3H56l-0.1,0.2l0.2,0.1l0.1-0.1h0.4l0.2-0.1l0.4,0.2l0.1-0.2L57,13.5v-0.1l0.7,0.1c0.5,0.1,0.9,0.2,1.4,0.3
		h-0.2l-0.3-0.1l-0.1-0.1h-0.2l-0.1-0.1l-0.3-0.2l-0.1-0.1v-0.2l-0.2-0.2l0.1-0.1l0.5,0.1l0.2,0.1l0.1,0.2l0.2,0.1l0.2,0.2l0.4,0.3
		l0.3,0.2l0.2,0.2l0.1,0.3l0.2,0.1l-0.1-0.1l0.1-0.1l-0.1-0.1V14l-0.2-0.2l-0.2-0.2h-0.2l-0.2-0.1l-0.2-0.2h-0.4V13l-0.2-0.2h0.1
		l0.2,0.1l0.2,0.2l0.2,0.1l-0.2-0.2l0.1-0.1h0.2l0.4,0.1l-0.4-0.2l-0.4-0.2l0.2-0.1h0.2h0.2l-0.2-0.1L59,12.3h0.1v-0.1h0.1l-0.1-0.1
		l0,0C52.2,9,44.4,8.5,37.3,10.8h-0.1l0.4-0.1v0.1h0.2v0.1l0.1-0.1l0.2-0.1l0.5-0.1h0.2l0.2-0.1c0.3,0,0.8,0,1.1,0
		c0.2,0.1,0.3,0.1,0.5,0.1l-0.3,0.1c-0.3,0-0.8,0-1.1,0l0,0h0.4l0.3,0.1l0.3-0.1v0.1L39.9,11c0.4-0.1,0.9-0.1,1.2-0.1l0.4,0.1V11
		l-0.9,0.1l0,0h-0.1H40h0.3c-0.2,0.1-0.5,0.2-0.7,0.2l-0.2,0.2v0.1h-0.2l-0.3,0.1l0.2,0.1l-0.2,0.2h-0.2v0.2l-0.4,0.1l0.1,0.1
		L38,12.7h-0.2h-0.2v0.2L37.4,13l-0.2-0.3l-0.2,0.1l0.2,0.1l0.1,0.1l-0.1,0.2l-0.4,0.1c0-0.1-0.1-0.2-0.1-0.2l-0.1,0.2l-0.3,0.1
		c0.2,0,0.5,0,0.7,0.1c-0.5,0.1-0.9,0.2-1.4,0.3l-0.7,0.1h-0.2l-0.2,0.1l-0.6,0.2L33,14.3h-0.1c-0.2,0.1-0.4,0.1-0.6,0.1l-0.4,0.1
		l-0.2,0.2l-0.2,0.2l-0.5,0.2l-0.2,0.2c-0.2,0.2-0.5,0.3-0.8,0.5h-0.2l0.1-0.2h-0.2l0.1-0.2l0.2-0.2l0.2-0.3l0.2-0.2l0.2-0.2
		l0.2-0.2l0.2-0.2l0.1-0.1l0.5-0.2l0.2-0.1c0.2-0.1,0.3-0.2,0.5-0.2c-0.1,0.1-0.2,0.1-0.3,0.1L32,13.5v-0.1l0.2-0.2l0.2-0.1h0.1
		l0.2,0.1l0.1-0.2l0.1-0.1h-0.1l0.1-0.1l0.5-0.2l0.1-0.1c0.2-0.1,0.4-0.2,0.6-0.3l0.1-0.1c-2.4,1.1-4.7,2.6-6.7,4.2
		c-0.2,0.2-0.3,0.3-0.5,0.5L26.7,17l-0.1,0.2l-0.2,0.2l0.1,0.1l-0.1,0.1l-0.2,0.2l0.1,0.1L26.1,18l-0.3,0.3l-0.2,0.1l0,0l-0.2,0.1
		l-0.4,0.2l-0.3,0.2l-0.2,0.1l-0.1-0.1l0,0c-0.2,0.2-0.3,0.3-0.5,0.5l0,0l0,0c-0.2,0.2-0.5,0.6-0.8,0.9l0,0.2l0.2-0.1l0.4-0.4
		l-0.2,0.2l-0.1,0.1l-0.2,0.2l-0.3,0.2l-0.2,0.2l-0.1,0.1c-3.3,4.4-5.3,9.6-5.8,15.3v0.1l0.1,0.1l0.1-0.2v-0.2h0.1h0.1l-0.1,0.1v0.2
		l0.1,0.1l0.1,0.2v0.4h0c0.1,0.1,0.1,0.2,0.1,0.2v0.3v0.2l0,0c0,0.2,0,0.5,0.1,0.5l0.2,0.1v-0.1l0.1-0.1l0.2,0.2
		c0,0.1,0.1,0.1,0.1,0.2l0.2,0.5l0.1,0.2h0.1c0.1,0.4,0.1,0.8,0.2,1.2h0.1v0.3l-0.1,0.4l0.1,0.2l0.3,0.1l0.1,0.5l0.1-0.2l0.2,0.2
		l0.4,0.2l0.1,0.2v0.2l0.2-0.2l0.5,0.2h0.4l0.5,0.4l0.3,0.5l0.2,0.1h0.2l0.1,0.2c0.1,0.2,0.2,0.6,0.2,0.9v0.8l-0.1,0.4l-0.2,0.7
		l0.1,0.7l-0.1,0.4h-0.1v0.3l0.2,0.9c0.1,0.3,0.1,0.7,0.2,1v0.2l0.2,0.6V52l0.1,0.5l-0.1,0.2l0.1,0.2c-0.1,0-0.2,0-0.2,0L22.7,53
		l-0.1,0.2l-0.2,0.1l-0.1,0.3l0.1,0.4l0.1,0.2l0.2,0.2l0.2,0.4l0.1,0.2v0.2l0.2,0.7l0.1,0.2v0.2l0.2,0.3l0.1,0.2l0.1,0.2v0.2
		l-0.2-0.1l-0.1,0.1l-0.2-0.2h-0.1l-0.2-0.2l0.1,0.2l0.3,0.2l0.2,0.2l0.2,0.2l0.1,0.2l0.2,0.5v0.1L23.9,59l-0.1-0.1
		c0.1,0.2,0.2,0.2,0.4,0.5l0.2,0.2l0.1,0.1v0.1c2.5,2.6,5.5,4.8,8.7,6.3h0.1h0.1c2.4,1.1,5,2,7.7,2.4l-0.2-0.1h-0.1l0,0l0,0v-0.1
		v-0.1l0.2,0.1h0c0.1,0,0.1,0,0.1,0h0.1h0.1h0.1c0.1,0,0.1-0.1,0.1-0.1v-0.1l0,0l-0.1-0.1L41.4,68l-0.1-0.1v-0.1
		c0.1,0,0.1-0.1,0.2-0.1l0.1-0.1v-0.1l-0.1-0.1l0.1-0.1h0.2l0.1,0.1h0.2L42,67.4v-0.1h0.2l0.1,0.1h0.1c0.1,0,0.2-0.1,0.3-0.1H43
		l0.1,0.1l0.1-0.1c0.2-0.1,0.2-0.1,0.5-0.1l0.1-0.1H44l0.1-0.1l0.1-0.1l0.1,0.1h0.1c0.1,0.1,0.2,0.1,0.2,0.1h0.2l0.1-0.1l0.2-0.1
		h0.2l0.1,0.1l0.1-0.1c0.2,0,0.3,0,0.6,0c0.1,0,0.2,0,0.3,0.1l0.1,0.1l0.1,0.1h0.2c0.2,0,0.3,0,0.5,0c0.1,0,0.2,0,0.3-0.1l0.2-0.1
		h0.2h0.2l0.2-0.1l0.2-0.1l0.1-0.1h0.2V67l0.1,0.1h0.2l0.1,0.1l0.1,0.1l0.2-0.1L50,67h0.2l0.2-0.1c0.2-0.1,0.7-0.1,0.9-0.2h0.1
		c0.1-0.1,0.2-0.1,0.4-0.1H52l0.2-0.1l0.1-0.1c0.2-0.1,0.5-0.1,0.8-0.1c0.1,0,0.2,0,0.2,0.1l0.1,0.1l-0.1,0.1l0.1,0.1v0.1h0.1v0.1
		v0.1h0.1l0.2-0.1l0.2-0.1l0.1,0.1c0.1,0,0.1,0,0.2,0.1h0.1c0.1,0,0.1,0,0.1,0l-0.2,0.2c-0.1,0.1-0.2,0.1-0.2,0.1
		c-0.1,0-0.2,0.1-0.4,0.1l-0.1,0.1h0.1l-0.2,0.1c-0.1,0.1-0.2,0.1-0.3,0.1l-0.1,0.1h0.1h0.2c0.2-0.1,0.5-0.1,0.7-0.2
		c0.1-0.1,0.2-0.1,0.4-0.1h0.1h0.1c0.1,0,0.2,0,0.2-0.1c0.2-0.1,0.6-0.2,0.9-0.2c0.1-0.1,0.2-0.1,0.4-0.1h0.1c0.1,0,0.2,0,0.2-0.1
		h0.1l0.2-0.1l0.2-0.1c-0.1,0.1-0.2,0.1-0.2,0.1v0.1l0,0h0.1c9.3-3.5,16.8-12.3,18.5-23c0-0.3,0.1-0.7,0.1-1.1v-0.4
		c0-0.2,0-0.5,0-0.9l-0.1-0.2v-0.4c-0.1-0.2-0.1-0.6-0.2-0.9v-0.2h0.1l0.2,0.1c0.1,0.3,0.1,0.7,0.1,1.1v0.6H76c0-0.1,0-0.2,0-0.2
		v-0.1v-0.2L76,40.7z M44.3,24.1l0.5,0.1c0.2,0,0.5-0.1,0.9-0.1l-0.2,0.4l0.1,0.1l-0.1,0.2l-0.3-0.2l-0.2-0.1l-0.7-0.2L44.3,24.1z
		 M54.6,12.3c0.2-0.1,0.4-0.2,0.6-0.2h0.5l0.1-0.1H56l0.2,0.1v0.1c-0.2,0.1-0.5,0.1-0.7,0.2l-0.2,0.2v0.2l-0.1,0.2l0.2,0.2l0.6,0.2
		l0,0l-0.7-0.1l-0.2-0.1l-0.4-0.1l-0.2-0.1l0.2-0.1l-0.1-0.1l0.2-0.2h-0.2l0.2-0.2L54.6,12.3z M38.3,18.1l0.5,0.1L39,18l-0.2-0.2
		l-0.4-0.1v-0.1l0.2-0.1l-0.1-0.1l-0.2,0.2l0.1-0.2L38.2,17l0.2-0.3l0.3-0.2H39h0.4L39,16.9l0.3-0.1h0.3l-0.2,0.2l-0.4,0.2h0.3
		l0.2,0.4l0.2,0.1l0.1,0.4l0.1,0.1l0.4,0.1l-0.1,0.3l-0.2,0.1l0.1,0.2l-0.4,0.2h-0.5h-0.7l-0.2-0.1l-0.2,0.2l-0.3-0.1l-0.2,0.1
		l-0.2-0.1L38,19l0.3-0.1l-0.5-0.1l0-0.1l0.4-0.1l-0.1-0.2L38.3,18.1z M37.8,17.5l0.2,0.2L37.8,18l0,0l0,0.2l-0.4,0.2l-0.7,0.2
		l-0.5-0.1l0.4-0.3V18c0.2-0.1,0.6-0.2,0.9-0.4L37.8,17.5L37.8,17.5L37.8,17.5z M35.2,14.4l0.2-0.2l0.3-0.1l0.2,0.2l0.5-0.1l0.2,0.1
		l0.5-0.1h0.4l-0.2,0.2l0.1,0.2l-0.4,0.1c-0.3,0.1-0.8,0.2-1.1,0.2c-0.2-0.1-0.6-0.1-0.9-0.1l0.3-0.1L35,14.5l0.5-0.1l0.1-0.1
		L35.2,14.4z M25.4,18.7c-0.2,0.2-0.4,0.3-0.6,0.5l0.2-0.1v0.1l-0.1,0.1v0.1l0.1-0.1v0.1l-0.2,0.2l0.1-0.1l-0.1,0.1L24.6,20
		l-0.2,0.2h-0.1v-0.1l0.2-0.2v-0.1l-0.4,0.2h-0.1l0.2-0.2l-0.1-0.1h-0.1h-0.2l0.1-0.1l0.2-0.1l0.1-0.1c0.2-0.2,0.6-0.5,0.9-0.8
		l0.2-0.2l0.2-0.1h0.1L25.4,18.7z M61.1,50.1L61.1,50.1L61,50.2L60.9,50l-0.1,0.1v0.3l-0.1,0.2l-0.1,0.2l-0.1,0.3
		c-0.5,0.9-0.9,1.7-1.4,2.5l-0.2,0.5l-0.3,0.1L58,54.5c-0.2-0.1-0.2-0.2-0.5-0.2L57.5,54l0.1-0.3l-0.1-0.3l0.1-0.2l0.1-0.2l0.2-0.1
		l0.1-0.1l0.2-0.3l0.1-0.2l-0.1-0.4v-0.2l0.1-0.4l0.2-0.2l0.1-0.2h0.2l0.2-0.1l0.2-0.1h0.2l0.2-0.2l0.4-0.2l0.2-0.2v-0.2l0.2,0.1
		l0.2-0.2l0.1-0.2l0.2-0.2l0.1,0.2l0.1,0.2l0.1,0.2l-0.2,0.5l0.1,0.2L61.1,50.1z M73.1,39.4L73,39.5l-0.2,0.1l-0.1-0.4l-0.1-0.7
		l0.1-0.9l0.2,0.2l0.1,0.3l0.1,0.5L73.1,39.4z M76,36.3L76,36.3L76,35.8h-0.1c0.1,0.7,0.1,1.4,0.1,2.1h0.1c0,0.2,0.1,0.6,0.1,0.9
		l0.1,0.2l0.1,0.1C76.2,38.2,76.1,37.2,76,36.3z"/>
</g>
</svg>
