<?xml version="1.0" encoding="utf-8"?>
<!DOCTYPE svg PUBLIC "-//W3C//DTD SVG 1.1//EN" "http://www.w3.org/Graphics/SVG/1.1/DTD/svg11.dtd">
<svg version="1.1" baseProfile="full"
 xmlns="http://www.w3.org/2000/svg"
 xmlns:xlink="http://www.w3.org/1999/xlink"
 xmlns:ev="http://www.w3.org/2001/xml-events" 
  height="14px" 
  width="6px" 
>
<path fill="rgb( 255, 255, 255 )"
 d="M1.3610000000001,4.577 C1.3610000000001,4.577 0,4.577 0,4.577 C0,4.577 0,6.97000000000003 0,6.97000000000003 C0,6.97000000000003 1.3610000000001,6.97000000000003 1.3610000000001,6.97000000000003 C1.3610000000001,6.97000000000003 1.3610000000001,14 1.3610000000001,14 C1.3610000000001,14 3.97900000000004,14 3.97900000000004,14 C3.97900000000004,14 3.97900000000004,6.94 3.97900000000004,6.94 C3.97900000000004,6.94 5.80600000000004,6.94 5.80600000000004,6.94 C5.80600000000004,6.94 6,4.577 6,4.577 C6,4.577 3.97900000000004,4.577 3.97900000000004,4.577 C3.97900000000004,4.577 3.97900000000004,3.69400000000002 3.97900000000004,3.23099999999999 C3.97900000000004,2.67399999999998 4.08300000000008,2.45299999999997 4.58300000000008,2.45299999999997 C4.9860000000001,2.45299999999997 6,2.45299999999997 6,2.45299999999997 C6,2.45299999999997 6,0 6,0 C6,0 4.50700000000006,0 4.1869999999999,0 C2.24000000000001,0 1.3610000000001,0.92399999999998 1.3610000000001,2.69200000000001 C1.3610000000001,4.233 1.3610000000001,4.577 1.3610000000001,4.577 Z "/>
</svg>
