<?xml version="1.0" encoding="utf-8"?>
<!DOCTYPE svg PUBLIC "-//W3C//DTD SVG 1.1//EN" "http://www.w3.org/Graphics/SVG/1.1/DTD/svg11.dtd">
<svg version="1.1" baseProfile="full"
 xmlns="http://www.w3.org/2000/svg"
 xmlns:xlink="http://www.w3.org/1999/xlink"
 xmlns:ev="http://www.w3.org/2001/xml-events" 
  height="12px" 
  width="12px" 
>
<path fill="rgb( 255, 255, 255 )"
 d="M10.616,5.07600000000002 C10.616,5.07600000000002 9.57099999999991,5.07600000000002 9.57099999999991,5.07600000000002 C9.64699999999993,5.37200000000001 9.69200000000001,5.68099999999998 9.69200000000001,6 C9.69200000000001,8.03899999999999 8.03899999999999,9.69200000000001 6,9.69200000000001 C3.96100000000001,9.69200000000001 2.30799999999999,8.03899999999999 2.30799999999999,6 C2.30799999999999,5.68099999999998 2.35300000000007,5.37200000000001 2.42900000000009,5.07600000000002 C2.42900000000009,5.07600000000002 1.38400000000001,5.07600000000002 1.38400000000001,5.07600000000002 C1.38400000000001,5.07600000000002 1.38400000000001,10.154 1.38400000000001,10.154 C1.38400000000001,10.408 1.59099999999989,10.615 1.846,10.615 C1.846,10.615 10.154,10.615 10.154,10.615 C10.4090000000001,10.615 10.616,10.408 10.616,10.154 C10.616,10.154 10.616,5.07600000000002 10.616,5.07600000000002 C10.616,5.07600000000002 10.616,5.07600000000002 10.616,5.07600000000002 ZM10.616,1.846 C10.616,1.59100000000001 10.4090000000001,1.38400000000001 10.154,1.38400000000001 C10.154,1.38400000000001 8.76900000000001,1.38400000000001 8.76900000000001,1.38400000000001 C8.5139999999999,1.38400000000001 8.30799999999999,1.59100000000001 8.30799999999999,1.846 C8.30799999999999,1.846 8.30799999999999,3.23099999999999 8.30799999999999,3.23099999999999 C8.30799999999999,3.48500000000001 8.5139999999999,3.69200000000001 8.76900000000001,3.69200000000001 C8.76900000000001,3.69200000000001 10.154,3.69200000000001 10.154,3.69200000000001 C10.4090000000001,3.69200000000001 10.616,3.48500000000001 10.616,3.23099999999999 C10.616,3.23099999999999 10.616,1.846 10.616,1.846 ZM6,3.69200000000001 C4.72499999999991,3.69200000000001 3.69200000000001,4.72500000000002 3.69200000000001,6 C3.69200000000001,7.274 4.72499999999991,8.30799999999999 6,8.30799999999999 C7.27399999999989,8.30799999999999 8.30799999999999,7.274 8.30799999999999,6 C8.30799999999999,4.72500000000002 7.27399999999989,3.69200000000001 6,3.69200000000001 M10.616,12 C10.616,12 1.38400000000001,12 1.38400000000001,12 C0.61999999999989,12 0,11.38 0,10.615 C0,10.615 0,1.38400000000001 0,1.38400000000001 C0,0.62 0.61999999999989,0 1.38400000000001,0 C1.38400000000001,0 10.616,0 10.616,0 C11.3800000000001,0 12,0.62 12,1.38400000000001 C12,1.38400000000001 12,10.615 12,10.615 C12,11.38 11.3800000000001,12 10.616,12  "/>
</svg>
