<?xml version="1.0" encoding="utf-8"?>
<!DOCTYPE svg PUBLIC "-//W3C//DTD SVG 1.1//EN" "http://www.w3.org/Graphics/SVG/1.1/DTD/svg11.dtd">
<svg version="1.1" baseProfile="full"
 xmlns="http://www.w3.org/2000/svg"
 xmlns:xlink="http://www.w3.org/1999/xlink"
 xmlns:ev="http://www.w3.org/2001/xml-events" 
  height="16px" 
  width="18px" 
>
<path opacity="1" fill="rgb( 255, 255, 255 )"
 d="M16.998,16 C16.998,16 1.001,16 1.001,16 C0.95699999999999,13.462 2.143,10.8 5.61,8.95800000000003 C4.911,8.21800000000002 4.05200000000001,6.91899999999998 4.05200000000001,5.00299999999999 C4.05200000000001,2.24400000000003 6.288,0 9.03700000000001,0 C11.785,0 14.021,2.24400000000003 14.021,5.00299999999999 C14.021,6.94 13.141,8.245 12.422,8.988 C15.74,10.686 17.043,13.421 16.998,16 ZM2.71299999999999,14.437 C2.71299999999999,14.437 15.285,14.437 15.285,14.437 C14.536,10.99 10.847,10.322 10.613,9.18000000000001 C10.354,7.92000000000002 12.464,7.77199999999999 12.464,5.00299999999999 C12.464,3.10599999999999 10.926,1.56400000000002 9.03700000000001,1.56400000000002 C7.14700000000001,1.56400000000002 5.61,3.10599999999999 5.61,5.00299999999999 C5.61,7.733 7.65600000000001,7.90899999999999 7.40600000000001,9.14299999999997 C7.167,10.315 3.452,10.952 2.71299999999999,14.437 Z "/>
</svg>
