<?xml version="1.0" encoding="utf-8"?>
<!-- Generator: Adobe Illustrator 18.0.0, SVG Export Plug-In . SVG Version: 6.00 Build 0)  -->
<!DOCTYPE svg PUBLIC "-//W3C//DTD SVG 1.1//EN" "http://www.w3.org/Graphics/SVG/1.1/DTD/svg11.dtd">
<svg version="1.1" id="Layer_2" xmlns="http://www.w3.org/2000/svg" xmlns:xlink="http://www.w3.org/1999/xlink" x="0px" y="0px"
	 viewBox="22.2 18.5 41.1 41.1" enable-background="new 22.2 18.5 41.1 41.1" xml:space="preserve">
<g>
	<path d="M42.8,18.5c-11.3,0-20.6,9.2-20.6,20.6s9.2,20.6,20.6,20.6s20.6-9.2,20.6-20.6S54.1,18.5,42.8,18.5z M42.8,57.2
		c-10,0-18.1-8.1-18.1-18.1S32.8,21,42.8,21s18.1,8.1,18.1,18.1S52.7,57.2,42.8,57.2z"/>
	<path d="M47.9,38.8c0,0.1,0,0.1,0,0.2c0,0.3-0.1,0.6-0.4,0.8l-6.6,6.6c-0.2,0.2-0.5,0.4-0.9,0.4s-0.6-0.1-0.9-0.4
		c-0.5-0.5-0.5-1.3,0-1.7l5.7-5.7l-5.7-5.8c-0.5-0.5-0.5-1.3,0-1.7c0.5-0.5,1.3-0.5,1.7,0l6.6,6.6C47.8,38.2,47.9,38.5,47.9,38.8z"
		/>
</g>
</svg>
