<?xml version="1.0" encoding="utf-8"?>
<!DOCTYPE svg PUBLIC "-//W3C//DTD SVG 1.1//EN" "http://www.w3.org/Graphics/SVG/1.1/DTD/svg11.dtd">
<svg version="1.1" baseProfile="full"
 xmlns="http://www.w3.org/2000/svg"
 xmlns:xlink="http://www.w3.org/1999/xlink"
 xmlns:ev="http://www.w3.org/2001/xml-events" 
  height="11px" 
  width="22px" 
>
<path opacity="0.6" fill="rgb( 255, 255, 255 )"
 d="M19.744,3.29199999999992 C18.971,3.70600000000013 18.198,4.11799999999994 17.426,4.53099999999995 C14.42,6.13799999999992 7.61499999999999,9.72299999999996 7.61499999999999,9.72299999999996 C6.70399999999999,10.0340000000001 2.515,10.0729999999999 3.032,9.79599999999982 C3.63200000000001,9.47499999999991 6.932,7.64800000000014 8.735,6.65599999999995 C8.735,6.65599999999995 5.15600000000001,3.40299999999979 5.15600000000001,3.40299999999979 C5.15600000000001,3.40299999999979 5.756,2.47299999999996 5.756,2.47299999999996 C5.756,2.47299999999996 13.172,4.27199999999993 13.172,4.27199999999993 C15.059,3.26200000000017 16.947,2.25300000000016 18.834,1.24499999999989 C19.353,0.9670000000001 20.727,0.79899999999998 20.966,1.33500000000004 C21.224,1.91600000000017 20.261,3.01699999999983 19.744,3.29199999999992 ZM0.995,7.95100000000002 C0.995,7.95100000000002 1.464,7.32900000000018 1.464,7.32900000000018 C1.464,7.32900000000018 4.77500000000001,8.39199999999983 4.77500000000001,8.39199999999983 C4.77500000000001,8.39199999999983 2.764,9.51400000000012 2.764,9.51400000000012 C2.764,9.51400000000012 0.995,7.95100000000002 0.995,7.95100000000002 Z "/>
</svg>
