<?xml version="1.0" encoding="utf-8"?>
<!-- Generator: Adobe Illustrator 18.0.0, SVG Export Plug-In . SVG Version: 6.00 Build 0)  -->
<!DOCTYPE svg PUBLIC "-//W3C//DTD SVG 1.1//EN" "http://www.w3.org/Graphics/SVG/1.1/DTD/svg11.dtd">
<svg version="1.1" id="Слой_1" xmlns="http://www.w3.org/2000/svg" xmlns:xlink="http://www.w3.org/1999/xlink" x="0px" y="0px"
	 viewBox="0 0 93.2 82.7" enable-background="new 0 0 93.2 82.7" xml:space="preserve">
<path d="M93.2,40.2v36.8c0,3.1-2.6,5.7-5.7,5.7H5.7c-3.1,0-5.7-2.6-5.7-5.7V40.2c0-3.1,2.6-5.7,5.7-5.7s5.7,2.6,5.7,5.7v31.2h70.5
	V40.2c0-3.1,2.6-5.7,5.7-5.7C90.6,34.6,93.2,37.1,93.2,40.2z M67.3,18.1L50.7,1.6c-1-1-2.3-1.6-3.6-1.6c-0.1,0-0.3,0-0.6,0
	c-0.3,0-0.3,0-0.6,0c-1.3,0.1-2.6,0.6-3.6,1.6L26,18.1c-2.3,2.3-2.3,5.8,0,7.9c1.1,1.1,2.6,1.7,4,1.7c1.4,0,2.8-0.6,4-1.7l7-6.9
	v24.7c0,3.1,2.6,5.7,5.7,5.7s5.7-2.6,5.7-5.7V19.1l7,6.9c1.1,1.1,2.6,1.7,4,1.7s2.8-0.6,4-1.7C69.5,23.9,69.5,20.3,67.3,18.1z"/>
</svg>
