<?xml version="1.0" encoding="utf-8"?>
<!-- Generator: Adobe Illustrator 18.0.0, SVG Export Plug-In . SVG Version: 6.00 Build 0)  -->
<!DOCTYPE svg PUBLIC "-//W3C//DTD SVG 1.1//EN" "http://www.w3.org/Graphics/SVG/1.1/DTD/svg11.dtd">
<svg version="1.1" id="Слой_1" xmlns:ev="http://www.w3.org/2001/xml-events"
	 xmlns="http://www.w3.org/2000/svg" xmlns:xlink="http://www.w3.org/1999/xlink" x="0px" y="0px" viewBox="-1 -1 20 20"
	 enable-background="new -1 -1 20 20" xml:space="preserve">
<g>
	<path fill="#333333" d="M16.7,19c-0.4,0-0.8-0.2-1.1-0.4l-2.9-2.9C11.3,16.5,9.7,17,8,17c-5,0-9-4-9-9s4-9,9-9c5,0,9,4,9,9
		c0,1.7-0.5,3.3-1.4,4.7l2.9,2.9c0.3,0.3,0.4,0.7,0.4,1.1s-0.2,0.8-0.4,1.1l-0.7,0.7C17.5,18.8,17.1,19,16.7,19z M12.9,13l3.8,3.8
		l0.1-0.1L12.9,13l0.6-0.8C14.5,11,15,9.5,15,8c0-3.9-3.1-7-7-7C4.1,1,1,4.1,1,8s3.1,7,7,7c1.5,0,3-0.5,4.2-1.4L12.9,13z"/>
</g>
</svg>
