<?xml version="1.0" encoding="utf-8"?>
<!-- Generator: Adobe Illustrator 18.0.0, SVG Export Plug-In . SVG Version: 6.00 Build 0)  -->
<!DOCTYPE svg PUBLIC "-//W3C//DTD SVG 1.1//EN" "http://www.w3.org/Graphics/SVG/1.1/DTD/svg11.dtd">
<svg version="1.1" id="Слой_1" xmlns:ev="http://www.w3.org/2001/xml-events"
	 xmlns="http://www.w3.org/2000/svg" xmlns:xlink="http://www.w3.org/1999/xlink" x="0px" y="0px" viewBox="1.9 0.7 28.5 28.9"
	 enable-background="new 1.9 0.7 28.5 28.9" xml:space="preserve">
<path fill="#B1B1B1" d="M19.9,29.1c-7.6,2-15.4-2.6-17.5-10.3c-2.1-7.7,2.4-15.6,10-17.7c2.5-0.7,5.2-0.6,7.7,0.1
	c0.7,0.2,1.1,0.9,0.9,1.6c-0.2,0.7-0.9,1.1-1.6,0.9c-2-0.6-4.2-0.6-6.3-0.1c-6.2,1.7-9.9,8.2-8.2,14.5c1.7,6.3,8.1,10.1,14.3,8.4
	c4.9-1.3,8.3-5.6,8.6-10.8c0-0.7,0.6-1.3,1.4-1.2c0.7,0,1.3,0.7,1.2,1.4C30.1,22.3,25.9,27.5,19.9,29.1z"/>
</svg>
