<?xml version="1.0" encoding="utf-8"?>
<!-- Generator: Adobe Illustrator 18.0.0, SVG Export Plug-In . SVG Version: 6.00 Build 0)  -->
<!DOCTYPE svg PUBLIC "-//W3C//DTD SVG 1.1//EN" "http://www.w3.org/Graphics/SVG/1.1/DTD/svg11.dtd">
<svg version="1.1" id="Слой_1" xmlns="http://www.w3.org/2000/svg" xmlns:xlink="http://www.w3.org/1999/xlink" x="0px" y="0px"
	 viewBox="50 50.7 412.1 410.6" enable-background="new 50 50.7 412.1 410.6" xml:space="preserve">
<path id="user-7-icon" d="M462,461.3H50c-1.1-65.1,29.4-133.5,118.7-180.7c-18-19-40.1-52.3-40.1-101.5
	c0-70.8,57.6-128.4,128.4-128.4s128.4,57.6,128.4,128.4c0,49.7-22.7,83.2-41.2,102.3C429.6,324.9,463.1,395.1,462,461.3z
	 M94.1,421.2h323.8c-19.3-88.5-114.3-105.6-120.3-134.9c-6.7-32.3,47.7-36.1,47.7-107.2c0-48.7-39.6-88.3-88.3-88.3
	s-88.3,39.6-88.3,88.3c0,70.1,52.7,74.6,46.3,106.3C208.8,315.4,113.1,331.8,94.1,421.2z"/>
</svg>
