<?xml version="1.0" encoding="utf-8"?>
<!DOCTYPE svg PUBLIC "-//W3C//DTD SVG 1.1//EN" "http://www.w3.org/Graphics/SVG/1.1/DTD/svg11.dtd">
<svg version="1.1" baseProfile="full"
 xmlns="http://www.w3.org/2000/svg"
 xmlns:xlink="http://www.w3.org/1999/xlink"
 xmlns:ev="http://www.w3.org/2001/xml-events" 
  height="10px" 
  width="28px" 
>
<path opacity="0.702" fill="rgb( 255, 255, 255 )"
 d="M25.801,4.19200000000001 C24.724,4.53899999999999 23.647,4.88499999999999 22.571,5.23099999999999 C18.383,6.57900000000001 8.911,9.56599999999997 8.911,9.56599999999997 C7.678,9.76400000000001 2.30099999999999,9.02600000000001 3.02199999999999,8.79399999999998 C3.85899999999998,8.52499999999998 8.47000000000003,6.971 10.988,6.12900000000002 C10.988,6.12900000000002 7.08199999999999,1.59300000000002 7.08199999999999,1.59300000000002 C7.08199999999999,1.59300000000002 8.04599999999999,0.60000000000002 8.04599999999999,0.60000000000002 C8.04599999999999,0.60000000000002 17.174,4.125 17.174,4.125 C19.804,3.279 22.434,2.43299999999999 25.063,1.58800000000002 C25.7859999999999,1.35500000000002 27.583,1.41300000000001 27.776,2.09399999999999 C27.986,2.83199999999999 26.521,3.96100000000001 25.801,4.19200000000001 ZM0.798,6.221 C0.798,6.221 1.52999999999997,5.56799999999998 1.52999999999997,5.56799999999998 C1.52999999999997,5.56799999999998 5.55000000000001,7.45299999999997 5.55000000000001,7.45299999999997 C5.55000000000001,7.45299999999997 2.738,8.41000000000003 2.738,8.41000000000003 C2.738,8.41000000000003 0.798,6.221 0.798,6.221 Z "/>
</svg>
