<?xml version="1.0" encoding="utf-8"?>
<!DOCTYPE svg PUBLIC "-//W3C//DTD SVG 1.1//EN" "http://www.w3.org/Graphics/SVG/1.1/DTD/svg11.dtd">
<svg version="1.1" baseProfile="full"
 xmlns="http://www.w3.org/2000/svg"
 xmlns:xlink="http://www.w3.org/1999/xlink"
 xmlns:ev="http://www.w3.org/2001/xml-events" 
  height="15px" 
  width="16px" 
>
<path fill="rgb( 169, 169, 169 )"
 d="M0,15 C0,15 0,13 0,13 C0,13 0,7 0,7 C0,7 2,7 2,7 C2,7 2,13 2,13 C2,13 14,13 14,13 C14,13 14,7 14,7 C14,7 16,7 16,7 C16,7 16,13 16,13 C16,13 16,14 16,14 C16,14 16,15 16,15 C16,15 0,15 0,15 ZM9,3.41399999999999 C9,3.41399999999999 9,9 9,9 C9,9 7,9 7,9 C7,9 7,3.41399999999999 7,3.41399999999999 C7,3.41399999999999 4.70699999999999,5.70700000000011 4.70699999999999,5.70700000000011 C4.70699999999999,5.70700000000011 3.29300000000001,4.29299999999989 3.29300000000001,4.29299999999989 C3.29300000000001,4.29299999999989 7.29300000000001,0.29299999999989 7.29300000000001,0.29299999999989 C7.29300000000001,0.29299999999989 8,1 8,1 C8,1 8.70699999999999,0.29299999999989 8.70699999999999,0.29299999999989 C8.70699999999999,0.29299999999989 12.707,4.29299999999989 12.707,4.29299999999989 C12.707,4.29299999999989 11.293,5.70700000000011 11.293,5.70700000000011 C11.293,5.70700000000011 9,3.41399999999999 9,3.41399999999999 Z "/>
</svg>
