<?xml version="1.0" encoding="utf-8"?>
<!DOCTYPE svg PUBLIC "-//W3C//DTD SVG 1.1//EN" "http://www.w3.org/Graphics/SVG/1.1/DTD/svg11.dtd">
<svg version="1.1" baseProfile="full"
 xmlns="http://www.w3.org/2000/svg"
 xmlns:xlink="http://www.w3.org/1999/xlink"
 xmlns:ev="http://www.w3.org/2001/xml-events" 
  height="11px" 
  width="18px" 
>
<path fill="rgb( 255, 255, 255 )"
 d="M9.78199999999993,10 C10.1880000000001,10 10.354,9.73200000000003 10.3489999999999,9.39699999999999 C10.328,8.13600000000002 10.8240000000001,7.45699999999999 11.72,8.34199999999998 C12.712,9.322 12.9169999999999,10 14.1199999999999,10 C14.578,10 15.808,10 16.252,10 C17.9290000000001,10 16.4349999999999,8.33699999999999 15.2529999999999,7.25400000000002 C14.1300000000001,6.22399999999999 14.077,6.19999999999999 15.0440000000001,4.95999999999998 C16.2460000000001,3.42200000000003 17.8150000000001,1.43900000000002 16.4259999999999,1.43900000000002 C16.154,1.43900000000002 16.348,1.43900000000002 13.7739999999999,1.43900000000002 C13.26,1.43900000000002 13.222,1.73599999999999 13.04,2.16300000000001 C12.377,3.70600000000002 11.117,5.70699999999999 10.6389999999999,5.40100000000001 C10.1379999999999,5.08199999999999 10.367,3.99799999999999 10.4059999999999,2.12 C10.4159999999999,1.62400000000002 10.413,1.28300000000002 9.64599999999996,1.10700000000003 C7.54999999999995,0.62700000000001 5.73399999999992,1.572 6.47600000000011,1.70800000000003 C7.52199999999993,1.90100000000001 7.42200000000003,3.95800000000003 7.17800000000011,4.92399999999998 C6.75299999999993,6.60500000000002 5.15599999999995,3.59199999999998 4.49000000000001,2.09100000000001 C4.32999999999993,1.73000000000002 4.28099999999995,1.43900000000002 3.70700000000011,1.43900000000002 C3.39300000000003,1.43900000000002 2.00500000000011,1.43900000000002 1.53899999999999,1.43900000000002 C1.12100000000009,1.43900000000002 0.91599999999994,1.62900000000002 1.0619999999999,2.012 C1.20800000000008,2.39499999999998 2.88599999999997,6.10300000000001 4.86899999999991,8.21800000000002 C6.70499999999993,10.175 8.51999999999998,10 9.78199999999993,10 Z "/>
</svg>
